<svg width="64" height="65" viewBox="0 0 64 65" fill="none" xmlns="http://www.w3.org/2000/svg">
<path d="M49.6401 6.94356L47.7701 7.67356C33.0301 13.4136 19.3101 21.4936 7.1601 31.6236C5.4401 33.0536 5.8401 35.7936 7.9001 36.6836L16.0101 40.1736C16.4001 40.3436 16.8601 40.2436 17.1501 39.9236L18.8001 38.0936C25.9101 30.2036 34.0501 23.3036 43.0101 17.5936C43.5101 17.2736 44.0501 17.9436 43.6401 18.3636C36.6001 25.6136 30.1701 33.4336 24.4001 41.7236C23.6401 42.8536 23.1701 44.1636 23.0101 45.5136C22.5801 49.2836 22.6901 53.0936 23.3501 56.8436C23.4101 57.1936 23.6301 57.4436 23.9101 57.5736C24.2601 57.7336 24.7001 57.7036 25.0201 57.4036C28.0001 54.6236 30.7501 51.6136 33.2601 48.4136C33.5401 48.0536 34.0201 47.9336 34.4401 48.1136L43.3701 51.9636C45.0701 52.6936 47.0301 51.7236 47.4701 49.9236L47.9201 48.1236C51.0201 35.5736 53.0301 22.7736 53.9401 9.87356C53.9401 7.66356 51.7201 6.14356 49.6601 6.94356H49.6401Z" fill="black"/>
</svg>
