<svg width="64" height="64" viewBox="0 0 64 64" fill="none" xmlns="http://www.w3.org/2000/svg">
<path d="M54.3 49.19L50.9799 45.87C50.6999 45.59 50.65 45.16 50.86 44.81C52.81 41.57 53.9301 37.78 53.9301 33.72C53.9301 21.73 43.57 11.74 31.59 12.17C20.04 12.58 10.8 22.07 10.8 33.72C10.8 37.78 11.93 41.57 13.87 44.81C14.08 45.15 14.0299 45.59 13.7499 45.87L10.4301 49.19C8.8601 50.76 8.78009 53.42 10.4201 54.93C11.1601 55.61 12.1 55.95 13.04 55.95C14.03 55.95 15.03 55.57 15.78 54.81L19.0199 51.57C19.3199 51.27 19.78 51.24 20.12 51.48C23.6 53.88 27.81 55.29 32.35 55.29C36.89 55.29 41.11 53.88 44.58 51.48C44.92 51.24 45.3901 51.27 45.6801 51.57L48.9201 54.81C49.6801 55.57 50.6701 55.95 51.6701 55.95C52.6101 55.95 53.55 55.61 54.29 54.93C55.95 53.42 55.88 50.76 54.3 49.19ZM15.12 33.72C15.12 24.21 22.86 16.47 32.37 16.47C41.88 16.47 49.62 24.21 49.62 33.72C49.62 43.23 41.88 50.97 32.37 50.97C22.86 50.97 15.12 43.23 15.12 33.72ZM55.4001 24.02C54.9701 24.2 54.48 24 54.28 23.58C53.09 21.01 51.4599 18.69 49.4499 16.67C47.4299 14.65 45.11 13.03 42.54 11.83C42.12 11.63 41.92 11.14 42.1 10.71C42.89 8.84001 44.87 7.76003 46.87 8.10003C52.57 9.08003 57.0299 13.54 58.0099 19.24C58.3599 21.25 57.2801 23.23 55.4001 24.02ZM9.34001 24.02C7.47001 23.23 6.3899 21.25 6.7299 19.25C7.7099 13.55 12.17 9.09003 17.87 8.11004C19.87 7.77003 21.8501 8.85002 22.6401 10.72C22.8201 11.15 22.6199 11.64 22.1999 11.84C19.6299 13.03 17.31 14.66 15.29 16.68C13.27 18.7 11.6499 21.02 10.4599 23.59C10.2599 24.01 9.77001 24.21 9.34001 24.02ZM39.35 44.73C38.74 44.73 38.1299 44.47 37.7099 43.97L30.9201 35.98C29.9201 34.82 29.36 33.32 29.36 31.76V21.87C29.36 20.68 30.3299 19.71 31.5199 19.71C32.7099 19.71 33.6801 20.68 33.6801 21.87V31.76C33.6801 32.28 33.8699 32.78 34.2099 33.17L41.0099 41.18C41.7799 42.09 41.6699 43.45 40.7599 44.22C40.3399 44.56 39.84 44.73 39.35 44.73Z" fill="black"/>
</svg>
