<svg width="64" height="64" viewBox="0 0 64 64" fill="none" xmlns="http://www.w3.org/2000/svg">
<path d="M55.04 24.0202C54.61 24.2002 54.1199 24.0002 53.9199 23.5802C52.7299 21.0102 51.1 18.6902 49.09 16.6702C47.07 14.6502 44.7499 13.0302 42.1799 11.8302C41.7599 11.6302 41.5599 11.1401 41.7399 10.7101C42.5299 8.84013 44.5099 7.76015 46.5099 8.10015C52.2099 9.08015 56.6701 13.5402 57.6501 19.2402C57.9901 21.2502 56.91 23.2302 55.04 24.0202ZM8.9699 24.0202C9.3999 24.2002 9.89002 24.0002 10.09 23.5802C11.28 21.0102 12.9099 18.6902 14.9199 16.6702C16.9399 14.6502 19.26 13.0302 21.83 11.8302C22.25 11.6302 22.45 11.1401 22.27 10.7101C21.48 8.84013 19.4999 7.76015 17.4999 8.10015C11.7999 9.08015 7.34004 13.5402 6.36004 19.2402C6.02004 21.2502 7.0999 23.2302 8.9699 24.0202ZM53.9499 54.9202C53.2099 55.6002 52.27 55.9401 51.33 55.9401C50.34 55.9401 49.34 55.5602 48.58 54.8002L45.34 51.5601C45.04 51.2601 44.5799 51.2301 44.2399 51.4701C40.7599 53.8701 36.5499 55.2801 32.0099 55.2801C27.4699 55.2801 23.25 53.8701 19.78 51.4701C19.44 51.2301 18.9699 51.2601 18.6799 51.5601L15.4399 54.8002C14.6799 55.5602 13.6899 55.9401 12.6999 55.9401C11.7599 55.9401 10.82 55.6002 10.08 54.9202C8.44001 53.4102 8.52002 50.7601 10.09 49.1801L13.4101 45.8602C13.6901 45.5802 13.74 45.1402 13.53 44.8002C11.58 41.5602 10.4599 37.7701 10.4599 33.7101C10.4599 22.0601 19.6999 12.5701 31.2499 12.1601C43.2399 11.7401 53.59 21.7201 53.59 33.7101C53.59 37.7701 52.4599 41.5602 50.52 44.8002C50.31 45.1402 50.3601 45.5702 50.6401 45.8602L53.9599 49.1801C55.5099 50.7601 55.5899 53.4202 53.9499 54.9202ZM40.6301 41.1702L33.83 33.1601C33.49 32.7701 33.3 32.2701 33.3 31.7501V21.8602C33.3 20.6702 32.3301 19.7002 31.1401 19.7002C29.9501 19.7002 28.9799 20.6702 28.9799 21.8602V31.7501C28.9799 33.3001 29.54 34.8001 30.54 35.9701L37.33 43.9601C37.76 44.4601 38.3599 44.7201 38.9699 44.7201C39.4599 44.7201 39.96 44.5501 40.37 44.2101C41.29 43.4401 41.4001 42.0802 40.6301 41.1702Z" fill="black"/>
</svg>
