<svg width="64" height="64" viewBox="0 0 64 64" fill="none" xmlns="http://www.w3.org/2000/svg">
<path d="M48.5199 37.53L51.7798 42.18C52.1498 42.71 52.3499 43.35 52.3499 44C52.3499 44.55 51.8999 45 51.3499 45H11.3499C10.7999 45 10.3499 44.55 10.3499 44C10.3499 43.35 10.5499 42.71 10.9199 42.18L14.1798 37.53C16.2398 34.58 17.3499 31.07 17.3499 27.48V23.01C17.3499 15.28 23.6199 9.01001 31.3499 9.01001C39.0799 9.01001 45.3499 15.28 45.3499 23.01V27.48C45.3499 31.08 46.4599 34.59 48.5199 37.53ZM37.3499 49C37.3499 48.45 36.8999 48 36.3499 48H26.3499C25.7999 48 25.3499 48.45 25.3499 49C25.3499 52.31 28.0399 55 31.3499 55C34.6599 55 37.3499 52.31 37.3499 49Z" fill="black"/>
</svg>
