<svg width="64" height="64" viewBox="0 0 64 64" fill="none" xmlns="http://www.w3.org/2000/svg">
<path d="M31.36 6.81006C17.55 6.81006 6.35999 18.0001 6.35999 31.8101C6.35999 45.6201 17.55 56.8101 31.36 56.8101C45.17 56.8101 56.36 45.6201 56.36 31.8101C56.36 18.0001 45.17 6.81006 31.36 6.81006ZM31.36 49.1501C29 49.1501 27.09 47.2401 27.09 44.8801C27.09 42.5201 29 40.6101 31.36 40.6101C33.72 40.6101 35.63 42.5201 35.63 44.8801C35.63 47.2401 33.72 49.1501 31.36 49.1501ZM37.17 19.2501C37.13 23.6201 36.56 27.9501 35.49 32.0801L35.08 33.6601C34.71 35.0801 33.82 36.1301 32.74 36.4301C31.83 36.6801 30.89 36.6801 29.97 36.4301C28.89 36.1301 28 35.0801 27.63 33.6601L27.22 32.0801C26.16 27.9601 25.59 23.6201 25.54 19.2501C25.52 17.2101 26.56 15.4401 28.02 15.0201C30.22 14.3801 32.49 14.3801 34.68 15.0201C36.14 15.4501 37.18 17.2201 37.16 19.2501H37.17Z" fill="black"/>
</svg>
