<svg width="64" height="64" viewBox="0 0 64 64" fill="none" xmlns="http://www.w3.org/2000/svg">
<path d="M56.91 46.3499L56.5 45.2299C52.06 33.11 45.58 21.63 37.27 11.18C34.58 7.78995 29.44 7.78995 26.75 11.18C18.43 21.63 11.95 33.11 7.50998 45.2299L7.09998 46.3499C5.73998 50.0599 8.25998 54.0499 12.19 54.43C25.37 55.6899 38.64 55.6899 51.82 54.43C55.75 54.0499 58.27 50.0599 56.91 46.3499ZM32.85 49.24C30.28 49.73 28.08 47.52 28.56 44.95C28.83 43.53 30 42.36 31.42 42.09C33.99 41.5999 36.19 43.81 35.71 46.38C35.44 47.81 34.27 48.97 32.85 49.24ZM35.78 34.74L35.36 36.31C35.09 37.33 34.44 38.0999 33.64 38.3699C32.65 38.6999 31.61 38.6999 30.62 38.3699C29.82 38.1099 29.17 37.34 28.9 36.31L28.48 34.74C27.51 31.1 27.01 27.27 27 23.4C27 21.9 27.8 20.61 28.91 20.27C31.02 19.62 33.22 19.62 35.33 20.27C36.44 20.61 37.25 21.9 37.24 23.4C37.24 27.26 36.73 31.09 35.76 34.74H35.78Z" fill="black"/>
</svg>
