<svg width="65" height="64" viewBox="0 0 65 64" fill="none" xmlns="http://www.w3.org/2000/svg">
<path d="M31.3627 6.81006C17.5527 6.81006 6.36267 18.0001 6.36267 31.8101C6.36267 45.6201 17.5527 56.8101 31.3627 56.8101C45.1727 56.8101 56.3627 45.6201 56.3627 31.8101C56.3627 18.0001 45.1727 6.81006 31.3627 6.81006ZM31.3627 49.1501C29.0027 49.1501 27.0927 47.2401 27.0927 44.8801C27.0927 42.5201 29.0027 40.61 31.3627 40.61C33.7227 40.61 35.6327 42.5201 35.6327 44.8801C35.6327 47.2401 33.7227 49.1501 31.3627 49.1501ZM39.2826 19.2501C39.2226 23.6201 38.4527 27.95 37.0027 32.08L36.4426 33.6601C35.9426 35.0801 34.7327 36.1301 33.2527 36.4301C32.0027 36.6801 30.7227 36.6801 29.4827 36.4301C28.0027 36.1301 26.7926 35.0801 26.2926 33.6601L25.7327 32.08C24.2827 27.96 23.5126 23.6201 23.4526 19.2501C23.4226 17.2101 24.8326 15.4401 26.8226 15.0201C29.8126 14.3801 32.9126 14.3801 35.9126 15.0201C37.9026 15.4401 39.3126 17.2101 39.2826 19.2501Z" fill="black"/>
</svg>
