<svg width="65" height="65" viewBox="0 0 65 65" fill="none" xmlns="http://www.w3.org/2000/svg">
<path d="M31.5247 55.0601C28.2147 55.0601 25.5247 52.3701 25.5247 49.0601C25.5247 48.5101 25.9747 48.0601 26.5247 48.0601H36.5247C37.0747 48.0601 37.5247 48.5101 37.5247 49.0601C37.5247 52.3701 34.8347 55.0601 31.5247 55.0601ZM17.5446 22.7501C17.5446 22.8501 17.5247 22.9501 17.5247 23.0601V27.5301C17.5247 31.1301 16.4147 34.64 14.3547 37.58L11.0947 42.2301C10.7247 42.7601 10.5247 43.4 10.5247 44.05C10.5247 44.6 10.9747 45.05 11.5247 45.05H46.1147L17.5446 22.7401V22.7501ZM56.4046 43.3401L48.3547 37.0601C46.5147 34.2301 45.5247 30.9201 45.5247 27.5401V23.0701C45.5247 15.3401 39.2547 9.07007 31.5247 9.07007C26.7947 9.07007 22.6347 11.4201 20.0947 15.0101L14.7147 10.8101C13.6247 9.96006 12.0547 10.1501 11.2047 11.2401C10.3547 12.3301 10.5447 13.9001 11.6347 14.7501L53.3247 47.2901C53.7847 47.6501 54.3247 47.8201 54.8647 47.8201C55.6047 47.8201 56.3447 47.49 56.8347 46.86C57.6847 45.77 57.4946 44.2001 56.4046 43.3501V43.3401Z" fill="black"/>
</svg>
