<svg width="64" height="65" viewBox="0 0 64 65" fill="none" xmlns="http://www.w3.org/2000/svg">
<path d="M35.3 21.3635C33 22.2035 30.4101 22.2035 28.1001 21.3635C26.8801 20.9235 25.34 20.5935 23.45 20.5935C12.56 20.5935 8.37012 27.3135 8.37012 34.9635C8.37012 48.1135 17.3201 59.5435 24.1101 59.5435C26.9201 59.5435 29.2901 58.4635 30.6001 57.7135C31.2801 57.3235 32.12 57.3235 32.8 57.7135C34.11 58.4635 36.48 59.5435 39.29 59.5435C46.09 59.5435 55.03 48.1135 55.03 34.9635C55.03 27.3135 50.84 20.5935 39.95 20.5935C38.06 20.5935 36.52 20.9235 35.3 21.3635Z" fill="black"/>
<path d="M31.8202 18.9835C31.9202 19.6235 31.3701 20.1735 30.7301 20.0735C25.1601 19.1935 20.7902 14.8236 19.9102 9.25357C19.8102 8.61357 20.3601 8.06354 21.0001 8.16354C26.5701 9.04354 30.9402 13.4135 31.8202 18.9835Z" fill="black"/>
<path d="M33.5802 16.2935C32.9402 16.3935 32.3901 15.8435 32.4901 15.2035C33.3701 9.63352 37.7401 5.26351 43.3101 4.38351C43.9501 4.28351 44.5002 4.83354 44.4002 5.47354C43.5202 11.0435 39.1502 15.4135 33.5802 16.2935Z" fill="black"/>
</svg>
