<svg width="64" height="65" viewBox="0 0 64 65" fill="none" xmlns="http://www.w3.org/2000/svg">
<path d="M45.84 14.6438L24.35 40.2538C24.08 40.5838 23.55 40.4338 23.47 40.0238L21.82 30.7638C21.59 29.4738 20.45 28.4738 19.15 28.5738C17.65 28.6938 16.62 30.0638 16.87 31.5038L19.37 45.5838C19.75 47.7338 21.62 49.2938 23.79 49.2938L38.09 49.3138C38.86 49.3138 39.55 48.9638 40.01 48.4238C40.36 48.0138 40.57 47.4838 40.59 46.9038C40.64 45.4838 39.36 44.3138 37.93 44.3138L29.24 44.3038C28.12 44.3038 27.89 43.8038 28.16 43.4838L49.74 17.7638C50.68 16.6438 50.47 14.9338 49.23 14.0838C48.16 13.3338 46.68 13.6438 45.84 14.6438Z" fill="black"/>
</svg>
