<svg width="64" height="65" viewBox="0 0 64 65" fill="none" xmlns="http://www.w3.org/2000/svg">
<path d="M42.65 48.8238L21.16 23.2138C20.89 22.8838 20.36 23.0338 20.28 23.4438L18.63 32.7038C18.4 33.9938 17.26 34.9938 15.96 34.8938C14.46 34.7738 13.43 33.4038 13.68 31.9638L16.18 17.8838C16.56 15.7338 18.43 14.1738 20.6 14.1738L34.9 14.1538C35.67 14.1538 36.36 14.5038 36.82 15.0438C37.17 15.4538 37.38 15.9838 37.4 16.5638C37.45 17.9838 36.17 19.1538 34.74 19.1538L26.05 19.1638C24.93 19.1638 24.7 19.6638 24.97 19.9838L46.55 45.7038C47.49 46.8238 47.28 48.5338 46.04 49.3838C44.98 50.1338 43.49 49.8238 42.65 48.8238Z" fill="black"/>
</svg>
