<svg width="64" height="64" viewBox="0 0 64 64" fill="none" xmlns="http://www.w3.org/2000/svg">
<path d="M51.56 29.5C45.81 29.5 23.29 29.5 18.11 29.5C17.69 29.5 17.46 29 17.73 28.68L23.77 21.46C24.61 20.46 24.65 18.94 23.73 18.01C22.68 16.94 20.96 17.03 20.02 18.15L10.85 29.12C9.44999 30.79 9.44999 33.22 10.85 34.9L20.02 45.86C20.51 46.45 21.22 46.76 21.94 46.76C22.48 46.76 23.02 46.59 23.48 46.23C24.6 45.35 24.67 43.62 23.76 42.53L18.18 35.87C17.46 35.01 17.69 34.52 18.12 34.52H51.7C53.17 34.52 54.34 33.26 54.19 31.76C54.05 30.44 52.87 29.5 51.56 29.5Z" fill="black"/>
</svg>
