<svg width="64" height="64" viewBox="0 0 64 64" fill="none" xmlns="http://www.w3.org/2000/svg">
<path d="M39.0454 15.8177V42.5476C39.0454 43.3976 38.0554 43.8577 37.4054 43.3177L32.7353 39.4076C31.7353 38.5676 30.2154 38.5277 29.2754 39.4477C28.2054 40.4977 28.2954 42.2176 29.4154 43.1576L39.9353 51.9577C40.8653 52.7377 42.2154 52.7377 43.1454 51.9577L53.6654 43.1576C54.2554 42.6676 54.5653 41.9576 54.5653 41.2376C54.5653 40.6976 54.3954 40.1577 54.0354 39.6977C53.1554 38.5777 51.4253 38.5077 50.3353 39.4277L45.6853 43.3177C45.0353 43.8577 44.0454 43.3976 44.0454 42.5476V15.6777C44.0454 14.2077 42.7854 13.0377 41.2854 13.1877C39.9854 13.3177 39.0454 14.5077 39.0454 15.8177Z" fill="black"/>
<path d="M20.8254 12.0376L10.4155 20.7477C9.41546 21.5877 9.10538 23.0776 9.83538 24.1576C10.6854 25.3976 12.3854 25.6177 13.5154 24.6777L18.2955 20.6777C18.9455 20.1377 19.9354 20.5977 19.9354 21.4477V48.1777C19.9354 49.4877 20.8755 50.6777 22.1755 50.8077C23.6755 50.9577 24.9354 49.7877 24.9354 48.3177V21.4477C24.9354 20.5977 25.9254 20.1377 26.5754 20.6777L31.2254 24.5677C32.3154 25.4777 34.0554 25.4176 34.9354 24.2976C35.2854 23.8476 35.4654 23.2977 35.4654 22.7577C35.4654 22.0477 35.1654 21.3376 34.5654 20.8376L24.0455 12.0376C23.1055 11.2576 21.7554 11.2576 20.8254 12.0376Z" fill="black"/>
</svg>
