<svg width="64" height="65" viewBox="0 0 64 65" fill="none" xmlns="http://www.w3.org/2000/svg">
<path d="M20.26 48.8238L41.75 23.2138C42.02 22.8838 42.55 23.0338 42.63 23.4438L44.28 32.7038C44.51 33.9938 45.65 34.9938 46.95 34.8938C48.45 34.7738 49.48 33.4038 49.23 31.9638L46.73 17.8838C46.35 15.7338 44.48 14.1738 42.31 14.1738L28.01 14.1538C27.24 14.1538 26.55 14.5038 26.09 15.0438C25.74 15.4538 25.53 15.9838 25.51 16.5638C25.46 17.9838 26.74 19.1538 28.17 19.1538L36.86 19.1638C37.98 19.1638 38.21 19.6638 37.94 19.9838L16.36 45.7038C15.42 46.8238 15.63 48.5338 16.87 49.3838C17.93 50.1338 19.41 49.8238 20.26 48.8238Z" fill="black"/>
</svg>
