<svg width="64" height="64" viewBox="0 0 64 64" fill="none" xmlns="http://www.w3.org/2000/svg">
<path d="M29.5 51.55V18.11C29.5 17.69 29.0001 17.45 28.6801 17.73L21.46 23.77C20.46 24.61 18.94 24.65 18.01 23.73C16.94 22.68 17.0301 20.96 18.1501 20.02L29.1201 10.85C30.7901 9.44999 33.2201 9.44999 34.9001 10.85L45.8601 20.02C46.4501 20.51 46.76 21.22 46.76 21.94C46.76 22.48 46.5901 23.02 46.2301 23.48C45.3501 24.6 43.6201 24.67 42.5301 23.76L35.8701 18.18C35.0101 17.46 34.52 17.69 34.52 18.12V51.7C34.52 53.17 33.26 54.34 31.76 54.19C30.44 54.05 29.5 52.86 29.5 51.55Z" fill="black"/>
</svg>
