<svg width="64" height="65" viewBox="0 0 64 65" fill="none" xmlns="http://www.w3.org/2000/svg">
<path d="M23.44 14.6438L44.93 40.2538C45.2 40.5838 45.73 40.4338 45.81 40.0238L47.4601 30.7638C47.6901 29.4738 48.83 28.4738 50.13 28.5738C51.63 28.6938 52.6601 30.0638 52.4101 31.5038L49.9101 45.5838C49.5301 47.7338 47.66 49.2938 45.49 49.2938L31.19 49.3138C30.42 49.3138 29.73 48.9638 29.27 48.4238C28.92 48.0138 28.71 47.4838 28.69 46.9038C28.64 45.4838 29.9201 44.3138 31.3501 44.3138L40.0401 44.3038C41.1601 44.3038 41.39 43.8038 41.12 43.4838L19.5401 17.7638C18.6001 16.6438 18.81 14.9338 20.05 14.0838C21.11 13.3338 22.6 13.6438 23.44 14.6438Z" fill="black"/>
</svg>
