<svg width="64" height="64" viewBox="0 0 64 64" fill="none" xmlns="http://www.w3.org/2000/svg">
<path d="M34.5 12.44V45.88C34.5 46.3 35 46.54 35.32 46.26L42.54 40.22C43.54 39.38 45.06 39.34 45.99 40.26C47.06 41.31 46.97 43.03 45.85 43.97L34.88 53.14C33.21 54.54 30.78 54.54 29.1 53.14L18.14 43.97C17.55 43.48 17.24 42.77 17.24 42.05C17.24 41.51 17.41 40.97 17.77 40.51C18.65 39.39 20.38 39.32 21.47 40.23L28.13 45.81C28.99 46.53 29.48 46.3 29.48 45.87V12.29C29.48 10.82 30.74 9.65 32.24 9.8C33.55 9.94 34.5 11.13 34.5 12.44Z" fill="black"/>
</svg>
