<svg width="64" height="64" viewBox="0 0 64 64" fill="none" xmlns="http://www.w3.org/2000/svg">
<path d="M12.44 29.5C18.19 29.5 40.71 29.5 45.89 29.5C46.31 29.5 46.54 29 46.27 28.68L40.23 21.46C39.39 20.46 39.35 18.94 40.27 18.01C41.32 16.94 43.04 17.03 43.98 18.15L53.1499 29.12C54.5499 30.79 54.5499 33.22 53.1499 34.9L43.98 45.86C43.49 46.45 42.78 46.76 42.06 46.76C41.52 46.76 40.98 46.59 40.52 46.23C39.4 45.35 39.33 43.62 40.24 42.53L45.82 35.87C46.54 35.01 46.31 34.52 45.88 34.52H12.3C10.83 34.52 9.65997 33.26 9.80997 31.76C9.94997 30.44 11.13 29.5 12.44 29.5Z" fill="black"/>
</svg>
