<svg width="64" height="64" viewBox="0 0 64 64" fill="none" xmlns="http://www.w3.org/2000/svg">
<path d="M48.18 39.0399H21.4499C20.5999 39.0399 20.14 38.0499 20.68 37.3999L24.5899 32.7299C25.4299 31.7299 25.47 30.21 24.55 29.27C23.5 28.2 21.7799 28.2899 20.8399 29.4099L12.04 39.9299C11.26 40.8599 11.26 42.2099 12.04 43.1399L20.8399 53.6599C21.3299 54.2499 22.0399 54.5599 22.7599 54.5599C23.2999 54.5599 23.84 54.3899 24.3 54.0299C25.42 53.1499 25.49 51.4199 24.57 50.3299L20.68 45.6799C20.14 45.0299 20.5999 44.0399 21.4499 44.0399H48.32C49.79 44.0399 50.96 42.7799 50.81 41.2799C50.68 39.9899 49.49 39.0399 48.18 39.0399Z" fill="black"/>
<path d="M51.9599 20.83L43.25 10.4199C42.41 9.41993 40.9199 9.10992 39.8399 9.83992C38.5999 10.6899 38.38 12.39 39.32 13.52L43.32 18.2999C43.86 18.9499 43.4 19.94 42.55 19.94H15.82C14.51 19.94 13.32 20.8799 13.19 22.1799C13.04 23.6799 14.21 24.94 15.68 24.94H42.55C43.4 24.94 43.86 25.93 43.32 26.58L39.43 31.2299C38.52 32.3199 38.5799 34.06 39.6999 34.94C40.1499 35.29 40.7 35.4699 41.24 35.4699C41.95 35.4699 42.66 35.17 43.16 34.57L51.9599 24.0499C52.7399 23.1099 52.7399 21.75 51.9599 20.83Z" fill="black"/>
</svg>
