<svg width="64" height="65" viewBox="0 0 64 65" fill="none" xmlns="http://www.w3.org/2000/svg">
<path d="M31.44 59.6541C31.27 59.6541 31.1 59.6541 30.94 59.6441C24.42 59.3741 19.11 54.1942 18.59 47.6042C17.75 34.7942 18.26 23.5941 20.1 14.2741V13.7741L20.1701 13.4741C21.3601 8.71415 25.62 5.45411 30.32 5.74411L30.44 5.75412C35.89 6.32412 39.88 11.1741 39.39 16.5841L39.37 17.4142C38.58 23.9542 38.29 31.1042 38.52 38.6742C38.52 40.7642 37.7101 42.6541 36.3001 43.9441C34.9701 45.1541 33.26 45.7341 31.46 45.5741C28.1 45.2341 25.6401 42.7741 25.3001 39.4341L25.2901 39.1841V38.3741C25.0701 33.3841 25.54 28.1641 26.65 23.2641C26.96 21.9141 28.29 21.0741 29.64 21.3841C30.99 21.6941 31.83 23.0341 31.52 24.3741C30.5 28.8541 30.0701 33.6341 30.2801 38.2041V39.0442C30.4101 39.9642 30.9701 40.5041 31.9201 40.5941C32.2801 40.6341 32.6201 40.5141 32.9101 40.2541C33.2801 39.9141 33.5 39.3641 33.5 38.7541C33.27 31.0741 33.56 23.7141 34.37 16.9641L34.38 16.2041C34.67 13.4941 32.68 11.0542 29.96 10.7342C27.75 10.6342 25.78 12.1242 25.09 14.4142L25.0401 15.0041C23.2801 23.8241 22.77 34.9642 23.57 47.2342C23.89 51.2742 27.15 54.4741 31.13 54.6341C35.68 54.8141 39.4001 51.4841 39.5601 47.0841L39.99 39.0341C40.21 34.7641 41.49 30.5341 43.77 26.4741C44.45 25.2741 45.9701 24.8441 47.1701 25.5241C48.3701 26.2041 48.8 27.7242 48.12 28.9242C46.22 32.3042 45.16 35.7942 44.98 39.2942L44.5501 47.3041C44.3001 54.2041 38.46 59.6541 31.44 59.6541Z" fill="black"/>
</svg>
