<svg width="65" height="65" viewBox="0 0 65 65" fill="none" xmlns="http://www.w3.org/2000/svg">
<path d="M17.2824 26.4956C15.7224 26.7056 13.0224 26.8856 10.0024 27.0156C9.58241 27.0356 9.3224 26.5556 9.5724 26.2156C11.3724 23.8156 14.0424 20.6556 16.9724 17.7856C19.7324 15.0756 22.7424 12.6256 25.0924 10.9456C25.4424 10.6956 25.9224 10.9756 25.8724 11.4056C25.5924 14.4356 25.3024 17.1356 25.0924 18.6756C24.5424 22.7356 21.3424 25.9356 17.2824 26.4856V26.4956ZM55.2124 32.6556C55.2124 37.4856 54.8824 42.3256 54.2324 47.1156C53.9324 49.3356 52.9024 51.3256 51.3924 52.8356C49.8824 54.3456 47.9024 55.3656 45.6724 55.6756C40.8724 56.3256 36.0424 56.6556 31.2124 56.6556C26.3824 56.6556 21.5424 56.3256 16.7524 55.6756C14.5324 55.3756 12.5424 54.3456 11.0324 52.8356C9.52241 51.3256 8.50241 49.3456 8.19241 47.1156C7.85241 44.6056 7.60241 41.6256 7.45241 38.6456C7.31241 36.0356 7.24241 33.4156 7.22241 31.0956C7.22241 30.5556 7.6424 30.1156 8.1824 30.0956C9.9424 30.0256 11.6624 29.9456 13.2124 29.8556C15.0324 29.7456 16.6024 29.6156 17.6824 29.4656C20.3724 29.0956 22.7824 27.8456 24.6124 26.0156C26.4424 24.1856 27.6924 21.7756 28.0624 19.0856C28.2024 18.0956 28.3724 16.5556 28.5624 14.7356C28.7224 13.1756 28.8924 11.3956 29.0524 9.56558C29.1024 9.04558 29.5324 8.64558 30.0524 8.65558C32.3624 8.67558 34.8924 8.74558 37.4224 8.88558C40.2924 9.04558 43.1624 9.28558 45.6824 9.63558C47.9024 9.93558 49.8924 10.9656 51.4024 12.4756C52.9124 13.9856 53.9324 15.9656 54.2424 18.1956C54.8924 22.9956 55.2224 27.8256 55.2224 32.6556H55.2124ZM43.3024 31.2856C40.7124 28.7056 35.6424 22.7656 33.4324 23.7456L33.3524 23.7756L33.2724 23.8056C33.0824 23.8956 32.9224 24.0256 32.7924 24.1856C32.6724 24.3456 32.5924 24.5456 32.5624 24.7456V24.8256L32.5424 24.9056C32.2424 27.1556 32.0524 30.4156 31.9724 32.6756C31.8924 34.9356 31.9324 37.2056 32.0724 39.4656C32.0824 39.6656 32.0024 39.8356 31.8724 39.9556C31.7424 40.0756 31.5524 40.1256 31.3624 40.0956C30.9824 40.0256 30.5924 39.9956 30.1924 39.9856C29.7924 39.9856 29.3824 40.0156 28.9624 40.0956C27.3724 40.3756 26.0324 41.1556 25.1424 42.1956C24.2524 43.2356 23.8224 44.5256 24.0524 45.8356C24.2824 47.1456 25.1324 48.2256 26.3324 48.9056C27.5224 49.5856 29.0524 49.8656 30.6324 49.5456C31.3724 49.3956 32.0124 49.2356 32.6124 48.9356C33.2124 48.6356 33.7824 48.2056 34.3924 47.5256C34.9024 46.9556 35.2424 46.2556 35.4224 45.4856C35.6024 44.7156 35.6124 43.8556 35.4724 42.9856C35.1024 40.7656 34.9724 38.2056 34.9524 35.8556C34.9424 33.5056 35.0524 31.3656 35.1524 29.9756C35.1624 29.8356 35.2224 29.7056 35.3124 29.6156C35.4024 29.5156 35.5224 29.4456 35.6624 29.4356C37.9724 29.2056 37.2124 35.2856 39.3524 36.3856C39.7824 36.6056 40.3224 36.5556 40.7224 36.2356C42.0624 35.1256 43.1124 34.0056 43.7224 32.8656C44.0424 32.2656 43.7324 31.7056 43.2924 31.2656L43.3024 31.2856Z" fill="#231F20"/>
</svg>
