<svg width="64" height="65" viewBox="0 0 64 65" fill="none" xmlns="http://www.w3.org/2000/svg">
<path d="M30.4082 41.2481C31.3082 42.1381 31.6182 43.4581 31.0482 44.5881C28.3482 49.9681 27.2282 56.5781 21.4582 59.5681C20.9482 59.8381 20.3182 59.6181 20.0882 59.0881C19.5282 57.7981 18.9082 56.4581 18.2282 55.0781C17.9882 54.5981 17.5682 54.2381 17.0582 54.0781C15.1082 53.4781 13.0982 52.8281 11.0182 52.1181C10.5982 51.9781 10.5482 51.3981 10.9482 51.1881C15.9982 48.4881 17.0982 43.7481 19.2582 38.7881C19.4482 38.3481 20.2882 37.5581 21.5482 37.5581H26.3182C26.5882 37.5581 26.8382 37.6681 27.0282 37.8481L30.3982 41.2181C30.3982 41.2181 30.4082 41.2281 30.4182 41.2381L30.4082 41.2481ZM45.5082 38.8281C45.2182 38.0281 44.4382 37.5581 43.5882 37.5681C43.5882 37.5681 43.5882 37.5681 43.5782 37.5681H38.8082C38.5382 37.5681 38.2882 37.6781 38.0982 37.8581L34.7282 41.2281L34.7082 41.2481C33.4982 42.4381 33.0982 44.2181 33.6582 45.8181L37.9782 57.9281C38.2182 58.6081 39.0682 58.8181 39.5982 58.3281L43.2482 54.9481C43.6482 54.5781 44.1882 54.3881 44.7282 54.4181L49.6882 54.7281C50.4082 54.7681 50.9282 54.0681 50.6882 53.3981L45.4982 38.8281H45.5082ZM47.9082 22.7781L44.2082 19.0781C44.0182 18.8881 43.9182 18.6381 43.9182 18.3681V13.1381C43.9182 12.5881 43.4682 12.1381 42.9182 12.1381H37.6882C37.4182 12.1381 37.1682 12.0281 36.9782 11.8481L33.2782 8.14809C32.8882 7.75809 32.2582 7.75809 31.8582 8.14809L28.1582 11.8481C27.9682 12.0381 27.7182 12.1381 27.4482 12.1381H22.2182C21.6682 12.1381 21.2182 12.5881 21.2182 13.1381V18.3681C21.2182 18.6381 21.1082 18.8881 20.9282 19.0781L17.2282 22.7781C16.8382 23.1681 16.8382 23.7981 17.2282 24.1981L20.9282 27.8981C21.1182 28.0881 21.2182 28.3381 21.2182 28.6081V33.8381C21.2182 34.3881 21.6682 34.8381 22.2182 34.8381H27.4482C27.7182 34.8381 27.9682 34.9481 28.1582 35.1281L31.8582 38.8281C32.2482 39.2181 32.8782 39.2181 33.2782 38.8281L36.9782 35.1281C37.1682 34.9381 37.4182 34.8381 37.6882 34.8381H42.9182C43.4682 34.8381 43.9182 34.3881 43.9182 33.8381V28.6081C43.9182 28.3381 44.0282 28.0881 44.2082 27.8981L47.9082 24.1981C48.2982 23.8081 48.2982 23.1781 47.9082 22.7781ZM32.5582 30.0881C28.9082 30.0881 25.9482 27.1281 25.9482 23.4781C25.9482 19.8281 28.9082 16.8681 32.5582 16.8681C36.2082 16.8681 39.1682 19.8281 39.1682 23.4781C39.1682 27.1281 36.2082 30.0881 32.5582 30.0881Z" fill="black"/>
</svg>
