<svg width="65" height="65" viewBox="0 0 65 65" fill="none" xmlns="http://www.w3.org/2000/svg">
<path d="M50.05 18.5138C41.55 10.8838 28.43 11.6038 20.8 20.1038L20.79 20.1137C20.46 20.4837 19.8499 20.3138 19.7699 19.8238L18.61 12.7338C18.39 11.3738 17.11 10.4437 15.74 10.6737C14.38 10.8937 13.45 12.1838 13.68 13.5438L15.94 27.3838C16.14 28.5738 17.16 29.4638 18.37 29.4838L32.3899 29.7037C32.3999 29.7037 32.42 29.7037 32.43 29.7037C33.79 29.7037 34.91 28.6138 34.93 27.2437C34.95 25.8637 33.85 24.7237 32.47 24.7037L24.81 24.5837C24.31 24.5737 24.05 23.9937 24.38 23.6137C24.43 23.5537 24.4799 23.4938 24.5299 23.4438C30.3199 16.9938 40.27 16.4537 46.71 22.2437C53.16 28.0238 53.6999 37.9737 47.9099 44.4237C45.1199 47.5337 41.2999 49.3737 37.1399 49.6137C35.8399 49.6937 34.76 50.7138 34.71 52.0038C34.65 53.4538 35.81 54.6137 37.21 54.6137C37.25 54.6137 37.3 54.6137 37.35 54.6137C42.87 54.3137 47.9499 51.8838 51.6399 47.7638C59.2599 39.2638 58.55 26.1438 50.05 18.5138Z" fill="black"/>
<path d="M13.35 35.3038H6.50989C6.27989 35.3038 6.07996 35.4838 6.07996 35.7038V38.4838C6.07996 38.7138 6.27989 38.8838 6.50989 38.8838H9.50989V52.5638C9.50989 52.7938 9.68991 52.9638 9.90991 52.9638H13.34C13.57 52.9638 13.74 52.7838 13.74 52.5638V35.7038C13.75 35.4738 13.57 35.3038 13.35 35.3038Z" fill="black"/>
<path d="M24.1 35.1038C20.54 35.1038 16.7599 37.6237 16.7599 44.2137C16.7599 50.8237 20.54 53.2938 24.1 53.2938C27.71 53.2938 31.4399 50.8237 31.4399 44.2137C31.4399 37.6237 27.7 35.1038 24.1 35.1038ZM24.1 49.3838C21.7 49.3838 20.87 47.0337 20.87 44.2137C20.87 41.4137 21.7 39.0138 24.1 39.0138C26.52 39.0138 27.35 41.4137 27.35 44.2137C27.35 47.0337 26.52 49.3838 24.1 49.3838Z" fill="black"/>
</svg>
