<svg width="64" height="65" viewBox="0 0 64 65" fill="none" xmlns="http://www.w3.org/2000/svg">
<path d="M39.2799 55.7342L33.7998 47.7842C32.9298 46.5242 31.0699 46.5242 30.2099 47.7842L24.7299 55.7342C23.5499 57.4442 20.8699 56.6942 20.7499 54.6142C19.8899 39.9842 19.9498 25.3042 20.9398 10.6842L20.9599 10.3742C21.0399 9.35421 21.7998 8.53416 22.8098 8.38416C28.8998 7.47416 35.0998 7.47416 41.1898 8.38416C42.1998 8.53416 42.9699 9.36421 43.0399 10.3742L43.0598 10.6842C44.0498 25.3042 44.1099 39.9842 43.2499 54.6142C43.1399 56.6942 40.4599 57.4542 39.2799 55.7342Z" fill="black"/>
</svg>
