<svg width="64" height="65" viewBox="0 0 64 65" fill="none" xmlns="http://www.w3.org/2000/svg">
<path d="M49.8998 11.7336C49.8498 10.9736 49.63 10.2736 49.28 9.64362C49.06 9.24362 48.7999 8.86363 48.4899 8.53363C48.2899 8.32363 48.0598 8.13362 47.8298 7.96362C47.1198 7.45362 46.2598 7.12364 45.3398 7.04364C40.9098 6.66364 36.4699 6.47363 32.0199 6.47363C27.5799 6.47363 23.1299 6.66364 18.6999 7.04364C17.7699 7.12364 16.9199 7.45362 16.2099 7.96362C15.0199 8.81362 14.2298 10.1736 14.1398 11.7236C14.0398 13.3636 13.9598 15.0036 13.8798 16.6436C13.4398 26.4836 13.4398 36.3336 13.8798 46.1736C13.9498 47.8136 14.0398 49.4536 14.1398 51.0936C14.1698 51.6036 14.2899 52.0936 14.4699 52.5536C14.6599 53.0536 14.9199 53.5036 15.2499 53.9136C15.5299 54.2636 15.8499 54.5936 16.2199 54.8536C16.9299 55.3636 17.7899 55.6936 18.7099 55.7736C23.1399 56.1536 27.58 56.3436 32.03 56.3436C36.47 56.3436 40.9198 56.1536 45.3498 55.7736C46.2798 55.6936 47.1298 55.3636 47.8398 54.8536C48.0798 54.6836 48.2999 54.4936 48.4999 54.2836C49.3099 53.4536 49.8398 52.3336 49.9098 51.0936C50.6898 37.9936 50.6898 24.8536 49.8998 11.7336ZM31.5199 12.5036V33.0436C31.5199 33.5036 30.9598 33.7236 30.6498 33.3736L26.5697 28.8436C25.7797 27.9636 24.3898 27.9636 23.5998 28.8436L19.5697 33.3136C19.2597 33.6636 18.6799 33.4236 18.6999 32.9536L19.5497 12.8836C19.5697 12.3736 19.9699 11.9636 20.4799 11.9236C23.8099 11.6736 27.1799 11.5236 30.5199 11.4936C31.0699 11.4936 31.5199 11.9536 31.5199 12.5036Z" fill="black"/>
</svg>
