<svg width="64" height="65" viewBox="0 0 64 65" fill="none" xmlns="http://www.w3.org/2000/svg">
<path d="M55.9602 11.1435C57.9302 22.2535 58.0202 33.6235 56.2102 44.7735C55.9602 46.3335 54.5002 47.3934 52.9402 47.1734L52.7102 47.1435C45.8802 46.1535 39.17 49.2735 35.49 55.0035L35.4802 55.0135C35.1502 55.5335 34.3401 55.3034 34.3401 54.6834V37.7535V19.1935C34.3401 18.7135 34.4702 18.2435 34.7102 17.8335C38.5302 11.2935 46.01 7.74347 53.54 8.96347L54.1101 9.05344C55.0701 9.34344 55.7802 10.1535 55.9602 11.1435Z" fill="black"/>
<path d="M8.55001 11.1435C6.58001 22.2535 6.49001 33.6235 8.30001 44.7735C8.55001 46.3335 10.01 47.3934 11.57 47.1734L11.8 47.1435C18.6 46.1635 25.2902 49.2434 28.9802 54.9334C28.9902 54.9534 29.01 54.9835 29.03 55.0035C29.36 55.5335 30.1701 55.2934 30.1701 54.6734V37.7535V19.1935C30.1701 18.7135 30.04 18.2435 29.8 17.8335C25.98 11.2935 18.5002 7.74347 10.9702 8.96347L10.4001 9.05344C9.4401 9.34344 8.73001 10.1535 8.55001 11.1435Z" fill="black"/>
</svg>
