<svg width="64" height="64" viewBox="0 0 64 64" fill="none" xmlns="http://www.w3.org/2000/svg">
<path d="M32.0001 13C36.6001 13 41.2401 13.31 45.7901 13.94C48.0101 14.24 49.7601 16 50.0701 18.22C51.3201 27.37 51.3201 36.65 50.0701 45.8C49.7701 48.02 48.0101 49.77 45.7901 50.08C41.2401 50.7 36.6001 51.02 32.0001 51.02C27.4001 51.02 22.7603 50.71 18.2103 50.08C15.9903 49.78 14.2403 48.02 13.9303 45.8C12.6803 36.65 12.6803 27.37 13.9303 18.22C14.2303 16 15.9903 14.25 18.2103 13.94C22.7703 13.31 27.4101 13 32.0001 13ZM32.0001 8C27.1701 8 22.3301 8.33 17.5401 8.98C13.0901 9.59 9.59031 13.09 8.99031 17.53C7.68031 27.13 7.68031 36.86 8.99031 46.46C9.60031 50.91 13.1001 54.41 17.5401 55.01C22.3401 55.66 27.1701 55.99 32.0001 55.99C36.8301 55.99 41.6703 55.66 46.4603 55.01C50.9103 54.4 54.4101 50.9 55.0101 46.46C56.3201 36.86 56.3201 27.13 55.0101 17.53C54.4001 13.08 50.9103 9.58 46.4603 8.98C41.6703 8.32 36.8401 8 32.0001 8Z" fill="black"/>
</svg>
