<svg width="64" height="64" viewBox="0 0 64 64" fill="none" xmlns="http://www.w3.org/2000/svg">
<path d="M41.9924 31.9889C41.9924 37.5089 37.5124 41.9889 31.9924 41.9889C26.4724 41.9889 21.9924 37.5089 21.9924 31.9889C21.9924 26.4689 26.4724 21.9889 31.9924 21.9889C37.5124 21.9889 41.9924 26.4689 41.9924 31.9889ZM34.4924 15.6689V12.9889C34.4924 11.6089 33.3724 10.4889 31.9924 10.4889C30.6124 10.4889 29.4924 11.6089 29.4924 12.9889V15.6689C29.4924 17.0489 30.6124 18.1689 31.9924 18.1689C33.3724 18.1689 34.4924 17.0489 34.4924 15.6689ZM34.4924 50.9889V48.3089C34.4924 46.9289 33.3724 45.8089 31.9924 45.8089C30.6124 45.8089 29.4924 46.9289 29.4924 48.3089V50.9889C29.4924 52.3689 30.6124 53.4889 31.9924 53.4889C33.3724 53.4889 34.4924 52.3689 34.4924 50.9889ZM53.4924 31.9889C53.4924 30.6089 52.3724 29.4889 50.9924 29.4889H48.3124C46.9324 29.4889 45.8124 30.6089 45.8124 31.9889C45.8124 33.3689 46.9324 34.4889 48.3124 34.4889H50.9924C52.3724 34.4889 53.4924 33.3689 53.4924 31.9889ZM18.1724 31.9889C18.1724 30.6089 17.0524 29.4889 15.6724 29.4889H12.9924C11.6124 29.4889 10.4924 30.6089 10.4924 31.9889C10.4924 33.3689 11.6124 34.4889 12.9924 34.4889H15.6724C17.0524 34.4889 18.1724 33.3689 18.1724 31.9889ZM45.3024 22.2189L47.1924 20.3189C48.1724 19.3389 48.1724 17.7589 47.1924 16.7789C46.2124 15.8089 44.6324 15.7989 43.6524 16.7789L41.7624 18.6789C40.7824 19.6589 40.7824 21.2389 41.7624 22.2189C42.2524 22.7089 42.8924 22.9489 43.5324 22.9489C44.1724 22.9489 44.8124 22.7089 45.3024 22.2189ZM20.3224 47.1989L22.2224 45.3089C23.2024 44.3289 23.2024 42.7489 22.2224 41.7689C21.2424 40.7889 19.6624 40.7889 18.6824 41.7689L16.7824 43.6589C15.8024 44.6389 15.8024 46.2189 16.7824 47.1989C17.2724 47.6889 17.9124 47.9289 18.5524 47.9289C19.1924 47.9289 19.8324 47.6889 20.3224 47.1989ZM47.1924 47.1989C48.1724 46.2189 48.1724 44.6389 47.1924 43.6589L45.3024 41.7689C44.3224 40.7889 42.7424 40.7889 41.7624 41.7689C40.7824 42.7489 40.7824 44.3289 41.7624 45.3089L43.6524 47.1989C44.1424 47.6889 44.7824 47.9289 45.4224 47.9289C46.0624 47.9289 46.7024 47.6889 47.1924 47.1989ZM22.2224 22.2189C23.2024 21.2389 23.2024 19.6589 22.2224 18.6789L20.3224 16.7789C19.3424 15.7989 17.7624 15.7989 16.7824 16.7789C15.8024 17.7589 15.8024 19.3389 16.7824 20.3189L18.6824 22.2189C19.1724 22.7089 19.8124 22.9489 20.4524 22.9489C21.0924 22.9489 21.7324 22.7089 22.2224 22.2189Z" fill="black"/>
</svg>
