<svg width="64" height="64" viewBox="0 0 64 64" fill="none" xmlns="http://www.w3.org/2000/svg">
<path d="M42.14 32C42.14 37.52 37.66 42 32.14 42C26.62 42 22.14 37.52 22.14 32C22.14 26.48 26.62 22 32.14 22C37.66 22 42.14 26.48 42.14 32ZM59.64 32C59.64 30.62 58.52 29.5 57.14 29.5H48.46C47.08 29.5 45.96 30.62 45.96 32C45.96 33.38 47.08 34.5 48.46 34.5H57.14C58.52 34.5 59.64 33.38 59.64 32ZM18.32 32C18.32 30.62 17.2 29.5 15.82 29.5H7.14001C5.76001 29.5 4.64001 30.62 4.64001 32C4.64001 33.38 5.76001 34.5 7.14001 34.5H15.82C17.2 34.5 18.32 33.38 18.32 32ZM34.64 15.68V7C34.64 5.62 33.52 4.5 32.14 4.5C30.76 4.5 29.64 5.62 29.64 7V15.68C29.64 17.06 30.76 18.18 32.14 18.18C33.52 18.18 34.64 17.06 34.64 15.68ZM34.64 57V48.32C34.64 46.94 33.52 45.82 32.14 45.82C30.76 45.82 29.64 46.94 29.64 48.32V57C29.64 58.38 30.76 59.5 32.14 59.5C33.52 59.5 34.64 58.38 34.64 57ZM51.59 51.45C52.57 50.47 52.57 48.89 51.59 47.91L45.45 41.77C44.47 40.79 42.89 40.79 41.91 41.77C40.93 42.75 40.93 44.33 41.91 45.31L48.05 51.45C48.54 51.94 49.18 52.18 49.82 52.18C50.46 52.18 51.1 51.94 51.59 51.45ZM22.37 22.23C23.35 21.25 23.35 19.67 22.37 18.69L16.23 12.55C15.25 11.57 13.67 11.57 12.69 12.55C11.71 13.53 11.71 15.11 12.69 16.09L18.83 22.23C19.32 22.72 19.96 22.96 20.6 22.96C21.24 22.96 21.88 22.72 22.37 22.23ZM45.45 22.23L51.59 16.09C52.57 15.11 52.57 13.53 51.59 12.55C50.61 11.57 49.03 11.57 48.05 12.55L41.91 18.69C40.93 19.67 40.93 21.25 41.91 22.23C42.4 22.72 43.04 22.96 43.68 22.96C44.32 22.96 44.96 22.72 45.45 22.23ZM16.23 51.45L22.37 45.31C23.35 44.33 23.35 42.75 22.37 41.77C21.39 40.79 19.81 40.79 18.83 41.77L12.69 47.91C11.71 48.89 11.71 50.47 12.69 51.45C13.18 51.94 13.82 52.18 14.46 52.18C15.1 52.18 15.74 51.94 16.23 51.45Z" fill="black"/>
</svg>
