<svg width="65" height="64" viewBox="0 0 65 64" fill="none" xmlns="http://www.w3.org/2000/svg">
<path d="M51.9027 16.07L48.9227 15.69C48.3727 15.62 47.8728 16.01 47.8028 16.56L47.6227 18.01C47.3527 20.17 46.3727 22.24 44.8527 24.01C44.6027 24.3 44.1227 24.19 44.0127 23.81C43.3127 21.45 42.4827 19.12 41.5127 16.82C41.3927 16.53 41.4128 16.2 41.5828 15.93C42.0528 15.17 42.4128 14.21 42.1727 13.26C41.3327 9.99003 37.4827 9.61003 33.8727 10.01H33.8128C33.3128 10.04 32.8028 10.09 32.3028 10.14C31.9928 10.17 31.7227 9.92 31.7427 9.61C31.7727 9.14 31.8227 8.69005 31.8827 8.28005C32.0427 7.07005 30.2727 6.41005 29.2727 7.28005C28.7727 7.72005 28.3627 8.12003 28.0127 8.51003C27.7027 7.79003 27.4328 7.09002 27.2128 6.44002C26.6928 4.93002 24.1727 4.87005 23.4927 6.34005C22.2127 9.09005 22.0327 10.94 22.0427 11.82C22.0527 12.2 21.8327 12.54 21.4827 12.71C20.2527 13.3 17.4628 14.67 15.9528 15.61C14.3728 16.58 13.5427 18.1101 13.5427 19.6601C13.5427 19.6701 13.5327 19.67 13.5327 19.68L13.5027 19.63C13.5027 19.66 13.5027 19.6901 13.5027 19.72C12.4727 21.17 11.2627 22.37 10.2527 23.24C9.54271 23.86 10.1828 24.88 11.1928 24.76C11.9628 24.67 12.5827 24.55 13.1027 24.42C12.8627 25.44 12.5527 26.3801 12.2427 27.1601C11.8827 28.0601 13.1027 28.8201 14.0427 28.2901C15.0327 27.7301 15.7228 27.22 16.2128 26.8C16.6728 26.4 17.3928 26.5 17.7028 27.03C18.0928 27.68 18.4527 28.34 18.7927 29.01C19.0127 29.44 18.8827 29.97 18.4927 30.27C15.9327 32.27 14.0627 34.87 13.1527 37.78C12.9727 38.35 13.3127 38.94 13.8827 39.07L16.8228 39.7301C17.3128 39.8401 17.8227 39.5801 17.9727 39.1001C18.4627 37.6301 19.3427 36.2701 20.5327 35.1001C20.7927 34.8401 21.2527 34.97 21.3627 35.32C22.2627 38.32 22.7728 41.4 22.8328 44.52C22.7328 46.4 20.8927 47.87 18.6527 47.87C17.9327 47.87 17.3827 48.4 17.4727 49L18.1327 53.27C18.2127 53.77 18.7128 54.14 19.3128 54.14H19.3328C24.0528 54.14 28.3828 51.9301 30.5628 48.4101C30.7628 48.0801 31.1727 47.87 31.6127 47.87H34.8028C35.1928 47.87 35.5627 48.03 35.7827 48.3L35.9027 48.45C38.1227 51.17 39.2628 54.41 39.1728 57.71C39.1628 58.27 39.6927 58.7301 40.3627 58.7301H44.6727C45.3027 58.7301 45.8227 58.32 45.8627 57.78L46.5927 46.6001C46.9327 41.4701 46.6427 36.33 45.7627 31.27C45.6427 30.58 45.8727 29.87 46.4127 29.42C49.8427 26.57 52.0628 22.73 52.5828 18.62L52.7627 17.18C52.8427 16.64 52.4527 16.14 51.9027 16.07ZM35.3228 30.36L35.2727 30.33L35.2527 30.38C31.3527 31.74 27.9628 29.78 27.4528 28.01C26.9428 26.25 28.7027 25.62 30.0327 25.74C32.3127 25.94 34.4628 25.13 35.9528 23.95C36.9328 23.18 38.7227 22.69 39.6327 24.33C40.5527 25.98 39.3628 29.33 35.3228 30.36Z" fill="black"/>
</svg>
