<svg width="65" height="64" viewBox="0 0 65 64" fill="none" xmlns="http://www.w3.org/2000/svg">
<path d="M38.3026 37.5003L30.2027 30.7002C29.7627 30.3302 29.7226 29.6703 30.1126 29.2503L49.9728 7.91024C50.7228 7.10024 51.7026 6.52024 52.7926 6.35024C55.7026 5.92024 58.2726 8.07028 58.3526 11.0103C58.3826 12.1103 57.9726 13.1803 57.3126 14.0603L39.7528 37.3203C39.4028 37.7903 38.7426 37.8603 38.3026 37.5003ZM28.1227 32.8603C27.5427 32.3803 26.8226 32.0903 26.0726 32.0703C24.4926 32.0203 21.7728 32.3902 19.7328 35.0302C16.0928 39.7402 17.7827 44.2102 14.1427 46.7702C11.1127 48.9002 7.98271 47.4503 6.43271 46.4403C6.05271 46.1903 5.5627 46.5302 5.6727 46.9702C5.9827 48.2402 6.6526 50.2603 8.0626 52.0703C11.5626 56.5703 20.9626 60.6002 29.5926 54.8502C35.3526 51.0202 36.8227 45.3602 37.1927 42.4502C37.3327 41.3202 36.8828 40.2002 36.0028 39.4702L28.1227 32.8603Z" fill="black"/>
</svg>
