<svg width="64" height="64" viewBox="0 0 64 64" fill="none" xmlns="http://www.w3.org/2000/svg">
<path d="M55.0199 17.5402C54.4099 13.0902 50.9098 9.59019 46.4698 8.99019C36.8698 7.68019 27.1399 7.68019 17.5399 8.99019C13.0899 9.60019 9.58982 13.1002 8.98982 17.5402C7.67982 27.1402 7.67982 36.8702 8.98982 46.4702C9.59982 50.9202 13.0999 54.4202 17.5399 55.0202C27.1399 56.3302 36.8698 56.3302 46.4698 55.0202C50.9198 54.4102 54.4199 50.9102 55.0199 46.4702C56.3299 36.8702 56.3299 27.1402 55.0199 17.5402ZM28.4399 47.5202C29.1899 48.3902 29.1598 49.7902 28.2598 50.5002C27.8998 50.7902 27.4599 50.9302 27.0199 50.9302C26.4599 50.9302 25.8998 50.7002 25.5098 50.2402L22.6098 46.8802C22.2098 46.4202 21.4998 46.4202 21.0998 46.8802L18.1999 50.2402C17.7999 50.7002 17.2499 50.9302 16.6899 50.9302C16.2599 50.9302 15.8199 50.7902 15.4499 50.5002C14.5499 49.7902 14.5099 48.3902 15.2699 47.5202L18.6599 43.5902C18.9799 43.2102 18.9799 42.6602 18.6599 42.2802L15.2498 38.3302C14.5998 37.5802 14.5099 36.4302 15.1499 35.6702C15.9599 34.7002 17.4099 34.7202 18.2099 35.6402L21.1098 39.0002C21.5098 39.4602 22.2198 39.4602 22.6198 39.0002L25.4499 35.7202C26.0999 34.9702 27.2199 34.7102 28.0699 35.2302C29.1499 35.9002 29.3399 37.3302 28.5499 38.2502L25.0699 42.2802C24.7499 42.6602 24.7499 43.2102 25.0699 43.5902L28.4399 47.5202ZM28.4199 23.8702H24.8598C24.3098 23.8702 23.8598 24.3202 23.8598 24.8702V29.0102C23.8598 30.0102 23.1799 30.9302 22.1999 31.0902C20.9499 31.2902 19.8598 30.3302 19.8598 29.1202V24.8702C19.8598 24.3202 19.4098 23.8702 18.8598 23.8702H15.2699C14.2699 23.8702 13.3499 23.1902 13.1899 22.2102C12.9899 20.9602 13.9499 19.8702 15.1599 19.8702H18.8598C19.4098 19.8702 19.8598 19.4202 19.8598 18.8702V14.7602C19.8598 13.7602 20.5399 12.8402 21.5199 12.6802C22.7699 12.4802 23.8598 13.4402 23.8598 14.6502V18.8602C23.8598 19.4102 24.3098 19.8602 24.8598 19.8602H28.5299C29.7399 19.8602 30.7098 20.9402 30.4998 22.2002C30.3398 23.1902 29.4099 23.8702 28.4199 23.8702ZM47.3099 49.1902H38.7298C37.6298 49.1902 36.7298 48.2902 36.7298 47.1902C36.7298 46.0902 37.6298 45.1902 38.7298 45.1902H47.3099C48.4099 45.1902 49.3099 46.0902 49.3099 47.1902C49.3099 48.2902 48.4199 49.1902 47.3099 49.1902ZM47.3099 40.9702H38.7298C37.6298 40.9702 36.7298 40.0702 36.7298 38.9702C36.7298 37.8702 37.6298 36.9702 38.7298 36.9702H47.3099C48.4099 36.9702 49.3099 37.8702 49.3099 38.9702C49.3099 40.0702 48.4199 40.9702 47.3099 40.9702ZM48.7099 23.8702H37.3398C36.2398 23.8702 35.3398 22.9702 35.3398 21.8702C35.3398 20.7702 36.2398 19.8702 37.3398 19.8702H48.7099C49.8099 19.8702 50.7099 20.7702 50.7099 21.8702C50.7099 22.9702 49.8099 23.8702 48.7099 23.8702Z" fill="black"/>
</svg>
