<svg width="64" height="64" viewBox="0 0 64 64" fill="none" xmlns="http://www.w3.org/2000/svg">
<path d="M55.0199 17.77C54.4099 13.32 50.9098 9.82 46.4698 9.22C41.6698 8.57 36.8398 8.23999 32.0098 8.23999C27.1798 8.23999 22.3399 8.57 17.5499 9.22C13.0999 9.83 9.59983 13.33 8.99983 17.77C7.68983 27.37 7.68983 37.1 8.99983 46.7C9.60983 51.15 13.1099 54.65 17.5499 55.25C22.3499 55.9 27.1798 56.23 32.0098 56.23C36.8398 56.23 41.6798 55.9 46.4698 55.25C50.9198 54.64 54.4199 51.14 55.0199 46.7C56.3299 37.1 56.3299 27.37 55.0199 17.77ZM50.0699 46.02C49.7699 48.24 48.0099 49.99 45.7899 50.3C41.2399 50.92 36.5998 51.24 31.9998 51.24C27.3998 51.24 22.7699 50.93 18.2099 50.3C15.9899 50 14.2399 48.24 13.9299 46.02C12.6799 36.87 12.6799 27.59 13.9299 18.44C14.2299 16.22 15.9899 14.47 18.2099 14.16C22.7599 13.54 27.3998 13.22 31.9998 13.22C36.5998 13.22 41.2399 13.53 45.7899 14.16C48.0099 14.46 49.7599 16.22 50.0699 18.44C51.3199 27.59 51.3199 36.87 50.0699 46.02Z" fill="black"/>
<path d="M28.8901 34.59C28.0401 34.07 26.9201 34.32 26.2701 35.08L24.3101 37.35C23.9101 37.81 23.2001 37.81 22.8001 37.35L20.84 35.08C20.19 34.33 19.07 34.07 18.22 34.59C17.14 35.26 16.95 36.69 17.74 37.61L20.34 40.62C20.66 41 20.66 41.55 20.34 41.93L17.8301 44.84C17.0801 45.71 17.1101 47.11 18.0101 47.82C18.3701 48.11 18.8101 48.25 19.2501 48.25C19.8101 48.25 20.3701 48.02 20.7601 47.56L22.7901 45.21C23.1901 44.75 23.9001 44.75 24.3001 45.21L26.3301 47.56C26.7301 48.02 27.28 48.25 27.84 48.25C28.28 48.25 28.7101 48.11 29.0801 47.82C29.9801 47.11 30.0101 45.71 29.2601 44.84L26.7501 41.93C26.4301 41.55 26.4301 41 26.7501 40.62L29.35 37.61C30.16 36.69 29.9701 35.25 28.8901 34.59Z" fill="black"/>
<path d="M28.9999 21.78H26.5699C26.0199 21.78 25.5699 21.33 25.5699 20.78V17.9C25.5699 16.9 24.8899 15.98 23.9099 15.82C22.6599 15.62 21.5699 16.58 21.5699 17.79V20.78C21.5699 21.33 21.1199 21.78 20.5699 21.78H18.1099C17.1099 21.78 16.1899 22.46 16.0299 23.44C15.8299 24.69 16.7899 25.78 17.9999 25.78H20.5599C21.1099 25.78 21.5599 26.23 21.5599 26.78V29.69C21.5599 30.69 22.2398 31.61 23.2198 31.77C24.4698 31.97 25.5599 31.01 25.5599 29.8V26.78C25.5599 26.23 26.0099 25.78 26.5599 25.78H29.0998C30.3098 25.78 31.2799 24.7 31.0699 23.44C30.9099 22.46 29.9899 21.78 28.9999 21.78Z" fill="black"/>
<path d="M45.8599 21.78H36.4199C35.3199 21.78 34.4199 22.68 34.4199 23.78C34.4199 24.88 35.3199 25.78 36.4199 25.78H45.8599C46.9599 25.78 47.8599 24.88 47.8599 23.78C47.8599 22.68 46.9599 21.78 45.8599 21.78Z" fill="black"/>
<path d="M44.7001 35.98H37.5801C36.4801 35.98 35.5801 36.88 35.5801 37.98C35.5801 39.08 36.4801 39.98 37.5801 39.98H44.7001C45.8001 39.98 46.7001 39.08 46.7001 37.98C46.7001 36.88 45.8101 35.98 44.7001 35.98Z" fill="black"/>
<path d="M44.7001 42.8H37.5801C36.4801 42.8 35.5801 43.7 35.5801 44.8C35.5801 45.9 36.4801 46.8 37.5801 46.8H44.7001C45.8001 46.8 46.7001 45.9 46.7001 44.8C46.7001 43.7 45.8101 42.8 44.7001 42.8Z" fill="black"/>
</svg>
