<svg width="64" height="65" viewBox="0 0 64 65" fill="none" xmlns="http://www.w3.org/2000/svg">
<path d="M55.0201 20.3936C54.4701 16.3436 51.52 13.0936 47.64 12.0836C47.18 11.9636 46.8499 11.5736 46.8499 11.1036V7.79356C46.8499 6.48356 45.9099 5.29355 44.6099 5.16355C43.1099 5.01355 41.8499 6.18354 41.8499 7.65354V10.2436C41.8499 10.8236 41.3501 11.2836 40.7701 11.2336C37.8501 10.9936 34.9301 10.8636 32.0001 10.8636C29.0901 10.8636 26.1701 10.9936 23.2601 11.2336C22.6801 11.2836 22.18 10.8236 22.18 10.2436V7.80357C22.18 6.49357 21.24 5.30356 19.94 5.17356C18.44 5.02356 17.18 6.19355 17.18 7.66355V11.1036C17.18 11.5736 16.85 11.9636 16.39 12.0836C12.5 13.0836 9.53006 16.3435 8.98006 20.4035C7.67006 30.0035 7.67006 39.7336 8.98006 49.3336C9.59006 53.7736 13.1199 57.2836 17.5599 57.8936C22.3499 58.5436 27.1701 58.8735 32.0001 58.8735C36.8201 58.8735 41.65 58.5436 46.44 57.8936C50.88 57.2936 54.4201 53.7836 55.0201 49.3336C56.3301 39.7236 56.3301 29.9936 55.0201 20.3936ZM34.5001 52.7835V49.6836C34.5001 49.1336 34.9501 48.6936 35.4901 48.6836C36.8901 48.6636 38.2 48.6436 39.43 48.6036C40.01 48.5836 40.48 49.0735 40.46 49.6535C40.41 50.8735 40.3599 51.8736 40.3099 52.6436C40.2799 53.1436 39.88 53.5436 39.38 53.5836C38.1 53.6736 36.8101 53.7436 35.5301 53.7936C34.9701 53.8036 34.5001 53.3435 34.5001 52.7835ZM14.14 28.1936C15.2 28.1436 16.2699 28.1036 17.3399 28.0736C17.9099 28.0536 18.38 28.5136 18.38 29.0736V32.3236C18.38 32.8736 17.93 33.3236 17.38 33.3236H14.0599C13.4999 33.3236 13.0399 32.8636 13.0499 32.2936C13.0699 31.2436 13.11 30.1936 13.17 29.1436C13.19 28.6336 13.62 28.2136 14.14 28.1936ZM29.5001 28.8435V32.3236C29.5001 32.8736 29.0501 33.3236 28.5001 33.3236H24.37C23.82 33.3236 23.37 32.8736 23.37 32.3236V28.8936C23.37 28.3436 23.8099 27.9036 24.3499 27.8936C25.7299 27.8736 27.1101 27.8535 28.4901 27.8435C29.0501 27.8335 29.5001 28.2835 29.5001 28.8435ZM35.5101 27.8435C36.8901 27.8535 38.27 27.8735 39.65 27.9035C40.2 27.9135 40.63 28.3635 40.63 28.9035V32.3135C40.63 32.8635 40.18 33.3135 39.63 33.3135H35.5001C34.9501 33.3135 34.5001 32.8635 34.5001 32.3135V28.8435C34.5001 28.2935 34.9501 27.8435 35.5101 27.8435ZM46.67 28.1036C47.74 28.1436 48.8099 28.1836 49.8699 28.2336C50.3899 28.2536 50.8099 28.6736 50.8399 29.1836C50.8999 30.2236 50.93 31.2536 50.96 32.2936C50.97 32.8536 50.52 33.3236 49.95 33.3236H46.63C46.08 33.3236 45.63 32.8736 45.63 32.3236V29.1136C45.63 28.5436 46.1 28.0836 46.67 28.1036ZM14.1099 38.3236H17.37C17.92 38.3236 18.37 38.7736 18.37 39.3236V40.4936C18.37 41.1236 18.37 41.7236 18.38 42.3036C18.38 42.8836 17.8899 43.3436 17.3199 43.3036C16.1199 43.2336 15.08 43.1635 14.2 43.0935C13.71 43.0535 13.3201 42.6636 13.2801 42.1636C13.2101 41.2336 13.1499 40.3036 13.1099 39.3636C13.0799 38.8036 13.5399 38.3236 14.1099 38.3236ZM23.37 40.4936V39.3236C23.37 38.7736 23.82 38.3236 24.37 38.3236H28.5001C29.0501 38.3236 29.5001 38.7736 29.5001 39.3236V42.6836C29.5001 43.2436 29.0401 43.6936 28.4901 43.6836C27.0201 43.6636 25.6399 43.6436 24.3499 43.6036C23.8099 43.5936 23.39 43.1536 23.38 42.6136C23.37 41.9436 23.37 41.2336 23.37 40.4936ZM29.5001 49.6836V52.7835C29.5001 53.3535 29.03 53.8035 28.47 53.7835C27.18 53.7335 25.8999 53.6636 24.6099 53.5736C24.1099 53.5336 23.72 53.1336 23.68 52.6336C23.63 51.8636 23.5801 50.8835 23.5301 49.6535C23.5101 49.0735 23.9699 48.5936 24.5499 48.6036C25.7899 48.6336 27.1001 48.6636 28.5001 48.6736C29.0501 48.6836 29.5001 49.1336 29.5001 49.6836ZM34.5001 42.6736V39.3236C34.5001 38.7736 34.9501 38.3236 35.5001 38.3236H39.63C40.18 38.3236 40.63 38.7736 40.63 39.3236V40.4936C40.63 41.2336 40.6299 41.9336 40.6199 42.6036C40.6199 43.1436 40.19 43.5835 39.65 43.5935C38.36 43.6335 36.9901 43.6536 35.5101 43.6736C34.9601 43.6836 34.5001 43.2336 34.5001 42.6736ZM45.63 40.4936V39.3236C45.63 38.7736 46.08 38.3236 46.63 38.3236H49.89C50.46 38.3236 50.92 38.8035 50.9 39.3735C50.86 40.2935 50.8001 41.2236 50.7301 42.1436C50.6901 42.6336 50.3099 43.0236 49.8199 43.0736C48.9499 43.1436 47.9 43.2236 46.69 43.2936C46.11 43.3336 45.62 42.8736 45.63 42.2936C45.63 41.7136 45.63 41.1236 45.63 40.4936ZM13.95 48.7235C13.9 48.4035 14.1501 48.1136 14.4801 48.1336C15.3801 48.2036 16.3999 48.2736 17.5599 48.3336C18.0799 48.3636 18.4901 48.7836 18.5101 49.3036C18.5501 50.5036 18.65 51.4935 18.65 52.3135C18.65 52.5435 18.5201 52.9736 18.0201 52.8936C15.9201 52.5336 14.27 50.8435 13.95 48.7235ZM45.97 52.8735C45.47 52.9635 45.3399 52.5336 45.3399 52.2936C45.3399 51.4736 45.4401 50.4735 45.4801 49.2835C45.5001 48.7635 45.91 48.3435 46.43 48.3135C47.59 48.2435 48.6201 48.1836 49.5101 48.1136C49.8401 48.0936 50.0899 48.3836 50.0399 48.7036C49.7199 50.8236 48.07 52.5135 45.97 52.8735Z" fill="black"/>
</svg>
