<svg width="64" height="65" viewBox="0 0 64 65" fill="none" xmlns="http://www.w3.org/2000/svg">
<path d="M55.15 20.3536C54.6 16.3036 51.6501 13.0536 47.7701 12.0436C47.3201 11.9236 46.9801 11.5336 46.9801 11.0636V7.75355C46.9801 6.44355 46.0401 5.25357 44.7401 5.12357C43.2401 4.97357 41.9801 6.14356 41.9801 7.61356V10.2036C41.9801 10.7836 41.48 11.2436 40.9 11.1936C37.98 10.9536 35.06 10.8236 32.13 10.8236C29.22 10.8236 26.3 10.9536 23.39 11.1936C22.81 11.2436 22.3101 10.7836 22.3101 10.2036V7.76356C22.3101 6.45356 21.3701 5.26355 20.0701 5.13355C18.5701 4.98355 17.3101 6.15357 17.3101 7.62357V11.0636C17.3101 11.5336 16.9801 11.9236 16.5201 12.0436C12.6301 13.0436 9.65994 16.3036 9.10994 20.3636C7.79994 29.9636 7.79994 39.6936 9.10994 49.2936C9.39994 51.4036 10.33 53.2936 11.71 54.7736C13.24 56.4136 15.32 57.5336 17.66 57.8536C22.46 58.5036 27.29 58.8336 32.12 58.8336C36.95 58.8336 41.7902 58.5036 46.5802 57.8536C48.8002 57.5536 50.7901 56.5236 52.3001 55.0136C53.8101 53.5036 54.83 51.5236 55.14 49.2936C56.46 39.6836 56.46 29.9536 55.15 20.3536ZM50.2 48.5936C49.9 50.8136 48.15 52.5836 45.92 52.8836C41.37 53.5036 36.73 53.8236 32.13 53.8236C27.53 53.8236 22.8902 53.5136 18.3402 52.8836C16.1102 52.5836 14.3701 50.8236 14.0601 48.5936C13.1801 42.1336 12.9301 35.6036 13.2901 29.1036C13.3201 28.5836 13.7401 28.1736 14.2601 28.1536C26.1701 27.6436 38.0901 27.6635 50.0001 28.1936C50.5201 28.2136 50.94 28.6336 50.97 29.1436C51.33 35.6336 51.08 42.1436 50.2 48.5936Z" fill="black"/>
</svg>
