<svg width="64" height="64" viewBox="0 0 64 64" fill="none" xmlns="http://www.w3.org/2000/svg">
<path d="M33.3202 30.6699C33.6502 31.9799 34.7102 33.0299 36.0102 33.3599C37.4502 33.7199 38.7801 33.2599 39.6601 32.3499C39.9301 32.0699 40.4102 32.2299 40.5002 32.5999C40.8402 33.9299 40.8702 35.3799 40.4802 36.8799C39.5702 40.4399 36.4202 43.1099 32.7602 43.4199C27.0802 43.8999 22.4102 38.9499 23.3602 33.1899C23.8802 30.0499 26.1501 27.3999 29.1701 26.3899C30.9001 25.8099 32.5702 25.7999 34.0802 26.1799C34.4502 26.2699 34.6102 26.7499 34.3302 27.0199C33.4202 27.9099 32.9602 29.2399 33.3202 30.6699Z" fill="black"/>
<path fill-rule="evenodd" clip-rule="evenodd" d="M55.3601 20.44C56.8701 21.86 57.9501 23.75 58.3501 25.9C59.4401 31.71 59.4401 37.67 58.3501 43.46C57.9801 45.44 57.0301 47.2 55.7001 48.58C54.1401 50.19 52.0501 51.27 49.7101 51.55C37.9401 52.96 26.05 52.96 14.28 51.55C12.01 51.28 9.97005 50.25 8.43005 48.72C7.03005 47.33 6.03002 45.52 5.65002 43.47C4.56002 37.66 4.56002 31.7 5.65002 25.89C6.10002 23.51 7.37003 21.45 9.16003 19.99C10.59 18.82 12.36 18.04 14.29 17.81C15.67 17.65 17.05 17.51 18.43 17.38C18.79 17.35 19.1001 17.12 19.2501 16.79L19.8701 15.37C20.1901 14.64 20.6701 14.01 21.2601 13.52C21.8101 13.07 22.46 12.73 23.16 12.54C26.06 11.76 29.0401 11.37 32.0101 11.37C34.9901 11.37 37.9601 11.76 40.8601 12.54C41.5901 12.74 42.2601 13.1 42.8201 13.58C43.3801 14.07 43.8401 14.67 44.1401 15.37L44.7601 16.79C44.9001 17.12 45.2201 17.35 45.5801 17.38C46.9601 17.5 48.3401 17.64 49.7201 17.81C51.8901 18.07 53.8501 19.02 55.3601 20.44ZM20.0001 34.69C20.0001 41.32 25.3701 46.69 32.0001 46.69C38.6301 46.69 44.0001 41.32 44.0001 34.69C44.0001 28.06 38.6301 22.69 32.0001 22.69C25.3701 22.69 20.0001 28.06 20.0001 34.69ZM47.0001 25.69C47.0001 27.35 48.3401 28.69 50.0001 28.69C51.6601 28.69 53.0001 27.35 53.0001 25.69C53.0001 24.03 51.6601 22.69 50.0001 22.69C48.3401 22.69 47.0001 24.03 47.0001 25.69Z" fill="black"/>
</svg>
