<svg width="65" height="65" viewBox="0 0 65 65" fill="none" xmlns="http://www.w3.org/2000/svg">
<path d="M8.65186 21.4268C9.27186 17.8668 12.8119 15.0668 17.3319 14.5868C19.4319 14.3568 21.5419 14.1868 23.6519 14.0568C24.0419 14.0368 24.2818 14.4368 24.1318 14.7868C23.8818 15.3468 23.7919 15.9568 23.8419 16.5568C23.8919 17.1268 24.2419 17.7868 24.5519 18.2868C24.7519 18.6068 24.5319 19.0168 24.1619 19.0368C22.0619 19.1568 19.9618 19.3368 17.8818 19.5568C15.4518 19.8168 13.7918 21.1468 13.6018 22.2768C12.9918 25.8368 12.6819 29.4168 12.6819 32.9968C12.6819 36.5768 12.9918 40.1568 13.6018 43.7168C13.8018 44.8468 15.4518 46.1768 17.8818 46.4368C21.3818 46.8168 24.9319 47.0468 28.4719 47.1368C28.9019 47.1468 29.1418 46.6368 28.8718 46.3068L27.5319 44.7168C26.6119 43.6268 26.6819 41.8868 27.8019 41.0168C28.2619 40.6568 28.8019 40.4868 29.3419 40.4868C30.0519 40.4868 30.7618 40.7868 31.2618 41.3768L36.3618 47.4468C37.4918 48.7868 37.5018 50.7268 36.3818 52.0668L31.4219 58.0168C30.4819 59.1468 28.7619 59.2368 27.7119 58.1568C26.8019 57.2268 26.8419 55.7068 27.6719 54.7068L29.1318 52.9568C29.4018 52.6368 29.1818 52.1568 28.7618 52.1468C24.9518 52.0568 21.1418 51.8168 17.3618 51.4068C12.8518 50.9168 9.30189 48.1268 8.68189 44.5668C8.02189 40.7268 7.68189 36.8568 7.68189 32.9968C7.66189 29.1268 7.99186 25.2668 8.65186 21.4268ZM56.3419 32.9968C56.3419 29.1268 56.0119 25.2668 55.3419 21.4268C54.7219 17.8668 51.1819 15.0668 46.6619 14.5868C42.8819 14.1768 39.0718 13.9368 35.2618 13.8468C34.8418 13.8368 34.6218 13.3568 34.8918 13.0368L36.3518 11.2868C37.1918 10.2868 37.2319 8.76679 36.3119 7.83679C35.2619 6.76679 33.5318 6.84679 32.6018 7.97679L27.6418 13.9268C26.5318 15.2668 26.5419 17.2068 27.6619 18.5468L32.7618 24.6168C33.2518 25.2068 33.9619 25.5068 34.6819 25.5068C35.2219 25.5068 35.7619 25.3368 36.2219 24.9768C37.3419 24.0968 37.4018 22.3668 36.4918 21.2768L35.1519 19.6868C34.8719 19.3568 35.1219 18.8468 35.5519 18.8568C39.0919 18.9468 42.6418 19.1768 46.1418 19.5568C48.5718 19.8168 50.2319 21.1468 50.4219 22.2768C51.0319 25.8368 51.3419 29.4168 51.3419 32.9968C51.3419 36.5768 51.0319 40.1568 50.4219 43.7168C50.2219 44.8468 48.5718 46.1768 46.1418 46.4368C44.0619 46.6568 41.9618 46.8368 39.8618 46.9568C39.4818 46.9768 39.2719 47.3868 39.4719 47.7068C39.7819 48.1968 40.1319 48.8668 40.1819 49.4368C40.2319 50.0368 40.1418 50.6468 39.8918 51.2068C39.7318 51.5668 39.9818 51.9668 40.3718 51.9368C42.4818 51.8068 44.5919 51.6268 46.6919 51.4068C51.2019 50.9168 54.7518 48.1268 55.3718 44.5668C56.0118 40.7268 56.3419 36.8668 56.3419 32.9968Z" fill="black"/>
</svg>
