<svg width="64" height="65" viewBox="0 0 64 65" fill="none" xmlns="http://www.w3.org/2000/svg">
<path d="M60.5499 25.7379C60.0599 23.1079 58.7599 20.7479 56.8099 18.9179C54.8499 17.0879 52.4199 15.9479 49.7599 15.6279C48.6499 15.4979 47.5499 15.3779 46.4399 15.2679L46.1699 14.6579C45.7199 13.6379 45.0399 12.7079 44.1899 11.9779C43.3399 11.2479 42.3199 10.7079 41.2399 10.4179C35.0499 8.75785 28.4399 8.75785 22.2499 10.4179C21.1999 10.6979 20.2399 11.1979 19.4099 11.8879C18.5099 12.6279 17.7899 13.5879 17.3299 14.6579L17.0699 15.2679C15.9599 15.3779 14.8499 15.4979 13.7499 15.6279C11.3899 15.9079 9.1699 16.8579 7.3299 18.3579C5.0499 20.2179 3.4899 22.8379 2.9499 25.7379C1.7999 31.8779 1.7999 38.0979 2.9499 44.2379C3.4199 46.7379 4.6199 49.0079 6.4299 50.8078C8.3999 52.7579 10.9899 54.0178 13.7499 54.3479C19.7299 55.0679 25.7399 55.4279 31.7599 55.4279C37.7799 55.4279 43.7999 55.0679 49.7699 54.3479C52.6099 54.0079 55.2699 52.6879 57.2599 50.6379C58.9699 48.8679 60.1199 46.6579 60.5699 44.2379C61.7199 38.0979 61.7199 31.8779 60.5699 25.7379H60.5499ZM55.6399 43.3179C55.3699 44.7679 54.6799 46.0979 53.6499 47.1579C52.4599 48.3879 50.8599 49.1779 49.1599 49.3879C37.5999 50.7779 25.8799 50.7779 14.3299 49.3879C12.6799 49.1879 11.1199 48.4379 9.9399 47.2679C8.8599 46.1879 8.1299 44.8279 7.8499 43.3279C6.8099 37.7978 6.8099 32.1979 7.8499 26.6679C8.1799 24.9279 9.1099 23.3579 10.4799 22.2379C11.5799 21.3379 12.9099 20.7679 14.3299 20.5979C15.6799 20.4379 17.0399 20.2979 18.3999 20.1679C19.6699 20.0479 20.7799 19.2579 21.2799 18.0879L21.8999 16.6679C22.0599 16.3079 22.2999 15.9879 22.5999 15.7379C22.8799 15.5079 23.1999 15.3379 23.5499 15.2479C26.2199 14.5279 28.9799 14.1679 31.7499 14.1679C34.5199 14.1679 37.2799 14.5279 39.9499 15.2479C40.3199 15.3479 40.6499 15.5179 40.9299 15.7679C41.2099 16.0079 41.4399 16.3179 41.5899 16.6579L42.2099 18.0779C42.7199 19.2479 43.8299 20.0379 45.0999 20.1579C46.4599 20.2779 47.8099 20.4179 49.1699 20.5879C50.7699 20.7779 52.2299 21.4579 53.3999 22.5579C54.5699 23.6579 55.3499 25.0679 55.6499 26.6479C56.6899 32.1779 56.6899 37.7778 55.6499 43.3078L55.6399 43.3179ZM51.8999 27.4779C51.8999 29.1379 50.5599 30.4779 48.8999 30.4779C47.2399 30.4779 45.8999 29.1379 45.8999 27.4779C45.8999 25.8179 47.2399 24.4779 48.8999 24.4779C50.5599 24.4779 51.8999 25.8179 51.8999 27.4779ZM41.9399 32.4879C42.3399 34.0779 42.3799 35.8079 41.9099 37.6179C40.8099 41.8879 37.0399 45.0879 32.6499 45.4579C25.8399 46.0279 20.2399 40.0979 21.3799 33.1879C21.9999 29.4279 24.7299 26.2479 28.3499 25.0379C30.4299 24.3479 32.4199 24.3279 34.2399 24.7779C34.6899 24.8879 34.8699 25.4679 34.5399 25.7879C33.4599 26.8479 32.8999 28.4479 33.3299 30.1679C33.7199 31.7279 34.9899 32.9979 36.5499 33.3879C38.2699 33.8179 39.8599 33.2679 40.9299 32.1779C41.2499 31.8479 41.8299 32.0279 41.9399 32.4779V32.4879Z" fill="black"/>
</svg>
