<svg width="65" height="64" viewBox="0 0 65 64" fill="none" xmlns="http://www.w3.org/2000/svg">
<path d="M35.0026 12.5403C30.1526 11.4503 24.9027 11.9703 20.0827 14.4103C9.98265 19.5303 5.29271 31.7103 9.39271 42.2703C14.0827 54.3403 27.8825 59.8003 39.4725 54.4603C50.3225 49.4603 55.2226 36.8302 50.7726 25.8802C50.5626 25.3602 49.9427 25.1302 49.4328 25.3702L31.1327 33.8102C30.7427 33.9902 30.3325 33.6303 30.4425 33.2203L35.7426 13.7803C35.8826 13.2403 35.5526 12.6703 35.0026 12.5403Z" fill="black"/>
<path d="M41.9927 6.40018L36.6926 25.8402C36.5826 26.2502 37.0028 26.6001 37.3828 26.4301L55.6828 17.9901C56.1928 17.7501 56.4228 17.1302 56.1628 16.6302C53.3728 11.2402 48.6427 7.45016 43.2427 5.70016C42.7127 5.53016 42.1427 5.86018 41.9927 6.40018Z" fill="black"/>
</svg>
