<svg width="65" height="65" viewBox="0 0 65 65" fill="none" xmlns="http://www.w3.org/2000/svg">
<path d="M32.1227 13.1264C43.1527 13.1264 52.1227 22.0964 52.1227 33.1264C52.1227 44.1564 43.1527 53.1264 32.1227 53.1264C21.0927 53.1264 12.1227 44.1564 12.1227 33.1264C12.1227 22.0964 21.0927 13.1264 32.1227 13.1264ZM32.1227 8.12643C18.3127 8.12643 7.12268 19.3164 7.12268 33.1264C7.12268 46.9364 18.3127 58.1264 32.1227 58.1264C45.9327 58.1264 57.1227 46.9364 57.1227 33.1264C57.1227 19.3264 45.9227 8.12643 32.1227 8.12643ZM28.4027 46.0164C29.2427 45.9064 29.9727 45.3764 30.3427 44.6164C30.3827 44.5264 34.5827 35.8664 42.8027 25.8564C43.6827 24.7864 43.5228 23.2164 42.4628 22.3364C41.4028 21.4564 39.8228 21.6164 38.9427 22.6764C33.3927 29.4164 29.6427 35.5064 27.6127 39.0964L23.6327 34.3764C22.7427 33.3164 21.1627 33.1864 20.1127 34.0764C19.0627 34.9664 18.9227 36.5464 19.8127 37.5964L26.1727 45.1364C26.6527 45.7064 27.3528 46.0264 28.0828 46.0264C28.1828 46.0364 28.2927 46.0264 28.4027 46.0164Z" fill="black"/>
</svg>
