<svg width="64" height="64" viewBox="0 0 64 64" fill="none" xmlns="http://www.w3.org/2000/svg">
<path d="M55.0201 17.53C54.4101 13.08 50.92 9.58 46.47 8.98C36.87 7.67 27.1399 7.67 17.5399 8.98C13.0899 9.59 9.59007 13.09 8.99007 17.53C7.68007 27.13 7.68007 36.86 8.99007 46.46C9.60007 50.91 13.0999 54.41 17.5399 55.01C27.1399 56.32 36.87 56.32 46.47 55.01C50.92 54.4 54.4201 50.9 55.0201 46.46C56.3301 36.86 56.3301 27.13 55.0201 17.53ZM43.5101 23.95C35.2901 33.95 31.0899 42.62 31.0499 42.71C30.6799 43.48 29.9499 44 29.1099 44.11C28.9999 44.12 28.8999 44.13 28.7899 44.13C28.0599 44.13 27.36 43.81 26.88 43.24L20.5201 35.7C19.6301 34.64 19.7599 33.07 20.8199 32.18C21.8799 31.29 23.4499 31.42 24.3399 32.48L28.3199 37.2C30.3499 33.61 34.1 27.53 39.65 20.78C40.53 19.71 42.1 19.56 43.17 20.44C44.23 21.31 44.3801 22.89 43.5101 23.95Z" fill="black"/>
</svg>
