<svg width="65" height="64" viewBox="0 0 65 64" fill="none" xmlns="http://www.w3.org/2000/svg">
<path d="M32.1227 7.13998C18.3127 7.13998 7.12268 18.33 7.12268 32.14C7.12268 45.95 18.3127 57.14 32.1227 57.14C45.9327 57.14 57.1227 45.95 57.1227 32.14C57.1227 18.33 45.9227 7.13998 32.1227 7.13998ZM42.8027 24.87C34.5827 34.87 30.3827 43.54 30.3427 43.63C29.9727 44.4 29.2427 44.92 28.4027 45.03C28.2927 45.04 28.1928 45.05 28.0828 45.05C27.3528 45.05 26.6527 44.73 26.1727 44.16L19.8127 36.62C18.9227 35.56 19.0527 33.99 20.1127 33.1C21.1727 32.21 22.7427 32.34 23.6327 33.4L27.6127 38.12C29.6427 34.53 33.3927 28.45 38.9427 21.7C39.8228 20.63 41.4028 20.48 42.4628 21.36C43.5228 22.23 43.6727 23.8 42.8027 24.87Z" fill="black"/>
</svg>
