<svg width="65" height="64" viewBox="0 0 65 64" fill="none" xmlns="http://www.w3.org/2000/svg">
<path d="M27.1528 49.52C26.1628 49.52 25.2128 49.1 24.5328 48.34L14.9827 37.55C14.1127 36.57 14.0328 35.05 14.9128 34.09C15.9328 32.99 17.6527 33.03 18.6227 34.12L25.7327 42.16C26.2027 42.69 27.0627 42.58 27.3727 41.94C30.2727 36.05 35.9927 26.04 45.6027 15.3C46.5827 14.21 48.3028 14.18 49.3128 15.29C50.1928 16.26 50.0928 17.78 49.2228 18.75C37.9628 31.35 32.3428 42.81 30.4028 47.28C30.0328 48.14 29.3827 48.87 28.5227 49.23C28.0827 49.43 27.6028 49.52 27.1528 49.52Z" fill="black"/>
</svg>
