<svg width="64" height="65" viewBox="0 0 64 65" fill="none" xmlns="http://www.w3.org/2000/svg">
<path d="M32 12.0035C43.03 12.0035 52 20.9735 52 32.0035C52 43.0335 43.03 52.0035 32 52.0035C20.97 52.0035 12 43.0335 12 32.0035C12 20.9735 20.98 12.0035 32 12.0035ZM32 7.00354C18.19 7.00354 7 18.1935 7 32.0035C7 45.8135 18.19 57.0035 32 57.0035C45.81 57.0035 57 45.8135 57 32.0035C57 18.1935 45.81 7.00354 32 7.00354ZM41.2102 44.5836C42.2602 43.6936 42.39 42.1135 41.5 41.0635L33.6101 31.7835C33.2201 31.3235 33 30.7436 33 30.1436V18.6736C33 17.2936 31.88 16.1736 30.5 16.1736C29.12 16.1736 28 17.2936 28 18.6736V30.1335C28 31.9335 28.6501 33.6736 29.8101 35.0236L37.6802 44.2935C38.1702 44.8736 38.8801 45.1736 39.5901 45.1736C40.1701 45.1736 40.7402 44.9736 41.2102 44.5836Z" fill="black"/>
</svg>
