<svg width="64" height="65" viewBox="0 0 64 65" fill="none" xmlns="http://www.w3.org/2000/svg">
<path d="M32 7.00354C18.19 7.00354 7 18.1935 7 32.0035C7 45.8135 18.19 57.0035 32 57.0035C45.81 57.0035 57 45.8135 57 32.0035C57 18.1935 45.81 7.00354 32 7.00354ZM42.72 46.0735C42.25 46.4835 41.6701 46.6836 41.0901 46.6836C40.3901 46.6836 39.69 46.3935 39.2 45.8135L30.3301 35.5435C29.1501 34.1835 28.5 32.4436 28.5 30.6436V16.6736C28.5 15.2936 29.62 14.1736 31 14.1736C32.38 14.1736 33.5 15.2936 33.5 16.6736V30.6436C33.5 31.2436 33.7201 31.8235 34.1101 32.2835L42.98 42.5536C43.88 43.5936 43.77 45.1735 42.72 46.0735Z" fill="black"/>
</svg>
