<svg width="64" height="64" viewBox="0 0 64 64" fill="none" xmlns="http://www.w3.org/2000/svg">
<path d="M45.4 48.0901C46.1 48.6301 45.8 49.7601 44.93 49.8701C35.35 51.1201 25.63 51.0001 16.06 49.5701C13.51 49.1901 11.29 48.8201 10.07 48.5601C5.74001 47.6201 2.20001 45.0401 2.20001 40.6901C2.20001 37.0401 4.69001 33.9601 8.07001 33.0801C8.37001 33.0001 8.91001 32.9401 9.41001 32.9001C9.99001 32.8501 10.41 32.3201 10.31 31.7501C9.88001 29.2401 9.99001 26.5601 10.99 23.7301C11.05 23.5601 11.15 23.3101 11.27 23.0401C11.53 22.4401 12.29 22.2401 12.81 22.6401L45.42 48.0901H45.4ZM60.76 49.5501L57.94 47.3701C57.43 46.9801 57.43 46.2401 57.91 45.8201C59.37 44.5401 60.32 42.8701 60.32 40.6901C60.32 37.6401 58.58 35.0001 56.04 33.7001C55.6 33.4701 55.39 32.9501 55.57 32.4801C56.2 30.8701 56.42 29.0601 56.06 27.1601C55.35 23.3901 52.37 20.3401 48.61 19.5601C46.39 19.1001 44.28 19.4201 42.47 20.2801C42.01 20.5001 41.48 20.3201 41.2 19.8901C38.11 15.0701 32.65 11.9201 26.46 12.1001C23.15 12.2001 20.05 13.3301 17.43 15.2001C17.07 15.4601 16.58 15.4601 16.23 15.2001L11.43 11.4901C10.4 10.6901 8.88001 10.7101 7.98001 11.6601C6.95001 12.7501 7.10001 14.4701 8.26001 15.3601L57.79 53.6101C58.25 53.9601 58.78 54.1301 59.32 54.1301C60.19 54.1301 61.04 53.6801 61.51 52.8401C62.12 51.7401 61.75 50.3501 60.75 49.5801L60.76 49.5501Z" fill="black"/>
</svg>
