<svg width="64" height="64" viewBox="0 0 64 64" fill="none" xmlns="http://www.w3.org/2000/svg">
<path d="M28.4701 16.07C33.4001 16.07 37.7201 18.63 40.1901 22.5C40.3501 22.75 40.6201 22.9 40.9001 22.9C41.0101 22.9 41.1301 22.88 41.2401 22.82C42.2701 22.33 43.4101 22.05 44.6301 22.05C45.1701 22.05 45.7301 22.11 46.3001 22.22C49.3901 22.86 51.8501 25.37 52.4301 28.48C52.7301 30.05 52.5501 31.54 52.0301 32.86C51.8801 33.24 52.0501 33.68 52.4201 33.86C54.5101 34.94 55.9401 37.11 55.9401 39.62C55.9401 43.2 52.8601 45.13 49.4601 46.1C48.8201 46.28 47.8101 46.49 46.5801 46.7C41.8901 47.51 37.1401 47.9 32.4001 47.9C28.0801 47.9 23.7701 47.57 19.4901 46.93C17.3901 46.61 15.5601 46.32 14.5601 46.1C10.9901 45.32 8.08008 43.2 8.08008 39.62C8.08008 36.61 10.1301 34.08 12.9101 33.35C13.1601 33.28 13.6001 33.24 14.0101 33.2C14.4901 33.16 14.8301 32.73 14.7501 32.25C14.3401 29.81 14.5301 27.17 15.8301 24.37C18.0701 19.57 22.7601 16.22 28.0601 16.06C28.2001 16.06 28.3401 16.06 28.4801 16.06M28.4801 11.06C28.2901 11.06 28.1101 11.06 27.9201 11.06C20.9001 11.27 14.3801 15.66 11.3101 22.25C10.2501 24.52 9.67008 26.87 9.58008 29.26C5.67008 31.14 3.08008 35.14 3.08008 39.61C3.08008 45.23 7.07008 49.58 13.5001 50.98C14.5301 51.2 16.2401 51.49 18.7501 51.87C23.2801 52.55 27.8801 52.9 32.4101 52.9C37.4701 52.9 42.5301 52.47 47.4401 51.62C48.9701 51.3601 50.0501 51.13 50.8401 50.9C57.2601 49.06 60.9501 44.95 60.9501 39.61C60.9501 36.46 59.6801 33.53 57.5001 31.41C57.6401 30.13 57.6001 28.82 57.3501 27.54C56.3901 22.47 52.3601 18.36 47.3201 17.31C46.4301 17.13 45.5301 17.03 44.6401 17.03C43.9001 17.03 43.1701 17.09 42.4601 17.21C38.9101 13.3 33.8801 11.04 28.4901 11.04L28.4801 11.06Z" fill="black"/>
</svg>
