<svg width="64" height="64" viewBox="0 0 64 64" fill="none" xmlns="http://www.w3.org/2000/svg">
<path d="M56.31 33.0601C56.94 31.4501 57.16 29.6401 56.8 27.7401C56.09 23.9701 53.11 20.9201 49.35 20.1401C47.13 19.6801 45.02 20.0001 43.21 20.8601C42.75 21.0801 42.22 20.9001 41.94 20.4701C38.85 15.6501 33.39 12.5001 27.2 12.6801C21.01 12.8601 15.07 16.9401 12.35 22.7701C10.77 26.1701 10.53 29.3801 11.03 32.3401C11.13 32.9101 10.71 33.4401 10.13 33.4901C9.62998 33.5301 9.09998 33.5901 8.78998 33.6701C5.40998 34.5601 2.91998 37.6301 2.91998 41.2801C2.91998 45.6301 6.45998 48.2101 10.79 49.1501C12.01 49.4201 14.23 49.7801 16.78 50.1601C27.69 51.8001 38.8 51.7501 49.68 49.8801C51.17 49.6201 52.4 49.3801 53.17 49.1501C57.31 47.9701 61.04 45.6301 61.04 41.2801C61.04 38.2301 59.3 35.5901 56.76 34.2901C56.32 34.0601 56.11 33.5401 56.29 33.0701L56.31 33.0601Z" fill="black"/>
</svg>
