<svg width="64" height="64" viewBox="0 0 64 64" fill="none" xmlns="http://www.w3.org/2000/svg">
<path d="M45.7401 50.59C46.0901 50.86 45.9401 51.42 45.5101 51.49C41.2001 52.14 36.8001 52.47 32.3901 52.47C27.9801 52.47 23.2701 52.12 18.7301 51.44C16.2201 51.06 14.5001 50.77 13.4801 50.55C7.05006 49.15 3.06006 44.8 3.06006 39.18C3.06006 34.71 5.65006 30.72 9.56006 28.83C9.62006 27.41 9.85005 26.01 10.2501 24.64C10.4501 23.95 11.2701 23.68 11.8401 24.12L14.4401 26.15C14.7401 26.38 14.8701 26.77 14.8001 27.14C14.4801 28.77 14.5001 30.34 14.7601 31.84C14.8401 32.31 14.4901 32.74 14.0201 32.77C13.6101 32.8 13.1701 32.85 12.9201 32.92C10.1401 33.65 8.09006 36.18 8.09006 39.19C8.09006 42.77 11.0001 44.9 14.5701 45.67C15.5801 45.89 17.4001 46.19 19.5001 46.5C23.7801 47.14 28.1001 47.47 32.4101 47.47C35.0701 47.47 37.7201 47.33 40.3701 47.08C40.8801 47.03 41.3801 47.18 41.7801 47.49L45.7601 50.6L45.7401 50.59ZM60.2601 54.07C59.7901 54.92 58.9301 55.36 58.0701 55.36C57.5401 55.36 57.0001 55.19 56.5401 54.84L7.01006 16.59C5.85006 15.69 5.69006 13.98 6.73006 12.89C7.63006 11.94 9.15005 11.92 10.1801 12.72L14.3201 15.92C14.7101 16.22 15.2701 16.18 15.6301 15.84C18.9601 12.69 23.3201 10.76 27.9101 10.63C28.1001 10.63 28.2901 10.63 28.4701 10.63C33.8601 10.63 38.8901 12.89 42.4401 16.8C43.1601 16.68 43.8901 16.62 44.6201 16.62C45.5101 16.62 46.4101 16.71 47.3001 16.9C52.3401 17.94 56.3701 22.05 57.3301 27.13C57.5701 28.42 57.62 29.72 57.48 31C59.66 33.12 60.9301 36.06 60.9301 39.2C60.9301 42.34 59.5401 45.26 57.0001 47.37C56.5101 47.78 56.5301 48.53 57.0301 48.92L59.5001 50.83C60.4901 51.6 60.8701 52.99 60.2601 54.09V54.07ZM19.9301 18.7C19.4301 19.11 19.4401 19.88 19.9501 20.27L51.2401 44.43C51.5401 44.67 51.9601 44.71 52.3001 44.53C54.4001 43.4 55.9301 41.7 55.9301 39.18C55.9301 36.66 54.4901 34.48 52.3901 33.41C52.0301 33.23 51.8701 32.79 52.0201 32.42C52.5401 31.1 52.7201 29.6 52.4201 28.04C51.8301 24.94 49.5501 22.53 46.4701 21.82C45.8401 21.68 45.2201 21.61 44.6201 21.61C43.4101 21.61 42.2601 21.89 41.2301 22.38C41.1201 22.43 41.0101 22.46 40.8901 22.46C40.6101 22.46 40.3401 22.31 40.1801 22.06C37.7101 18.2 33.3801 15.63 28.4601 15.63C28.3201 15.63 28.1801 15.63 28.0401 15.63C25.0201 15.72 22.2001 16.86 19.9201 18.7H19.9301Z" fill="black"/>
</svg>
