<svg width="65" height="65" viewBox="0 0 65 65" fill="none" xmlns="http://www.w3.org/2000/svg">
<path d="M44.3519 25.3264L50.7619 25.3364C52.0719 25.3464 53.2619 26.2864 53.3919 27.5764C53.5419 29.0764 52.3619 30.3364 50.9019 30.3364L39.2619 30.3164C37.2619 30.3164 35.5518 28.8864 35.2018 26.9164L33.1918 15.5964C32.9618 14.3064 33.6719 12.9664 34.9219 12.6064C36.3619 12.1864 37.8218 13.1164 38.0818 14.5664L39.2419 21.0864C39.3119 21.5064 39.8419 21.6464 40.1119 21.3264L48.5919 11.3364C49.5419 10.2164 51.2619 10.1464 52.3019 11.2264C53.2119 12.1764 53.1619 13.6864 52.3119 14.6864L43.9719 24.5064C43.6919 24.8264 43.9219 25.3264 44.3519 25.3264Z" fill="black"/>
<path d="M24.7519 35.6764C26.7519 35.6764 28.4619 37.1064 28.8119 39.0764L30.8318 50.3964C31.0118 51.4264 30.6219 52.5264 29.7319 53.0864C29.3119 53.3564 28.8419 53.4764 28.3919 53.4764C27.2019 53.4764 26.1419 52.6264 25.9319 51.4164L24.7719 44.8964C24.7019 44.4764 24.1719 44.3364 23.9019 44.6564L15.4219 54.6464C14.9219 55.2264 14.2219 55.5264 13.5119 55.5264C12.9719 55.5264 12.4318 55.3564 11.9718 54.9964C10.8418 54.1164 10.7818 52.3764 11.7118 51.2864L20.0319 41.4864C20.3119 41.1664 20.0819 40.6664 19.6519 40.6664L13.1018 40.6564C11.3918 40.6564 10.0818 38.9264 10.8218 37.1164C11.1918 36.2064 12.1319 35.6564 13.1119 35.6564L24.7519 35.6764Z" fill="black"/>
</svg>
