<svg width="65" height="65" viewBox="0 0 65 65" fill="none" xmlns="http://www.w3.org/2000/svg">
<path d="M44.8055 34.3138C44.8355 38.5538 44.5755 42.7938 44.0055 46.9938C43.7755 48.6638 42.4655 49.9738 40.7955 50.1938C36.8355 50.7338 32.8055 51.0038 28.8055 51.0038C24.8055 51.0038 20.7755 50.7338 16.8155 50.1938C15.1455 49.9638 13.8355 48.6538 13.6055 46.9838C12.5255 39.0238 12.5255 30.9638 13.6055 23.0038C13.8355 21.3338 15.1455 20.0238 16.8155 19.7938C20.7755 19.2538 24.8055 18.9838 28.8055 18.9838C29.2155 18.9838 29.6255 18.9938 30.0455 19.0038C30.5955 19.0138 31.1255 18.8038 31.5055 18.4138C32.6355 17.2738 33.7655 16.1438 34.9155 15.0338C35.2255 14.7338 35.0355 14.2038 34.6055 14.1738C32.6755 14.0538 30.7455 13.9838 28.8055 13.9838C24.5755 13.9838 20.3455 14.2738 16.1455 14.8438C12.2555 15.3737 9.18547 18.4437 8.65547 22.3337C7.50547 30.7337 7.50547 39.2538 8.65547 47.6638C9.18547 51.5538 12.2555 54.6237 16.1455 55.1537C20.3455 55.7237 24.5755 56.0137 28.8055 56.0137C33.0355 56.0137 37.2655 55.7237 41.4655 55.1537C45.3655 54.6237 48.4255 51.5237 48.9555 47.6337C49.7655 41.7037 49.9955 35.7237 49.6655 29.7637C49.6455 29.3337 49.1055 29.1338 48.8055 29.4438C47.6855 30.6038 46.5454 31.7537 45.3854 32.8837C45.0154 33.2637 44.8055 33.7738 44.8055 34.3138Z" fill="black"/>
<path d="M27.4455 28.5538C32.7055 22.6438 38.3155 17.0538 44.2555 11.8438C44.6555 11.4938 45.2555 11.5137 45.6255 11.8937L52.2054 18.4738C52.5754 18.8438 52.6055 19.4537 52.2555 19.8438C47.0355 25.7938 41.4554 31.4037 35.5454 36.6537C35.1454 37.0037 34.5454 36.9838 34.1654 36.6138L27.4854 29.9338C27.1054 29.5638 27.0855 28.9538 27.4455 28.5538ZM55.5254 16.0137C55.7954 15.6937 56.0754 15.3638 56.3454 15.0338C56.9054 14.3538 56.9554 13.3837 56.4654 12.6537C55.1454 10.6637 53.4355 8.96373 51.4455 7.63373C50.7155 7.14373 49.7455 7.19378 49.0655 7.75378C48.7355 8.02378 48.4154 8.29373 48.0854 8.57373C47.6354 8.95373 47.6154 9.63376 48.0254 10.0438L54.0554 16.0737C54.4654 16.4837 55.1454 16.4537 55.5254 16.0137ZM25.6054 32.3038C25.1954 31.8938 24.5154 31.9138 24.1354 32.3638C23.5854 33.0138 23.0354 33.6637 22.4954 34.3237L22.1354 34.7637C21.8054 35.1637 21.8454 35.7438 22.2054 36.1138C22.4454 36.3638 22.4955 36.7438 22.3155 37.0338L22.0154 37.5338C20.6354 39.8238 19.4654 42.2237 18.5154 44.7137C18.3054 45.2537 18.8454 45.7837 19.3854 45.5837C21.8754 44.6337 24.2855 43.4537 26.5655 42.0837L27.0655 41.7838C27.3655 41.6038 27.7454 41.6537 27.9854 41.8937C28.3554 42.2537 28.9354 42.2937 29.3354 41.9637L29.7754 41.6038C30.4354 41.0638 31.0854 40.5137 31.7354 39.9637C32.1854 39.5837 32.2054 38.9038 31.7954 38.4938L25.6054 32.3038Z" fill="black"/>
</svg>
