<svg width="36" height="54" viewBox="0 0 36 54" fill="none" xmlns="http://www.w3.org/2000/svg">
<path d="M18 5.05005C20.68 5.05005 23.35 5.23003 26.01 5.59003C27.78 5.83003 29.1799 7.22002 29.4299 8.99002C31.1399 20.94 31.1399 33.06 29.4299 45.01C29.1799 46.78 27.78 48.17 26.01 48.41C23.35 48.77 20.68 48.95 18 48.95C15.32 48.95 12.65 48.77 9.98998 48.41C8.21998 48.17 6.81993 46.78 6.56993 45.01C4.85993 33.06 4.85993 20.94 6.56993 8.99002C6.81993 7.22002 8.21998 5.83003 9.98998 5.59003C12.65 5.23003 15.32 5.05005 18 5.05005ZM18 0.0500488C15.11 0.0500488 12.1799 0.250045 9.31993 0.640045C5.35993 1.18005 2.18999 4.32003 1.62999 8.28003C-0.14001 20.7 -0.14001 33.3 1.62999 45.72C2.19999 49.68 5.35993 52.82 9.31993 53.36C12.1899 53.75 15.11 53.95 18 53.95C20.89 53.95 23.8199 53.75 26.6799 53.36C30.6399 52.82 33.81 49.68 34.37 45.72C36.14 33.3 36.14 20.71 34.37 8.29004C33.8 4.33004 30.6399 1.19002 26.6799 0.650024C23.8199 0.250024 20.89 0.0500488 18 0.0500488ZM24.16 10.6C24.16 9.22004 23.04 8.10004 21.66 8.10004H14.35C12.97 8.10004 11.85 9.22004 11.85 10.6C11.85 11.98 12.97 13.1 14.35 13.1H21.66C23.04 13.1 24.16 11.98 24.16 10.6Z" fill="black"/>
</svg>
