<svg width="60" height="42" viewBox="0 0 60 42" fill="none" xmlns="http://www.w3.org/2000/svg">
<path d="M55.1799 31.49C54.7099 31.51 54.2399 31.52 53.7799 31.54L54.22 27.3C54.75 22.23 54.75 17.11 54.22 12.03C53.71 7.12997 50.0299 3.15998 45.1899 2.25998C40.1699 1.32998 35.09 0.859985 30 0.859985C24.92 0.859985 19.8299 1.32998 14.8099 2.25998C9.96994 3.15998 6.28991 7.12997 5.77991 12.03C5.24991 17.1 5.24991 22.22 5.77991 27.3L6.21997 31.54C5.74997 31.52 5.27995 31.51 4.81995 31.49C2.54995 31.49 0.709961 33.33 0.709961 35.6C0.709961 37.69 2.27999 39.45 4.35999 39.68C21.4 41.62 38.5999 41.62 55.6399 39.68C57.7199 39.44 59.2899 37.69 59.2899 35.6C59.2899 33.33 57.4499 31.49 55.1799 31.49ZM10.21 26.84C9.70996 22.08 9.70996 17.26 10.21 12.5C10.52 9.57997 12.74 7.16998 15.63 6.63998C20.36 5.75998 25.2 5.31998 30.01 5.31998C34.82 5.31998 39.6599 5.76998 44.3899 6.63998C47.2699 7.17998 49.4999 9.58997 49.8099 12.5C50.3099 17.26 50.3099 22.08 49.8099 26.84L49.2999 31.71C36.4499 32.14 23.59 32.14 10.74 31.71L10.21 26.84Z" fill="black"/>
</svg>
