<svg width="64" height="64" viewBox="0 0 64 64" fill="none" xmlns="http://www.w3.org/2000/svg">
<path d="M10.3501 28.3802C8.88014 28.3802 7.71015 29.6402 7.86015 31.1402C7.99015 32.4402 9.18027 33.3802 10.4903 33.3802H13.6302C14.1902 33.3802 14.6302 32.9302 14.6202 32.3702C14.6102 31.3802 14.6102 30.3802 14.6202 29.3902C14.6302 28.8302 14.1802 28.3802 13.6302 28.3802H10.3501Z" fill="black"/>
<path d="M10.6702 17.8602C9.2002 17.8602 8.03021 19.1202 8.18021 20.6202C8.31021 21.9202 9.50034 22.8602 10.8103 22.8602H13.9402C14.4602 22.8602 14.8902 22.4602 14.9302 21.9402C15.0002 20.9502 15.0902 19.9502 15.1902 18.9602C15.2502 18.3702 14.7902 17.8602 14.2002 17.8602H10.6702Z" fill="black"/>
<path d="M51.3102 14.1102C50.8902 11.0502 48.46 8.69021 45.4 8.24021C37.58 7.09021 29.6302 7.09019 21.8102 8.22019C18.6802 8.67019 16.1701 11.0802 15.7401 14.2202C15.6201 15.0602 15.5201 15.9002 15.4301 16.7502C15.3601 17.3402 15.8301 17.8602 16.4301 17.8602H19.5101C20.8201 17.8602 22.01 18.8002 22.14 20.1002C22.29 21.6002 21.12 22.8602 19.65 22.8602H15.82C15.29 22.8602 14.85 23.2702 14.82 23.8002C14.75 24.9802 14.7101 26.1702 14.6801 27.3602C14.6701 27.9202 15.1201 28.3902 15.6801 28.3902H19.1901C20.5001 28.3902 21.69 29.3302 21.82 30.6302C21.97 32.1302 20.8 33.3902 19.33 33.3902H15.6801C15.1201 33.3902 14.6601 33.8502 14.6801 34.4202C14.7101 35.6102 14.76 36.7902 14.82 37.9802C14.85 38.5102 15.29 38.9202 15.82 38.9202H19.5101C20.8201 38.9202 22.01 39.8602 22.14 41.1602C22.29 42.6602 21.12 43.9202 19.65 43.9202H16.4301C15.8301 43.9202 15.3701 44.4402 15.4301 45.0302C15.5301 45.8702 15.6301 46.7102 15.7401 47.5502C16.1701 50.6802 18.6802 53.0902 21.8102 53.5502C29.6302 54.6802 37.58 54.6702 45.4 53.5302C48.45 53.0802 50.8802 50.7202 51.3102 47.6602C52.8502 36.5302 52.8502 25.2402 51.3102 14.1102ZM42.3002 24.5702C42.3002 25.8802 41.2401 26.9402 39.9301 26.9402H31.3002C29.9902 26.9402 28.9301 25.8802 28.9301 24.5702V20.0302C28.9301 18.7202 29.9902 17.6602 31.3002 17.6602H39.9301C41.2401 17.6602 42.3002 18.7202 42.3002 20.0302V24.5702Z" fill="black"/>
<path d="M10.6702 38.9102C9.2002 38.9102 8.03021 40.1702 8.18021 41.6702C8.31021 42.9702 9.50034 43.9102 10.8103 43.9102H14.2002C14.7902 43.9102 15.2502 43.4002 15.1902 42.8102C15.0902 41.8202 15.0102 40.8202 14.9302 39.8302C14.8902 39.3102 14.4602 38.9102 13.9402 38.9102H10.6702Z" fill="black"/>
</svg>
