<svg width="64" height="64" viewBox="0 0 64 64" fill="none" xmlns="http://www.w3.org/2000/svg">
<path d="M51.3003 15.05C50.8703 11.92 48.3702 9.50997 45.2502 9.05997C41.3602 8.49997 37.4403 8.21997 33.5103 8.21997C29.5903 8.21997 25.6703 8.49997 21.7803 9.05997C18.6503 9.50997 16.1402 11.93 15.7202 15.06C15.5902 15.97 15.4804 16.89 15.3804 17.81C15.3204 18.32 14.9004 18.7 14.3904 18.7H13.2703C12.1003 18.7 11.0002 19.44 10.7302 20.58C10.3302 22.23 11.5702 23.7 13.1602 23.7H13.8003C14.3703 23.7 14.8303 24.18 14.7903 24.76C14.7303 25.92 14.6802 27.09 14.6502 28.26C14.6402 28.8 14.2002 29.23 13.6502 29.23H12.4502C11.2802 29.23 10.1802 29.97 9.91016 31.11C9.51016 32.76 10.7503 34.23 12.3403 34.23H13.6602C14.2002 34.23 14.6402 34.66 14.6602 35.2C14.6902 36.37 14.7403 37.53 14.8003 38.7C14.8303 39.27 14.3803 39.76 13.8103 39.76H13.2903C12.1203 39.76 11.0202 40.5 10.7502 41.64C10.3502 43.29 11.5902 44.76 13.1802 44.76H14.4202C14.9302 44.76 15.3502 45.14 15.4102 45.65C15.5102 46.57 15.6202 47.48 15.7502 48.4C15.7502 51.32 17.8803 53.78 20.7603 54.24C24.9903 54.91 29.2703 55.24 33.5403 55.24C37.8103 55.24 42.0803 54.91 46.3203 54.24C49.2003 53.79 51.3303 51.32 51.3303 48.4C52.8203 37.32 52.8203 26.1 51.3003 15.05ZM46.3503 47.69C46.2303 48.57 45.5402 49.28 44.6602 49.4C40.9802 49.94 37.2303 50.21 33.5103 50.21C29.7903 50.21 26.0504 49.94 22.3704 49.4C21.4904 49.27 20.7902 48.57 20.6702 47.69C20.5902 47.08 20.5102 46.46 20.4402 45.84C20.3702 45.25 20.8402 44.73 21.4302 44.73H22.0002C23.1702 44.73 24.2703 43.99 24.5403 42.85C24.9403 41.2 23.7004 39.73 22.1104 39.73H20.7903C20.2603 39.73 19.8203 39.32 19.7903 38.79C19.7203 37.6 19.6804 36.42 19.6404 35.23C19.6204 34.67 20.0804 34.2 20.6404 34.2H21.1702C22.3402 34.2 23.4402 33.46 23.7102 32.32C24.1102 30.67 22.8703 29.2 21.2803 29.2H20.6304C20.0704 29.2 19.6104 28.74 19.6304 28.17C19.6604 26.98 19.7103 25.8 19.7803 24.61C19.8103 24.08 20.2503 23.67 20.7803 23.67H21.9802C23.1502 23.67 24.2503 22.93 24.5203 21.79C24.9203 20.14 23.6803 18.67 22.0903 18.67H21.4002C20.8002 18.67 20.3402 18.15 20.4102 17.56C20.4802 16.94 20.5604 16.33 20.6404 15.71C20.7604 14.83 21.4603 14.13 22.3403 14C26.0203 13.46 29.7602 13.19 33.4802 13.19C37.2002 13.19 40.9504 13.46 44.6304 14C45.5104 14.13 46.2003 14.83 46.3203 15.71C47.8003 26.33 47.8003 37.09 46.3503 47.69ZM38.9002 27.77H30.2703C28.9603 27.77 27.9002 26.71 27.9002 25.4V20.86C27.9002 19.55 28.9603 18.49 30.2703 18.49H38.9002C40.2102 18.49 41.2703 19.55 41.2703 20.86V25.4C41.2803 26.71 40.2202 27.77 38.9002 27.77Z" fill="black"/>
</svg>
