<svg width="64" height="65" viewBox="0 0 64 65" fill="none" xmlns="http://www.w3.org/2000/svg">
<path d="M59.63 32.0541C59.63 38.0541 54.82 43.5241 48.9 44.2341C45.63 44.6141 42.3 44.8841 39 45.0541C37.54 45.1241 36.31 43.9341 36.37 42.4341C36.43 41.1241 37.57 40.1241 38.88 40.0541C42.04 39.8841 45.2101 39.6241 48.3101 39.2641C51.7201 38.8541 54.62 35.5541 54.62 32.0541C54.62 30.0841 53.71 28.3341 52.13 27.2541C51.27 26.6641 50.81 25.6141 51.05 24.6041C51.2001 23.9741 51.28 23.3341 51.28 22.6941C51.28 18.4241 47.8201 14.9541 43.5801 14.9541H43.48C42.75 14.9641 42.01 15.0941 41.3 15.3241C40.22 15.6741 39.01 15.3841 38.35 14.4641C35.72 10.8241 31.73 8.73413 27.41 8.73413C19.85 8.78413 13.6901 15.1341 13.6801 22.8741C13.6801 23.1641 13.6901 23.4641 13.7101 23.7641C13.7901 25.0041 12.97 26.0841 11.75 26.3641C9.1 26.9741 7.23999 29.3141 7.23999 32.0541C7.23999 35.5541 10.1401 38.8541 13.5701 39.2641C16.8401 39.6441 20.19 39.9141 23.54 40.0741C24.83 40.1341 25.96 41.1041 26.05 42.3941C26.15 43.8741 24.9801 45.0841 23.5601 45.0841C23.5201 45.0841 23.4801 45.0841 23.4401 45.0841C19.9401 44.9141 16.42 44.6341 12.99 44.2341C7.05999 43.5241 2.23999 38.0641 2.23999 32.0541C2.23999 27.8641 4.58003 24.1841 8.16003 22.3741C8.48003 22.2141 8.70009 21.9041 8.72009 21.5441C9.40009 11.6741 17.51 3.80413 27.39 3.73413C32.6 3.73413 37.4301 5.9041 40.9601 9.7641C41.1901 10.0141 41.52 10.1241 41.85 10.0741C42.37 10.0041 42.89 9.9541 43.42 9.9541H43.5701C50.5901 9.9541 56.29 15.6741 56.29 22.6941C56.29 23.1741 56.2601 23.6541 56.2101 24.1241C58.3801 26.1441 59.63 29.0041 59.63 32.0541ZM39.02 49.4341L35.36 52.4941C34.71 53.0341 33.7201 52.5741 33.7201 51.7241V28.1341C33.7201 26.8241 32.78 25.6341 31.48 25.5041C29.98 25.3541 28.7201 26.5241 28.7201 27.9941V51.7241C28.7201 52.5741 27.7301 53.0341 27.0801 52.4941L23.42 49.4341C22.42 48.5941 20.9001 48.5541 19.9601 49.4641C18.8801 50.5141 18.97 52.2341 20.1 53.1741L28.62 60.3041C29.37 60.9341 30.3001 61.2441 31.2201 61.2441C32.1401 61.2441 33.0701 60.9341 33.8201 60.2941L42.3301 53.1741C43.4501 52.2341 43.5401 50.5141 42.4701 49.4641C41.5401 48.5541 40.02 48.5941 39.02 49.4341Z" fill="black"/>
</svg>
