<svg width="64" height="64" viewBox="0 0 64 64" fill="none" xmlns="http://www.w3.org/2000/svg">
<path d="M32 7C18.19 7 7 18.19 7 32C7 45.81 18.19 57 32 57C45.81 57 57 45.81 57 32C57 18.19 45.81 7 32 7ZM40.65 21.8C42.31 21.8 43.65 23.14 43.65 24.8C43.65 26.46 42.31 27.8 40.65 27.8C38.99 27.8 37.65 26.46 37.65 24.8C37.65 23.14 38.99 21.8 40.65 21.8ZM23.37 21.8C25.03 21.8 26.37 23.14 26.37 24.8C26.37 26.46 25.03 27.8 23.37 27.8C21.71 27.8 20.37 26.46 20.37 24.8C20.37 23.14 21.71 21.8 23.37 21.8ZM32.01 46.94L31.94 46.85L31.87 46.94C23.58 47.33 18.79 41.12 19.21 37.14C19.62 33.16 23.38 32.96 25.75 34.03C29.83 35.87 34.45 35.53 38.13 34.02C40.54 33.03 44.25 33.13 44.67 37.12C45.09 41.1 40.32 47.32 32.02 46.94H32.01Z" fill="black"/>
</svg>
