<svg width="64" height="64" viewBox="0 0 64 64" fill="none" xmlns="http://www.w3.org/2000/svg">
<path d="M32.24 47.95C32.6 45.19 35.08 43.19 37.87 43.19H41.95C42.5 43.19 42.95 42.74 42.95 42.19V38.15C42.95 35.3 45.03 32.76 47.86 32.46C48.69 32.37 49.48 32.47 50.21 32.72C50.78 32.92 51.38 32.51 51.5 31.92C51.95 29.69 52.1 27.35 51.9 24.94C50.95 12.86 41.17 3.06 29.08 2.08C13.85 0.850003 1.18997 13.28 2.03997 28.43C2.69997 40.18 11.7 50.01 23.34 51.73C26.2 52.15 28.97 52.06 31.6 51.57C32.19 51.46 32.61 50.87 32.43 50.3C32.21 49.57 32.13 48.78 32.24 47.96V47.95ZM35.65 16.8C37.31 16.8 38.65 18.14 38.65 19.8C38.65 21.46 37.31 22.8 35.65 22.8C33.99 22.8 32.65 21.46 32.65 19.8C32.65 18.14 33.99 16.8 35.65 16.8ZM18.37 16.8C20.03 16.8 21.37 18.14 21.37 19.8C21.37 21.46 20.03 22.8 18.37 22.8C16.71 22.8 15.37 21.46 15.37 19.8C15.37 18.14 16.71 16.8 18.37 16.8ZM26.94 41.85L26.87 41.94C18.58 42.33 13.79 36.12 14.21 32.14C14.62 28.16 18.38 27.96 20.75 29.03C24.83 30.87 29.45 30.53 33.13 29.02C35.54 28.03 39.25 28.13 39.67 32.12C40.09 36.1 35.32 42.32 27.02 41.94L26.95 41.85H26.94ZM61.7 48.44C61.85 49.94 60.68 51.2 59.21 51.2H51.95C51.4 51.2 50.95 51.65 50.95 52.2V59.46C50.95 60.93 49.69 62.1 48.19 61.95C46.89 61.82 45.95 60.63 45.95 59.32V52.2C45.95 51.65 45.5 51.2 44.95 51.2H37.69C36.22 51.2 35.05 49.94 35.2 48.44C35.33 47.14 36.52 46.2 37.83 46.2H44.95C45.5 46.2 45.95 45.75 45.95 45.2V37.94C45.95 36.47 47.21 35.3 48.71 35.45C50.01 35.58 50.95 36.77 50.95 38.08V45.2C50.95 45.75 51.4 46.2 51.95 46.2H59.07C60.38 46.2 61.57 47.14 61.7 48.44Z" fill="black"/>
</svg>
