<svg width="64" height="64" viewBox="0 0 64 64" fill="none" xmlns="http://www.w3.org/2000/svg">
<path fill-rule="evenodd" clip-rule="evenodd" d="M6.96997 32.76C6.96997 18.95 18.16 7.76001 31.97 7.76001C45.77 7.76001 56.97 18.95 56.97 32.76C56.97 46.57 45.78 57.76 31.97 57.76C18.16 57.76 6.96997 46.57 6.96997 32.76ZM51.97 32.76C51.97 21.73 43 12.76 31.97 12.76C20.94 12.76 11.97 21.73 11.97 32.76C11.97 43.79 20.94 52.76 31.97 52.76C43 52.76 51.97 43.79 51.97 32.76Z" fill="black"/>
<path d="M25.822 28.2522C26.7557 26.8835 26.403 25.017 25.0343 24.0834C23.6655 23.1497 21.7991 23.5024 20.8654 24.8711C19.9317 26.2398 20.2844 28.1063 21.6531 29.04C23.0218 29.9736 24.8883 29.621 25.822 28.2522Z" fill="black"/>
<path d="M40.62 29.56C42.2769 29.56 43.62 28.2168 43.62 26.56C43.62 24.9031 42.2769 23.56 40.62 23.56C38.9632 23.56 37.62 24.9031 37.62 26.56C37.62 28.2168 38.9632 29.56 40.62 29.56Z" fill="black"/>
<path d="M31.84 47.7L31.91 47.61L31.98 47.7C40.28 48.07 45.05 41.86 44.63 37.88C44.21 33.9 40.5 33.8 38.09 34.78C34.41 36.3 29.79 36.63 25.71 34.79C23.34 33.71 19.59 33.91 19.17 37.9C18.76 41.88 23.54 48.09 31.83 47.7H31.84Z" fill="black"/>
</svg>
