<svg width="64" height="64" viewBox="0 0 64 64" fill="none" xmlns="http://www.w3.org/2000/svg">
<path d="M21.5207 20.8648C21.5207 22.5248 20.1807 23.8648 18.5207 23.8648C16.8607 23.8648 15.5207 22.5248 15.5207 20.8648C15.5207 19.2048 16.8607 17.8648 18.5207 17.8648C20.1807 17.8648 21.5207 19.2048 21.5207 20.8648ZM35.8007 17.8648C34.1407 17.8648 32.8007 19.2048 32.8007 20.8648C32.8007 22.5248 34.1407 23.8648 35.8007 23.8648C37.4607 23.8648 38.8007 22.5248 38.8007 20.8648C38.8007 19.2048 37.4607 17.8648 35.8007 17.8648ZM27.0207 42.0048L27.0907 41.9148L27.1607 42.0048C35.4607 42.3748 40.2307 36.1648 39.8107 32.1848C39.3907 28.2048 35.6807 28.1048 33.2707 29.0848C29.5907 30.6048 24.9707 30.9348 20.8907 29.0948C18.5207 28.0148 14.7707 28.2148 14.3507 32.2048C13.9407 36.1848 18.7207 42.3948 27.0107 42.0048H27.0207ZM32.3407 48.6748C32.3407 48.3448 32.3707 48.0248 32.4307 47.7048C32.5507 47.0348 31.9307 46.4848 31.2707 46.6248C28.6407 47.1848 25.8307 47.2248 22.9207 46.6148C14.7807 44.8848 8.4707 38.1148 7.3407 29.8748C5.5607 16.9248 16.2707 5.9148 29.1307 7.1648C38.1807 8.0448 45.6307 15.1348 46.9307 24.1348C47.2907 26.6248 47.1807 29.0448 46.6807 31.3248C46.5307 31.9948 47.1007 32.5848 47.7807 32.4748C48.0507 32.4348 48.3207 32.4148 48.5907 32.4148C49.2007 32.4148 49.7907 32.5148 50.3407 32.7048C50.9207 32.9048 51.5307 32.5748 51.6507 31.9748C52.1007 29.7148 52.2507 27.3548 52.0407 24.9148C51.0307 12.8148 41.1807 3.0448 29.0707 2.1348C13.8807 0.994803 1.2907 13.4448 2.1807 28.5848C2.8707 40.3148 11.8907 50.1248 23.5207 51.8048C26.4307 52.2248 29.2407 52.1248 31.9107 51.6048C32.4707 51.4948 32.7607 50.9048 32.5907 50.3548C32.4207 49.8048 32.3307 49.2648 32.3307 48.6748H32.3407ZM59.2207 46.1748H52.1007C51.5507 46.1748 51.1007 45.7248 51.1007 45.1748V38.0548C51.1007 36.7448 50.1607 35.5548 48.8607 35.4248C47.3607 35.2748 46.1007 36.4448 46.1007 37.9148V45.1748C46.1007 45.7248 45.6507 46.1748 45.1007 46.1748H37.9807C36.6707 46.1748 35.4807 47.1148 35.3507 48.4148C35.2007 49.9148 36.3707 51.1748 37.8407 51.1748H45.1007C45.6507 51.1748 46.1007 51.6248 46.1007 52.1748V59.2948C46.1007 60.6048 47.0407 61.7948 48.3407 61.9248C49.8407 62.0748 51.1007 60.9048 51.1007 59.4348V52.1748C51.1007 51.6248 51.5507 51.1748 52.1007 51.1748H59.3607C60.8307 51.1748 62.0007 49.9148 61.8507 48.4148C61.7207 47.1148 60.5307 46.1748 59.2207 46.1748Z" fill="black"/>
</svg>
