<svg width="64" height="65" viewBox="0 0 64 65" fill="none" xmlns="http://www.w3.org/2000/svg">
<path d="M44.16 13.4764L37.75 13.4664C36.45 13.4564 35.26 12.5164 35.14 11.2164C34.99 9.71643 36.17 8.45644 37.63 8.45644L49.27 8.47644C51.27 8.48644 52.98 9.91643 53.33 11.8864L55.34 23.2064C55.52 24.2364 55.13 25.3364 54.24 25.8964C53.82 26.1664 53.35 26.2864 52.9 26.2864C51.71 26.2864 50.65 25.4364 50.44 24.2264L49.28 17.7064C49.21 17.2864 48.68 17.1464 48.41 17.4664L39.93 27.4564C39.43 28.0364 38.73 28.3364 38.02 28.3364C37.48 28.3364 36.94 28.1664 36.48 27.8064C35.35 26.9264 35.29 25.1864 36.22 24.0964L44.54 14.2964C44.82 13.9764 44.59 13.4764 44.16 13.4764Z" fill="black"/>
<path d="M26.38 57.5364L14.74 57.5164C12.73 57.5164 11.03 56.0764 10.69 54.1164L8.67999 42.7964C8.45 41.5164 9.15998 40.1764 10.41 39.8164C11.85 39.3964 13.31 40.3264 13.57 41.7764L14.73 48.2964C14.8 48.7164 15.33 48.8564 15.6 48.5364L24.08 38.5464C25.03 37.4264 26.75 37.3564 27.79 38.4364C28.7 39.3764 28.65 40.8864 27.8 41.8864L19.46 51.7064C19.18 52.0264 19.41 52.5264 19.84 52.5264L26.39 52.5364C28.1 52.5364 29.41 54.2664 28.67 56.0764C28.3 56.9864 27.36 57.5364 26.38 57.5364Z" fill="black"/>
</svg>
