<svg width="65" height="64" viewBox="0 0 65 64" fill="none" xmlns="http://www.w3.org/2000/svg">
<path d="M57.15 24.12C53.91 20.57 50.74 17.84 47.34 15.82C38.05 9.76997 26.19 9.76997 16.91 15.82C13.51 17.84 10.34 20.57 7.10002 24.12C3.00002 28.42 3.00002 36.66 7.10002 40.96C10.34 44.51 13.51 47.24 16.91 49.26C26.19 55.31 38.05 55.31 47.34 49.26C50.74 47.24 53.91 44.51 57.15 40.96C61.25 36.66 61.25 28.42 57.15 24.12ZM32.12 47.75C23.72 47.75 16.91 40.94 16.91 32.54C16.91 24.14 23.72 17.33 32.12 17.33C40.52 17.33 47.33 24.14 47.33 32.54C47.33 40.94 40.52 47.75 32.12 47.75ZM41.83 29.58C42.17 29.23 42.78 29.42 42.9 29.9C43.32 31.58 43.36 33.41 42.87 35.32C41.71 39.83 37.72 43.22 33.08 43.61C25.88 44.21 19.96 37.94 21.17 30.64C21.83 26.66 24.71 23.3 28.54 22.02C30.74 21.29 32.85 21.27 34.77 21.75C35.24 21.87 35.44 22.48 35.09 22.82C33.94 23.94 33.36 25.63 33.81 27.45C34.22 29.1 35.56 30.44 37.21 30.85C39.03 31.31 40.71 30.72 41.84 29.57L41.83 29.58Z" fill="black"/>
</svg>
