<svg width="65" height="64" viewBox="0 0 65 64" fill="none" xmlns="http://www.w3.org/2000/svg">
<path d="M46.2 48.38C46.76 48.82 46.69 49.68 46.07 50.04C36.99 55.3 25.77 55.05 16.91 49.26C13.51 47.24 10.34 44.51 7.10002 40.96C3.00002 36.66 3.00002 28.42 7.10002 24.12C8.10002 23.03 9.09002 22.01 10.09 21.07C10.45 20.73 11.01 20.71 11.4 21.02L46.22 48.38H46.2ZM57.6 46.93L54.93 44.84C54.45 44.47 54.42 43.76 54.85 43.33C55.61 42.58 56.38 41.8 57.15 40.96C61.25 36.66 61.25 28.42 57.15 24.12C53.91 20.57 50.74 17.84 47.34 15.82C38.4 10 27.09 9.79003 17.97 15.18C17.62 15.39 17.17 15.37 16.85 15.12L11.05 10.59C10.02 9.79003 8.50002 9.79003 7.60002 10.74C6.56002 11.83 6.71002 13.54 7.86002 14.44L54.62 50.94C55.08 51.3 55.62 51.47 56.16 51.47C57.02 51.47 57.87 51.03 58.35 50.18C58.97 49.09 58.6 47.7 57.61 46.93H57.6Z" fill="black"/>
</svg>
