<svg width="64" height="65" viewBox="0 0 64 65" fill="none" xmlns="http://www.w3.org/2000/svg">
<path d="M34.0275 14.87C33.5375 14.3 32.8475 14.01 32.1475 14.01L32.1475 14C31.5975 14 31.0575 14.18 30.5975 14.54C29.4675 15.44 29.4275 17.19 30.3775 18.28L41.9375 31.53C42.2675 31.9 42.2675 32.46 41.9375 32.84L30.2675 46.22C29.2975 47.33 29.4775 49.04 30.7075 49.91C31.7775 50.66 33.2675 50.39 34.1275 49.4L47.1375 34.49C48.2875 33.17 48.2875 31.21 47.1375 29.89L34.0275 14.87Z" fill="black"/>
<path d="M20.3476 14.87C19.8576 14.3 19.1676 14.01 18.4676 14.01L18.4676 14C17.9176 14 17.3776 14.18 16.9176 14.54C15.7876 15.44 15.7476 17.19 16.6976 18.28L28.2576 31.53C28.5876 31.9 28.5876 32.46 28.2576 32.84L16.5876 46.22C15.6176 47.33 15.7976 49.04 17.0276 49.91C18.0976 50.66 19.5876 50.39 20.4476 49.4L33.4476 34.49C34.5976 33.17 34.5976 31.21 33.4476 29.89L20.3476 14.87Z" fill="black"/>
</svg>
