<svg width="64" height="65" viewBox="0 0 64 65" fill="none" xmlns="http://www.w3.org/2000/svg">
<path d="M29.9725 49.47C30.4625 50.04 31.1525 50.33 31.8525 50.33V50.34C32.4025 50.34 32.9425 50.16 33.4025 49.8C34.5325 48.9 34.5725 47.15 33.6225 46.06L22.0625 32.81C21.7325 32.44 21.7325 31.88 22.0625 31.5L33.7325 18.12C34.7025 17.01 34.5225 15.3 33.2925 14.43C32.2225 13.68 30.7325 13.95 29.8725 14.94L16.8625 29.85C15.7125 31.17 15.7125 33.13 16.8625 34.45L29.9725 49.47Z" fill="black"/>
<path d="M43.6524 49.47C44.1424 50.04 44.8324 50.33 45.5324 50.33V50.34C46.0824 50.34 46.6224 50.16 47.0824 49.8C48.2124 48.9 48.2524 47.15 47.3024 46.06L35.7424 32.81C35.4124 32.44 35.4124 31.88 35.7424 31.5L47.4124 18.12C48.3824 17.01 48.2024 15.3 46.9724 14.43C45.9024 13.68 44.4124 13.95 43.5524 14.94L30.5524 29.85C29.4024 31.17 29.4024 33.13 30.5524 34.45L43.6524 49.47Z" fill="black"/>
</svg>
