<svg width="64" height="65" viewBox="0 0 64 65" fill="none" xmlns="http://www.w3.org/2000/svg">
<path d="M8.98003 46.4536C9.58003 50.8736 13.04 54.4035 17.46 55.0035C22.28 55.6635 27.1401 55.9935 32.0001 55.9935C36.8301 55.9935 41.66 55.6636 46.46 55.0135C50.9 54.4035 54.4101 50.8936 55.0101 46.4536C56.3201 36.8336 56.3201 27.0736 55.0001 17.4536C54.3901 13.0336 50.87 9.57354 46.45 8.97354C41.66 8.32354 39.0699 7.99353 35.7999 7.99353C35.5499 7.99353 35.2999 7.99354 35.0399 8.00354C31.6299 8.05354 28.4001 9.47354 26.0201 11.9135C22.0401 15.9935 15.62 22.5635 11.69 26.5935C9.37 28.9735 8.05005 32.1435 8.00005 35.4635C7.95005 38.9535 8.28003 41.2936 8.98003 46.4536ZM50.0599 18.2036C51.3099 27.3536 51.3099 36.6435 50.0599 45.7935C49.7599 48.0135 48.0098 49.7635 45.7898 50.0735C41.2398 50.6935 36.6001 51.0135 32.0001 51.0135C27.4001 51.0135 22.76 50.6935 18.2 50.0735C15.98 49.7735 14.24 48.0136 13.94 45.8036L13.92 45.6335C13.47 42.3035 13.1899 40.2635 13.0699 38.3235C13.0399 37.7635 13.4601 37.2936 14.0201 37.2635C17.1301 37.1035 20.2299 36.8235 23.2999 36.4035C29.9699 35.4935 35.2299 30.2236 36.1299 23.5536C36.5599 20.4036 36.8501 17.2235 37.0101 14.0335C37.0401 13.4835 37.5099 13.0536 38.0599 13.0836C40.1799 13.2036 42.3599 13.4836 45.7999 13.9536C48.0099 14.2336 49.7599 15.9836 50.0599 18.2036ZM31.24 13.1736C31.66 13.1436 32.01 13.4936 31.98 13.9236C31.85 15.7636 31.51 20.3235 31.17 22.8735C30.56 27.3235 27.0599 30.8236 22.6199 31.4236C20.0799 31.7736 15.4798 32.1136 13.7898 32.2336C13.4498 32.2536 13.17 31.9735 13.19 31.6335C13.2 31.5035 13.2499 31.3736 13.3499 31.2736L30.7798 13.3835C30.8998 13.2635 31.06 13.1836 31.24 13.1736Z" fill="black"/>
</svg>
