<svg width="64" height="64" viewBox="0 0 64 64" fill="none" xmlns="http://www.w3.org/2000/svg">
<path d="M17.9 25.84C16.34 26.05 13.64 26.23 10.62 26.36C10.2 26.38 9.94001 25.9 10.19 25.56C11.99 23.16 14.66 20 17.59 17.13C20.35 14.42 23.36 11.97 25.71 10.29C26.06 10.04 26.54 10.32 26.49 10.75C26.21 13.78 25.92 16.48 25.71 18.02C25.16 22.08 21.96 25.28 17.9 25.83V25.84ZM54.85 17.53C54.55 15.31 53.52 13.32 52.01 11.81C50.5 10.3 48.52 9.27999 46.29 8.96999C43.77 8.62999 40.9 8.37999 38.03 8.21999C35.5 8.07999 32.96 8.00999 30.66 7.98999C30.14 7.98999 29.71 8.38999 29.66 8.89999C29.5 10.73 29.33 12.5 29.17 14.07C28.98 15.89 28.81 17.43 28.67 18.42C28.3 21.11 27.05 23.52 25.22 25.35C23.39 27.18 20.98 28.43 18.29 28.8C17.21 28.95 15.64 29.08 13.82 29.19C12.28 29.28 10.55 29.36 8.79 29.43C8.25 29.45 7.82 29.89 7.83 30.43C7.85 32.75 7.92001 35.37 8.06001 37.98C8.22001 40.96 8.46001 43.94 8.80001 46.45C9.10001 48.67 10.13 50.66 11.64 52.17C13.15 53.68 15.13 54.7 17.36 55.01C22.16 55.66 26.99 55.99 31.82 55.99C36.65 55.99 41.49 55.66 46.28 55.01C48.5 54.71 50.49 53.68 52 52.17C53.51 50.66 54.53 48.68 54.84 46.45C55.49 41.65 55.82 36.82 55.82 31.99C55.82 27.16 55.49 22.32 54.84 17.53H54.85Z" fill="#231F20"/>
</svg>
