<svg width="64" height="65" viewBox="0 0 64 65" fill="none" xmlns="http://www.w3.org/2000/svg">
<path d="M40.1411 44.6621C40.5611 44.9921 40.6511 45.5921 40.3511 46.0221C36.7211 51.2121 32.7011 56.0021 30.2311 58.1821C29.4911 58.9221 28.2511 58.1621 28.5711 57.1621L32.4911 45.0521C32.5611 44.8421 32.3511 44.6521 32.1511 44.7421C27.9611 46.7421 13.8811 55.2521 14.5911 46.8321C15.9611 41.5921 18.1111 36.2521 20.8011 31.0621C21.0911 30.5121 21.8211 30.3521 22.3111 30.7421L40.1411 44.6621ZM53.0111 45.3821L45.5011 39.5121C45.1111 39.2121 45.0111 38.6721 45.2411 38.2421C50.2211 29.1321 50.6811 22.4021 34.9411 31.4021C34.7511 31.5121 34.5111 31.3421 34.5711 31.1221L41.1111 6.77207C41.3711 5.79207 40.1811 5.08207 39.4511 5.79207C34.5311 10.5921 29.7911 16.4121 25.7111 22.7021C25.3911 23.1921 24.7211 23.3121 24.2611 22.9521L16.6011 16.9721C15.5111 16.1221 13.9411 16.3121 13.0911 17.4021C12.2411 18.4921 12.4311 20.0621 13.5211 20.9121L50.0111 49.4021C50.4711 49.7621 51.0111 49.9321 51.5511 49.9321C52.4111 49.9321 53.2611 49.4921 53.7411 48.6421C54.3611 47.5521 53.9911 46.1621 53.0011 45.3921L53.0111 45.3821Z" fill="black"/>
</svg>
