<svg width="64" height="64" viewBox="0 0 64 64" fill="none" xmlns="http://www.w3.org/2000/svg">
<path d="M23.16 19.23C22.45 20.68 21 21.62 19.39 21.67V21.66L8.46002 22.03C7.85002 22.05 7.36002 21.54 7.42002 20.94C7.64002 18.56 7.95002 16.18 8.35002 13.81C8.49002 12.95 9.19002 12.29 10.06 12.18L19.39 11.02C20.08 10.93 20.77 11.22 21.2 11.77L23.84 15.15C24.36 15.72 24.48 16.55 24.14 17.24L23.96 17.6L23.16 19.23Z" fill="black"/>
<path d="M55.6301 18.91V18.97L55.6501 18.96C57.4401 28.08 57.4401 39.97 55.6501 49.09C55.4901 49.93 54.7901 50.57 53.9401 50.68H53.9101C39.3601 52.54 24.6301 52.54 10.0801 50.68C9.2001 50.57 8.5101 49.89 8.3601 49.03C7.2201 42.24 6.8101 32.86 7.1001 26C7.1201 25.48 7.5501 25.06 8.0701 25.04L19.4901 24.66C22.2201 24.57 24.6601 22.99 25.8601 20.54L27.8801 16.4C28.0401 16.07 28.3701 15.85 28.7401 15.83C37.1901 15.44 45.6601 15.94 54.0101 17.33C54.8201 17.47 55.4601 18.1 55.6301 18.91Z" fill="black"/>
</svg>
