<svg width="64" height="65" viewBox="0 0 64 65" fill="none" xmlns="http://www.w3.org/2000/svg">
<path d="M49.49 27.3838L51.75 13.5438C51.97 12.1838 51.0501 10.8937 49.6901 10.6737C48.3201 10.4437 47.0401 11.3738 46.8201 12.7338L45.6601 19.8238C45.5801 20.3138 44.9701 20.4837 44.6401 20.1137L44.63 20.1038C37 11.6038 23.8901 10.8938 15.3901 18.5138C6.89005 26.1338 6.1801 39.2538 13.8101 47.7538C17.5001 51.8738 22.58 54.3038 28.1 54.6038C28.15 54.6038 28.19 54.6038 28.24 54.6038C29.64 54.6038 30.79 53.4438 30.74 51.9938C30.69 50.6938 29.6001 49.6838 28.3101 49.6038C24.1501 49.3638 20.3201 47.5138 17.5401 44.4138C11.7601 37.9638 12.3 28.0138 18.74 22.2338C25.19 16.4538 35.1401 16.9938 40.9201 23.4338C40.9701 23.4938 41.0201 23.5538 41.0701 23.6038C41.3901 23.9738 41.1301 24.5638 40.6401 24.5738L32.98 24.6938C31.6 24.7138 30.5001 25.8538 30.5201 27.2338C30.5401 28.6038 31.6601 29.6938 33.0201 29.6938C33.0301 29.6938 33.0501 29.6938 33.0601 29.6938L47.0801 29.4738C48.2701 29.4638 49.3 28.5738 49.49 27.3838Z" fill="black"/>
<path d="M40.5 35.3037H33.66C33.43 35.3037 33.23 35.4837 33.23 35.7037V38.4837C33.23 38.7137 33.43 38.8837 33.66 38.8837H36.66V52.5637C36.66 52.7937 36.8401 52.9637 37.0601 52.9637H40.49C40.72 52.9637 40.89 52.7837 40.89 52.5637V35.7037C40.9 35.4737 40.73 35.3037 40.5 35.3037Z" fill="black"/>
<path d="M51.25 35.1038C47.69 35.1038 43.91 37.6237 43.91 44.2137C43.91 50.8237 47.69 53.2938 51.25 53.2938C54.86 53.2938 58.5901 50.8237 58.5901 44.2137C58.5901 37.6237 54.86 35.1038 51.25 35.1038ZM51.25 49.3838C48.85 49.3838 48.02 47.0337 48.02 44.2137C48.02 41.4137 48.85 39.0138 51.25 39.0138C53.67 39.0138 54.5 41.4137 54.5 44.2137C54.5 47.0337 53.67 49.3838 51.25 49.3838Z" fill="black"/>
</svg>
