<svg width="64" height="64" viewBox="0 0 64 64" fill="none" xmlns="http://www.w3.org/2000/svg">
<path d="M32.0001 13C36.6001 13 41.2401 13.31 45.7901 13.94C48.0101 14.24 49.7601 16 50.0701 18.22C51.3201 27.37 51.3201 36.65 50.0701 45.8C49.7701 48.02 48.0101 49.77 45.7901 50.08C41.2401 50.7 36.6001 51.02 32.0001 51.02C27.4001 51.02 22.77 50.71 18.21 50.08C15.99 49.78 14.24 48.02 13.93 45.8C12.68 36.65 12.68 27.37 13.93 18.22C14.23 16 15.99 14.25 18.21 13.94C22.76 13.31 27.4001 13 32.0001 13ZM32.0001 8C27.1701 8 22.3301 8.33 17.5401 8.98C13.0901 9.59 9.59007 13.09 8.99007 17.53C7.68007 27.13 7.68007 36.86 8.99007 46.46C9.60007 50.91 13.1001 54.41 17.5401 55.01C22.3401 55.66 27.1701 55.99 32.0001 55.99C36.8301 55.99 41.67 55.66 46.46 55.01C50.91 54.4 54.4101 50.9 55.0101 46.46C56.3201 36.86 56.3201 27.13 55.0101 17.53C54.4001 13.08 50.9 9.58 46.46 8.98C41.66 8.32 36.8301 8 32.0001 8ZM16.3201 32.01C16.3201 27.85 19.6301 24.76 23.5701 24.76C25.6401 24.76 27.3201 25.54 28.5101 26.81C28.6901 26.97 28.6901 27.17 28.4901 27.39L26.8201 29.16C26.6601 29.34 26.4802 29.34 26.3402 29.2C25.6202 28.6 24.7302 28.2 23.5902 28.2C21.4602 28.2 19.8602 29.81 19.8602 32.01C19.8602 34.22 21.4701 35.8 23.7801 35.8C25.6501 35.8 26.6301 34.82 26.7301 33.75H23.7C23.52 33.75 23.4002 33.63 23.4002 33.45V30.98C23.4002 30.8 23.52 30.68 23.7 30.68H29.8001C29.9801 30.68 30.1002 30.8 30.1002 30.98V32.57C30.1002 36.22 27.6902 39.24 23.6502 39.24C19.6302 39.23 16.3201 36.16 16.3201 32.01ZM32.3802 38.65V25.24C32.3802 25.06 32.5 24.92 32.68 24.92H35.5501C35.7301 24.92 35.8702 25.06 35.8702 25.24V38.65C35.8702 38.83 35.7301 38.97 35.5501 38.97H32.68C32.5 38.97 32.3802 38.83 32.3802 38.65ZM38.7701 38.65V25.24C38.7701 25.06 38.8901 24.92 39.0701 24.92H46.3602C46.5402 24.92 46.68 25.06 46.68 25.24V27.69C46.68 27.87 46.5402 28.01 46.3602 28.01H42.2601V30.28H46.0902C46.2702 30.28 46.41 30.42 46.41 30.6V33.05C46.41 33.23 46.2702 33.37 46.0902 33.37H42.2601V38.65C42.2601 38.83 42.12 38.97 41.94 38.97H39.0701C38.8901 38.97 38.7701 38.83 38.7701 38.65Z" fill="black"/>
</svg>
