<svg width="64" height="64" viewBox="0 0 64 64" fill="none" xmlns="http://www.w3.org/2000/svg">
<path d="M55.0201 17.53C54.4101 13.08 50.92 9.58 46.47 8.98C36.87 7.67 27.1401 7.67 17.5401 8.98C13.0901 9.59 9.59007 13.09 8.99007 17.53C7.68007 27.13 7.68007 36.86 8.99007 46.46C9.60007 50.91 13.1001 54.41 17.5401 55.01C27.1401 56.32 36.87 56.32 46.47 55.01C50.92 54.4 54.4201 50.9 55.0201 46.46C56.3201 36.86 56.3201 27.13 55.0201 17.53ZM29.7801 32.69C29.7801 37.14 26.8402 40.81 21.9202 40.81C17.0302 40.81 12.9901 37.07 12.9901 32C12.9901 26.93 17.0301 23.17 21.8201 23.17C24.3401 23.17 26.4002 24.12 27.8402 25.67C28.0602 25.87 28.0601 26.11 27.8201 26.38L25.7901 28.53C25.5901 28.75 25.37 28.75 25.2 28.58C24.32 27.85 23.2402 27.36 21.8502 27.36C19.2602 27.36 17.3001 29.32 17.3001 32.01C17.3001 34.7 19.2601 36.64 22.0701 36.64C24.3501 36.64 25.5502 35.44 25.6702 34.14H21.97C21.75 34.14 21.6002 33.99 21.6002 33.77V30.76C21.6002 30.54 21.75 30.39 21.97 30.39H29.4102C29.6302 30.39 29.7801 30.54 29.7801 30.76V32.69ZM36.8302 40.11C36.8302 40.33 36.6603 40.5 36.4403 40.5H32.9403C32.7203 40.5 32.5701 40.33 32.5701 40.11V23.76C32.5701 23.54 32.7203 23.37 32.9403 23.37H36.4403C36.6603 23.37 36.8302 23.54 36.8302 23.76V40.11ZM50.0001 26.75C50.0001 26.97 49.8302 27.14 49.6102 27.14H44.6202V29.91H49.2901C49.5101 29.91 49.6803 30.08 49.6803 30.3V33.29C49.6803 33.51 49.5101 33.68 49.2901 33.68H44.6202V40.12C44.6202 40.34 44.4501 40.51 44.2301 40.51H40.7301C40.5101 40.51 40.3602 40.34 40.3602 40.12V23.77C40.3602 23.55 40.5101 23.38 40.7301 23.38H49.6102C49.8302 23.38 50.0001 23.55 50.0001 23.77V26.75Z" fill="black"/>
</svg>
