<svg width="64" height="65" viewBox="0 0 64 65" fill="none" xmlns="http://www.w3.org/2000/svg">
<path d="M32 7.19385C18.19 7.19385 7 18.3838 7 32.1938C7 46.0038 18.19 57.1938 32 57.1938C45.81 57.1938 57 46.0038 57 32.1938C57 18.3838 45.8 7.19385 32 7.19385ZM32 52.1938C20.97 52.1938 12 43.2238 12 32.1938C12 28.7538 12.88 25.5038 14.42 22.6738C14.5 22.6738 14.58 22.6838 14.66 22.6838C15.21 22.6938 15.6801 22.8938 16.0601 23.3038C16.3401 23.6038 16.66 23.8739 16.91 24.2039C17.13 24.4839 17.3301 24.8138 17.4501 25.1438C17.7301 25.8938 17.9501 26.6638 18.2101 27.4238C18.3301 27.7738 18.4901 28.1838 18.9501 28.1238C19.4001 28.0738 19.47 27.6438 19.53 27.2738C19.63 26.7338 19.73 26.1838 20.14 25.7738C20.59 25.3138 21.03 24.8338 21.52 24.4238C22.38 23.7038 23.0001 23.8538 23.5701 24.8338C23.7301 25.1238 23.89 25.4238 24.11 25.6638C24.79 26.3838 25.32 27.2838 26.35 27.6038C26.44 27.6338 26.52 27.7238 26.6 27.7738C26.9 27.9638 27.23 28.0338 27.54 27.8638C27.88 27.6738 28.07 27.3838 28.11 26.9638C28.15 26.4038 27.84 25.9938 27.61 25.5438C27.23 24.8238 27.45 24.3538 28.23 24.1339C28.84 23.9639 29.45 23.7539 30.03 23.5139C30.96 23.1139 31.98 21.7238 31.8 20.4338C31.68 19.6038 31.51 18.7838 31.34 17.9638C31.22 17.3838 31.5001 17.0738 32.0801 17.1738C32.6901 17.2838 32.99 17.7238 33.3 18.1938C33.39 18.3238 33.59 18.3838 33.75 18.4738C33.82 18.3038 33.9201 18.1438 33.9501 17.9638C33.9801 17.7938 33.9101 17.6038 33.9301 17.4338C34.0001 16.7538 34.36 16.2338 34.97 15.9738C35.82 15.6138 36.39 14.9938 36.84 14.2238C36.98 13.9938 37.11 13.7538 37.26 13.5338C37.39 13.3538 37.5201 13.1638 37.6801 13.0038C45.9601 15.4538 52.02 23.1138 52.02 32.1738C52 43.2138 43.02 52.1938 32 52.1938Z" fill="black"/>
<path d="M38.7101 36.7238C38.4701 36.1638 38.03 36.1639 37.72 36.6939C37.35 37.3039 36.73 37.2238 36.36 36.6838C36.27 36.5538 36.2101 36.4238 36.1401 36.2838C35.7801 35.5838 35.27 35.4539 34.6 35.8739C34.3 36.0639 33.9901 36.2739 33.6601 36.3739C33.1801 36.5339 32.7901 36.7938 32.4601 37.1638C32.3101 37.3338 32.1601 37.5139 32.0101 37.6939C31.6401 38.1539 31.13 38.4238 30.6 38.6538C29.9 38.9538 29.4501 39.4639 29.5701 40.2639C29.7101 41.1939 29.91 42.1138 30.1 43.0338C30.23 43.6538 30.5801 43.8739 31.1901 43.6939C31.9301 43.4739 32.6601 43.2039 33.3901 42.9439C34.0401 42.7139 34.6901 42.5939 35.3001 43.0139C36.0301 43.5039 36.7601 43.9938 37.3101 44.7138C38.0401 45.6738 39.7201 45.4838 40.2601 44.4038C40.5001 43.9238 40.7201 43.4338 40.9001 42.9338C41.0601 42.4838 41.1601 42.0138 41.2801 41.5538C41.2101 40.8338 41.0801 40.3838 40.7101 39.8338C40.0301 38.8138 39.2001 37.8838 38.7101 36.7238Z" fill="black"/>
<path d="M30.38 32.1038C30.74 31.5238 30.85 30.8938 30.73 30.2338C30.63 29.6938 30.34 29.5538 29.89 29.8538C29.5 30.1138 29.14 30.4238 28.78 30.7338C28.35 31.1038 28.2501 31.4438 28.4201 31.8838C28.5801 32.2838 29 32.5538 29.48 32.5638C29.91 32.5838 30.16 32.4638 30.38 32.1038Z" fill="black"/>
<path d="M37.2501 18.5337C37.3101 18.4137 37.3401 18.2738 37.3601 18.1338C37.3801 17.9338 37.2402 17.8038 37.0802 17.9238C36.5902 18.2738 36.1201 18.6538 35.6401 19.0138C36.2501 19.2738 37.0101 18.9737 37.2501 18.5337Z" fill="black"/>
<path d="M26.4902 30.7039C26.4302 30.5139 26.4502 30.2838 26.3602 30.1138C26.2702 29.9538 26.0902 29.7739 25.9202 29.7439C25.4002 29.6639 24.8202 30.4839 25.0602 30.9539C25.3402 31.5039 25.6802 32.0338 26.0202 32.5538C26.1102 32.6838 26.2502 32.7939 26.3902 32.8739C26.7302 33.0639 27.0102 32.8939 27.0102 32.4439C27.0002 32.3939 26.9702 32.2839 26.9402 32.1839C26.7902 31.6939 26.6402 31.1939 26.4902 30.7039Z" fill="black"/>
<path d="M36.19 32.3239C35.75 32.4439 35.72 32.5739 36.03 32.9239C36.33 33.2539 36.62 33.5939 36.91 33.9339C37.23 34.3139 37.62 34.5139 38.12 34.4239C38.31 34.3939 38.51 34.3939 38.68 34.3339C38.89 34.2639 39.22 34.1739 39.26 34.0339C39.32 33.8339 39.21 33.5239 39.06 33.3539C38.47 32.6639 37.67 32.3439 36.77 32.2339C36.59 32.2539 36.38 32.2739 36.19 32.3239Z" fill="black"/>
</svg>
