<svg width="65" height="64" viewBox="0 0 65 64" fill="none" xmlns="http://www.w3.org/2000/svg">
<path d="M55.3527 22.75C55.3527 22.74 55.3427 22.73 55.3427 22.71C55.0627 22.01 54.7527 21.33 54.4127 20.66C54.4027 20.64 54.3927 20.62 54.3827 20.61C54.0427 19.95 53.6727 19.3 53.2827 18.67C53.2727 18.66 53.2627 18.64 53.2527 18.63C52.8527 18 52.4228 17.38 51.9628 16.79C47.3928 10.83 40.2027 6.98999 32.1227 6.98999C30.1727 6.98999 28.2728 7.21995 26.4528 7.63995C26.3928 7.64995 26.3227 7.66999 26.2627 7.67999C25.6227 7.82999 24.9927 8.00997 24.3727 8.21997C24.3227 8.23997 24.2727 8.24996 24.2227 8.26996C22.9227 8.69996 21.6727 9.22999 20.4827 9.85999C20.4727 9.85999 20.4628 9.87 20.4528 9.87C19.8528 10.19 19.2728 10.53 18.7128 10.89C18.6928 10.91 18.6627 10.92 18.6427 10.94C11.7227 15.39 7.13269 23.15 7.13269 31.99C7.13269 45.8 18.3227 56.99 32.1327 56.99C45.9427 56.99 57.1327 45.8 57.1327 31.99C57.1227 28.73 56.4827 25.61 55.3527 22.75ZM32.1227 52C31.8227 52 31.5327 51.97 31.2327 51.95C31.2427 51.88 31.2627 51.82 31.2627 51.75C31.3127 50.77 31.7227 49.95 32.0627 49.08C32.4727 48.04 33.1628 47.29 34.0828 46.68C34.5328 46.38 34.8727 45.89 35.2327 45.48C35.5127 45.17 35.7127 44.77 36.0327 44.51C37.2827 43.44 38.1327 42.1 38.6827 40.59C39.0227 39.65 39.5528 38.98 40.4528 38.59C41.5028 38.14 42.1627 37.38 42.3627 36.27C42.6627 34.64 43.0627 33.08 44.0127 31.67C44.4727 30.98 44.2127 30.13 43.5327 29.64C43.0027 29.26 42.4128 28.96 41.8228 28.7C41.0828 28.37 40.3127 28.11 39.5527 27.81C38.7527 27.5 38.1927 26.94 37.8627 26.14C37.5127 25.3 36.8727 24.82 36.0327 24.49C35.4227 24.25 34.8727 23.83 34.3027 23.48C33.7327 23.13 33.2127 22.65 32.5927 22.46C31.6027 22.15 30.5627 21.99 29.5227 21.86C28.2127 21.7 26.6227 23.11 26.8127 24.26C26.9627 25.17 26.5827 25.95 26.1527 26.73C25.3927 28.11 25.2327 29.53 26.0227 30.99C26.3627 31.61 26.6327 32.26 26.9327 32.9C27.2927 33.7 27.6627 34.51 28.4127 35.02C29.6727 35.87 29.9727 37.05 29.7627 38.47C29.6027 39.54 29.5227 40.62 29.3927 41.69C29.2827 42.59 29.2727 43.51 29.0327 44.37C28.6127 45.84 28.3827 47.31 28.4727 48.83C28.5027 49.3 28.3627 49.78 28.2727 50.24C28.1927 50.69 28.1027 51.13 28.0127 51.55C18.9527 49.65 12.1227 41.6 12.1227 31.98C12.1227 26.94 14.0127 22.33 17.1027 18.81C17.7027 19.09 18.3327 19.31 18.9427 19.56C19.5927 19.83 20.2927 20 20.9027 20.33C21.7627 20.79 22.5627 21.35 23.3927 21.86C23.6627 22.03 23.9427 22.16 24.1727 21.8C24.4927 21.3 24.3327 20.24 23.8027 19.96C23.0027 19.53 22.6127 18.92 22.5227 18.03C22.4827 17.53 22.1227 17.4 21.6627 17.62C21.5227 17.69 21.3827 17.78 21.2527 17.86C20.1727 18.53 19.2027 18.23 18.8527 17.05C20.6227 15.48 22.6627 14.21 24.9027 13.34C25.0027 13.37 25.0927 13.32 25.1527 13.25C27.3227 12.44 29.6627 11.98 32.1127 11.98C43.1427 11.98 52.1127 20.95 52.1127 31.98C52.1127 43.01 43.1427 52 32.1227 52Z" fill="black"/>
</svg>
