<svg width="65" height="64" viewBox="0 0 65 64" fill="none" xmlns="http://www.w3.org/2000/svg">
<path d="M41.3427 55.24C41.7927 55.06 42.2426 54.87 42.6826 54.66C42.7226 54.64 42.7726 54.62 42.8126 54.6C43.3126 54.36 43.7926 54.11 44.2726 53.85C44.3226 53.82 44.3726 53.79 44.4126 53.77C44.8626 53.52 45.3027 53.25 45.7327 52.97C45.7627 52.95 45.8026 52.93 45.8326 52.9C46.7826 52.28 47.6726 51.59 48.5326 50.85C48.5426 50.84 48.5526 50.83 48.5726 50.82C53.8126 46.24 57.1227 39.51 57.1227 32C57.1227 19.27 47.6026 8.76996 35.2926 7.20996C35.2026 7.19996 35.1226 7.18999 35.0326 7.17999C34.0726 7.06999 33.1027 7.01001 32.1227 7.01001C24.9327 7.01001 18.4526 10.05 13.8926 14.91L13.8827 14.92C13.3527 15.49 12.8527 16.08 12.3727 16.69L12.3627 16.7C11.8827 17.31 11.4327 17.95 11.0127 18.61C10.5927 19.27 10.2027 19.95 9.84265 20.65C8.10265 24.06 7.11267 27.91 7.11267 32C7.11267 45.81 18.3027 57 32.1127 57C34.6827 57 37.1627 56.61 39.4927 55.89C40.0127 55.73 40.5226 55.55 41.0226 55.36C41.1426 55.32 41.2427 55.28 41.3427 55.24ZM33.7126 12.76C33.8626 12.9 34.0126 13.06 34.0726 13.25C34.1226 13.42 34.1226 13.69 34.0226 13.8C33.9226 13.91 33.6427 13.95 33.4827 13.9C32.6427 13.63 32.0526 12.86 31.8926 12.01C31.9726 12.01 32.0427 12 32.1227 12C32.4827 12 32.8426 12.04 33.2026 12.05C33.3126 12.3 33.4826 12.54 33.7126 12.76ZM30.6227 12.52C30.5027 13.26 30.1127 13.84 29.5027 14.24C29.0227 14.56 28.5926 14.25 28.5626 13.66C28.5426 13.31 28.5126 12.95 28.3926 12.63C28.3626 12.54 28.3126 12.45 28.2726 12.37C29.0126 12.22 29.7726 12.13 30.5426 12.07C30.6226 12.19 30.6527 12.34 30.6227 12.52ZM12.1227 32C12.1227 27.82 13.4227 23.95 15.6227 20.74C15.9527 20.26 16.6326 20.17 17.0726 20.55C17.8626 21.23 18.4826 22.09 19.1426 22.89C19.7026 23.58 20.0426 24.45 20.5726 25.16C21.1126 25.87 21.2927 26.63 21.2327 27.47C21.1127 29.28 21.6426 31.12 22.8926 32.44C23.5726 33.16 24.1127 34.01 24.7327 34.78C24.9227 35.01 25.1726 35.19 25.4126 35.37C25.6726 35.56 26.0026 35.67 26.2126 35.89C26.8026 36.49 27.2827 37.16 27.6127 37.96C27.7827 38.38 28.0726 38.84 28.4426 39.06C29.0926 39.46 29.8426 39.7 30.5526 40C31.0926 40.22 31.6626 40.37 32.1826 40.64C32.8926 41.02 33.5527 41.48 34.2427 41.91C34.4727 42.05 34.7026 42.16 34.8926 41.86C35.1526 41.44 35.0227 40.57 34.5927 40.34C33.9227 39.99 33.6026 39.48 33.5326 38.74C33.4926 38.33 33.2026 38.22 32.8226 38.4C32.7026 38.46 32.5927 38.53 32.4827 38.6C31.5527 39.17 30.7226 38.9 30.4526 37.82C30.3126 37.24 30.3426 36.6 30.4026 35.99C30.5026 35.1 31.0226 34.56 31.9526 34.47C32.2926 34.44 32.6226 34.39 32.9526 34.31C33.8026 34.12 34.5726 34.21 35.2926 34.74C35.5826 34.96 35.7726 34.85 35.8226 34.44C35.9126 33.77 36.1726 33.11 36.6826 32.68C37.1626 32.28 37.4026 31.73 37.6426 31.16C37.9026 30.54 38.3026 29.96 38.6826 29.4C38.9326 29.04 39.2926 28.76 39.5526 28.4C39.9026 27.92 40.3726 27.71 40.9426 27.65C41.0126 27.64 41.0926 27.64 41.1626 27.62C41.7726 27.47 41.9226 27.17 41.7026 26.58C41.6126 26.35 41.5126 26.13 41.4526 25.89C41.3426 25.47 41.5627 25.06 41.9727 24.94C42.2927 24.84 42.6126 24.77 42.9426 24.73C43.4026 24.67 43.6326 24.86 43.7926 25.31C43.8526 25.5 43.9426 25.73 44.0927 25.83C44.2327 25.93 44.5226 25.96 44.6426 25.87C44.7526 25.79 44.7627 25.52 44.7627 25.33C44.7627 25.24 44.6427 25.16 44.6127 25.07C44.5027 24.7 44.3226 24.33 44.3326 23.95C44.3426 23.47 44.2127 22.99 43.8527 22.67C43.1427 22.05 42.5826 21.33 42.1526 20.49C41.9226 20.04 41.5127 19.86 41.0027 19.96C40.5827 20.05 40.1426 19.9 39.9026 19.55C39.7726 19.36 39.6526 19.17 39.5226 18.99C39.1926 18.51 38.7626 18.18 38.1626 18.09C37.6926 18.02 37.2227 18.26 37.1227 18.7C37.0427 19.08 36.9726 19.5 37.0526 19.88C37.2426 20.8 37.3227 21.67 36.7627 22.5C36.6927 22.61 36.6927 22.76 36.6127 22.87C36.4827 23.05 36.3326 23.33 36.1726 23.35C36.0026 23.37 35.7427 23.16 35.6327 22.99C35.2927 22.47 34.8426 22.14 34.2926 21.89C33.6426 21.59 33.0027 21.26 32.3827 20.9C31.5827 20.42 31.1026 19.6 31.6726 18.4C32.1526 17.4 33.2826 16.99 34.3926 17.09C34.8726 17.13 35.1327 16.85 35.1127 16.31C35.1027 16.07 35.1126 15.81 35.1826 15.57C35.3426 15.03 35.5527 14.5 35.7327 13.97C35.9627 13.27 36.6526 13 37.2126 13.47C37.4726 13.69 37.6426 14.03 37.9026 14.25C38.4326 14.72 38.5526 15.21 38.1926 15.85C38.0826 16.05 38.0726 16.48 38.2026 16.61C38.6326 17.04 39.1126 17.46 39.6426 17.74C40.4326 18.15 41.1126 17.78 41.1826 16.89C41.2126 16.49 41.3526 16.17 41.6826 15.91C42.0726 15.59 42.0827 15.25 41.7427 14.88C41.6127 14.74 41.4526 14.63 41.3226 14.49C41.2026 14.36 41.0726 14.23 40.9426 14.1C47.5526 17.37 52.1227 24.16 52.1227 32.02C52.1227 37.42 49.9627 42.31 46.4827 45.91C46.4127 45.8 46.3426 45.68 46.2826 45.56C45.9826 44.9 45.4826 44.36 44.8026 44.12C44.2626 43.93 43.7926 43.56 43.2926 43.26C42.8226 42.97 42.3827 42.57 41.8727 42.42C41.0527 42.17 40.1826 42.03 39.3326 41.92C38.2426 41.78 36.9226 42.95 37.0826 43.91C37.2026 44.66 36.8926 45.31 36.5326 45.95C35.9026 47.09 35.7726 48.27 36.4226 49.47C36.7026 49.98 36.9326 50.52 37.1726 51.06C37.2126 51.15 37.2526 51.23 37.2926 51.32C35.6326 51.77 33.9027 52.03 32.1027 52.03C21.1027 52 12.1227 43.02 12.1227 32Z" fill="black"/>
</svg>
