<svg width="65" height="65" viewBox="0 0 65 65" fill="none" xmlns="http://www.w3.org/2000/svg">
<path d="M32.1227 7.00391C18.3127 7.00391 7.12268 18.1939 7.12268 32.0039C7.12268 45.8139 18.3127 57.0039 32.1227 57.0039C45.9327 57.0039 57.1227 45.8139 57.1227 32.0039C57.1227 18.1939 45.9327 7.00391 32.1227 7.00391ZM45.3326 17.0139C44.6026 17.1139 43.8726 17.0039 43.1526 16.9239C42.8826 16.8939 42.6027 16.7839 42.3827 16.6239C41.9227 16.3039 41.4427 16.1539 40.8827 16.1339C40.4427 16.1139 39.9626 15.9939 39.5726 15.7939C38.9426 15.4639 38.2827 15.2839 37.5927 15.1339C37.1327 15.0339 36.7826 15.1839 36.3926 15.3739C36.0126 15.5639 35.6026 15.7139 35.1926 15.8139C34.8726 15.8939 34.5326 15.8839 34.2026 15.9139C33.7426 15.9539 33.4226 15.7539 33.1926 15.3539C32.7526 14.5939 32.4126 14.4739 31.5326 14.6539C31.1826 14.7239 30.8127 14.7639 30.4727 14.7239C29.9927 14.6639 29.5326 14.5239 29.0626 14.4139C28.4526 14.2639 28.3427 14.1039 28.3727 13.4639C28.4027 12.9439 28.2126 12.6439 27.8126 12.4539C29.2026 12.1439 30.6427 11.9739 32.1327 11.9739C37.1827 12.0039 41.8026 13.9039 45.3326 17.0139ZM37.8926 51.1439C37.8726 51.1039 37.8526 51.0739 37.8326 51.0339C37.5926 50.4739 37.1527 50.4739 36.8427 51.0039C36.4727 51.6139 35.8527 51.5339 35.4827 50.9939C35.3927 50.8639 35.3326 50.7339 35.2626 50.5939C34.9026 49.8939 34.3927 49.7639 33.7227 50.1839C33.4227 50.3739 33.1126 50.5839 32.7826 50.6839C32.3026 50.8439 31.9126 51.1039 31.5826 51.4739C31.4526 51.6239 31.3226 51.7839 31.1926 51.9339C22.2926 51.5139 14.9026 45.2739 12.7726 36.9239C12.8026 36.9239 12.8327 36.9239 12.8627 36.9239C13.1727 36.9339 13.4726 36.9639 13.7826 36.9739C14.3326 36.9839 14.8026 37.1839 15.1826 37.5939C15.4626 37.8939 15.7826 38.1639 16.0326 38.4939C16.2526 38.7739 16.4526 39.1039 16.5726 39.4339C16.8526 40.1839 17.0726 40.9539 17.3326 41.7139C17.4526 42.0639 17.6126 42.4739 18.0726 42.4139C18.5226 42.3639 18.5926 41.9339 18.6526 41.5639C18.7526 41.0239 18.8526 40.4739 19.2626 40.0639C19.7126 39.6039 20.1526 39.1239 20.6426 38.7139C21.5026 37.9939 22.1226 38.1439 22.6926 39.1239C22.8526 39.4139 23.0127 39.7139 23.2327 39.9539C23.9127 40.6739 24.4427 41.5739 25.4727 41.8939C25.5627 41.9239 25.6427 42.0139 25.7227 42.0639C26.0227 42.2539 26.3526 42.3239 26.6626 42.1539C27.0026 41.9639 27.1927 41.6739 27.2327 41.2539C27.2727 40.6939 26.9627 40.2839 26.7327 39.8339C26.3527 39.1139 26.5727 38.6439 27.3527 38.4239C27.9627 38.2539 28.5726 38.0439 29.1526 37.8039C30.0826 37.4039 31.1026 36.0139 30.9226 34.7239C30.8026 33.8939 30.6326 33.0739 30.4626 32.2539C30.3426 31.6739 30.6226 31.3639 31.2026 31.4639C31.8126 31.5739 32.1126 32.0139 32.4226 32.4839C32.5126 32.6139 32.7127 32.6739 32.8727 32.7639C32.9427 32.5939 33.0426 32.4339 33.0726 32.2539C33.1026 32.0839 33.0326 31.8939 33.0526 31.7239C33.1226 31.0439 33.4827 30.5239 34.0927 30.2639C34.9427 29.9039 35.5126 29.2839 35.9626 28.5139C36.1026 28.2839 36.2327 28.0439 36.3827 27.8239C36.5527 27.5839 36.7126 27.3139 36.9426 27.1539C37.6226 26.6639 37.3626 25.8639 36.8026 25.5339C36.5626 25.3939 36.2926 25.3039 36.0526 25.1639C35.7226 24.9839 35.5826 24.6639 35.7626 24.3539C36.2026 23.6439 36.7227 22.9439 37.6027 22.7739C38.2727 22.6439 38.9726 22.6339 39.6626 22.6339C40.1526 22.6339 40.5626 22.5439 40.9126 22.1839C41.1126 21.9739 41.3627 21.7939 41.6127 21.6639C41.9627 21.4939 42.4527 21.6239 42.6127 21.9039C42.8227 22.2539 42.6027 22.5139 42.3727 22.7439C42.1427 22.9739 41.9026 23.1839 41.6826 23.4139C41.1726 23.9739 40.9826 24.6239 41.2026 25.3639C41.3426 25.8339 41.7226 25.9539 42.0726 25.6239C42.6326 25.0939 43.0527 24.4839 43.1227 23.6839C43.2227 22.6539 43.4126 22.3639 44.4326 22.1939C45.3126 22.0439 46.0727 21.6839 46.8427 21.2839C47.3827 21.0039 47.7827 20.6739 47.9927 20.0839C48.0127 20.0239 48.0526 19.9939 48.0726 19.9439C50.6026 23.2939 52.1227 27.4439 52.1227 31.9639C52.1227 41.0239 46.1126 48.6639 37.8926 51.1439Z" fill="black"/>
<path d="M29.0126 44.1639C28.6226 44.4239 28.2626 44.7339 27.9026 45.0439C27.4726 45.4139 27.3726 45.7539 27.5426 46.1939C27.7026 46.5939 28.1227 46.8639 28.6027 46.8739C29.0327 46.8839 29.2827 46.7739 29.5027 46.4039C29.8627 45.8239 29.9727 45.1939 29.8527 44.5339C29.7627 44.0039 29.4726 43.8639 29.0126 44.1639Z" fill="black"/>
<path d="M25.6227 45.0139C25.5627 44.8239 25.5827 44.5939 25.4927 44.4239C25.4027 44.2639 25.2227 44.0839 25.0527 44.0539C24.5327 43.9739 23.9527 44.7939 24.1927 45.2639C24.4727 45.8139 24.8126 46.3439 25.1526 46.8639C25.2426 46.9939 25.3826 47.1039 25.5226 47.1839C25.8626 47.3739 26.1426 47.2039 26.1426 46.7539C26.1326 46.7039 26.1027 46.5939 26.0727 46.4939C25.9227 46.0039 25.7627 45.5039 25.6227 45.0139Z" fill="black"/>
<path d="M36.3827 32.8438C36.4427 32.7238 36.4727 32.5838 36.4927 32.4438C36.5127 32.2438 36.3726 32.1138 36.2126 32.2338C35.7226 32.5838 35.2526 32.9638 34.7726 33.3238C35.3726 33.5838 36.1427 33.2838 36.3827 32.8438Z" fill="black"/>
<path d="M35.9126 46.5339C35.7126 46.5639 35.5126 46.584 35.3126 46.634C34.8726 46.754 34.8425 46.8839 35.1525 47.2339C35.4525 47.5639 35.7425 47.904 36.0325 48.244C36.3525 48.624 36.7426 48.8239 37.2426 48.7339C37.4326 48.7039 37.6326 48.7039 37.8026 48.6439C38.0126 48.5739 38.3426 48.4839 38.3826 48.3439C38.4426 48.1439 38.3326 47.8339 38.1826 47.6639C37.6126 46.9639 36.8126 46.6439 35.9126 46.5339Z" fill="black"/>
</svg>
