<svg width="64" height="65" viewBox="0 0 64 65" fill="none" xmlns="http://www.w3.org/2000/svg">
<path d="M32 7.00391C18.19 7.00391 7 18.1939 7 32.0039C7 45.8139 18.19 57.0039 32 57.0039C45.81 57.0039 57 45.8139 57 32.0039C57 18.1939 45.81 7.00391 32 7.00391ZM12 32.0039C12 20.9739 20.97 12.0039 32 12.0039C35.21 12.0039 38.2399 12.7839 40.9399 14.1339C40.9999 14.2539 41.06 14.3539 41.15 14.4039C41.26 14.4539 41.3599 14.4339 41.4299 14.3739C42.1699 14.7739 42.87 15.2239 43.55 15.7039C43.28 15.7439 43.01 15.8239 42.75 15.9439C42.35 16.1239 41.8699 16.1339 41.4299 16.2239C40.8999 16.3339 40.37 16.4539 39.84 16.5839C39.46 16.6839 39.1 16.8139 38.73 16.9239C38.53 16.9839 38.33 17.0139 38.14 17.0939C37.61 17.3139 37.4699 17.3039 37.0699 16.8839C36.6399 16.4239 36.13 16.1139 35.54 15.8939C35.05 15.7139 34.57 15.5239 34.12 15.2639C33.51 14.9139 32.89 14.7839 32.21 14.9639C30.9 15.3039 29.75 15.8339 29.05 17.1139C28.67 17.8139 28.1 18.4239 27.59 19.0439C27.37 19.3139 27.0499 19.5039 26.8099 19.7539C26.4099 20.1739 26.35 20.6839 26.54 21.2139C26.69 21.6439 27.03 21.8239 27.49 21.8339C27.64 21.8339 27.8399 21.8739 27.9299 21.9739C28.0899 22.1539 28.24 22.3839 28.29 22.6239C28.31 22.7139 28.0599 22.8739 27.9299 22.9939C27.7999 23.1139 27.58 23.1939 27.53 23.3439C27.29 23.9739 26.79 24.3439 26.28 24.7139C25.68 25.1639 25.38 25.1139 25 24.4539C24.67 23.8839 24.38 23.2839 24.03 22.7139C23.93 22.5539 23.7 22.4039 23.52 22.3839C23.4 22.3739 23.19 22.5939 23.14 22.7439C22.98 23.1839 22.77 23.5739 22.37 23.8439C22.26 23.9139 22.19 24.0739 22.15 24.2039C22.07 24.4639 22.26 24.6839 22.53 24.6439C22.66 24.6239 22.79 24.5439 22.91 24.4639C23.25 24.2539 23.38 24.2839 23.49 24.6539C23.61 25.0639 23.83 25.3639 24.16 25.6339C24.29 25.7339 24.4 26.0439 24.34 26.1539C24.05 26.6539 24.09 27.1239 24.28 27.6439C24.46 28.1439 24.19 28.5339 23.67 28.6639C23.52 28.7039 23.36 28.7239 23.21 28.7439C22.66 28.8039 22.33 29.0339 22.22 29.4839C22.04 30.2039 22.07 30.8739 22.62 31.4539C23.02 31.8839 22.99 32.1039 22.64 32.5939C22.42 32.9039 22.16 33.1939 22.02 33.5439C21.75 34.2039 21.31 34.7139 20.87 35.2539C20.17 36.1139 19.67 37.0639 19.88 38.2339C19.92 38.4439 19.88 38.6739 19.86 38.8939C19.8 39.6339 19.72 40.3839 20.22 41.0339C20.5 41.3939 20.72 41.8039 21.02 42.1539C21.44 42.6539 21.88 43.2039 22.59 43.2239C23.28 43.2439 23.99 43.2339 24.65 43.0539C25.46 42.8339 26.14 42.9239 26.85 43.3239C27.43 43.6539 27.7299 44.0839 27.6899 44.7339C27.6599 45.3239 27.84 45.8239 28.13 46.3239C28.78 47.4139 29.09 48.5639 28.64 49.8239C28.42 50.4439 28.42 51.0639 28.61 51.6739C19.19 50.0739 12 41.8639 12 32.0039ZM40.45 35.0439C40.7999 35.2139 41.13 35.4239 41.47 35.6139C41.6 35.6839 41.74 35.7639 41.87 35.8439C40.93 36.2839 40.3599 36.1139 40.0599 35.4539C39.9999 35.3239 40.03 35.1639 40.02 35.0139C40.16 35.0139 40.33 34.9839 40.45 35.0439ZM39.75 30.6339C39.61 30.0839 39.4499 29.5339 39.3099 28.9839C39.2199 28.6139 39.16 28.2139 39.47 27.9239C39.62 27.7839 39.8899 27.6639 40.0699 27.7039C40.1999 27.7339 40.29 28.0339 40.35 28.2339C40.46 28.5639 40.54 28.9039 40.64 29.2339C40.75 29.6139 40.87 29.9939 40.98 30.3739C40.95 30.3839 40.93 30.3939 40.9 30.3939C40.9 30.4339 40.9 30.4739 40.9 30.5139C40.9 30.9839 40.73 31.2539 40.41 31.2739C40.13 31.2939 39.86 31.0339 39.75 30.6339ZM31.42 18.7839C31.44 18.7739 31.47 18.7839 31.49 18.7939C31.5 18.8139 31.52 18.8439 31.51 18.8639C31.17 19.6639 31.29 20.4039 31.75 21.1339C31.98 21.5039 31.9 21.9139 31.66 22.2839C31.5 22.5239 31.3099 22.7439 31.1799 23.0039C30.7699 23.7939 29.81 23.8639 29.23 23.7639C29.08 23.7439 28.9499 23.5539 28.8199 23.4539C28.9199 23.3339 29.01 23.1939 29.14 23.1139C29.83 22.6539 30.05 21.9339 30.2 21.1839C30.22 21.1039 30.22 21.0239 30.2 20.9439C29.99 19.8739 30.64 19.2839 31.42 18.7839ZM29.23 29.1239C29.3 28.8539 29.49 28.8039 29.67 28.9339C30 29.1839 30.3 29.4639 30.58 29.7739C30.77 29.9839 30.86 30.2739 31.03 30.5039C31.27 30.8339 31.49 30.8639 31.83 30.6439C32.39 30.2839 32.56 30.2939 32.9 30.8639C33.28 31.5139 33.9099 31.6239 34.5599 31.7339C35.1999 31.8339 35.48 32.0739 35.49 32.4939C35.5 33.0239 35.06 33.5239 34.53 33.6239C33.83 33.7639 33.15 33.7139 32.49 33.4739C31.88 33.2539 31.32 33.2539 30.73 33.5639C30.5 33.6839 30.12 33.6939 29.88 33.5939C29.1 33.2539 28.29 32.9439 27.96 32.0139C27.76 31.4639 27.22 31.4639 26.71 31.4239C26.07 31.5439 25.44 31.6739 24.79 31.7739C24.62 31.8039 24.45 31.7339 24.27 31.7139C24.31 31.5539 24.32 31.3839 24.4 31.2539C24.82 30.6139 25.21 29.9339 25.72 29.3739C26.41 28.5939 27.4 28.5439 28.26 29.1239C28.39 29.2139 28.52 29.3039 28.66 29.3739C29.03 29.5839 29.13 29.5439 29.23 29.1239ZM36.1799 28.0739C36.3899 28.2439 36.55 28.4739 36.72 28.6839C36.9 28.9039 37.05 29.2139 36.84 29.4239C36.68 29.5839 36.36 29.6539 36.11 29.6539C35.67 29.6539 35.24 29.5539 34.8 29.5339C34.58 29.5239 34.36 29.6039 34.14 29.6039C33.6 29.6039 33.33 29.2339 33.49 28.7139C33.66 28.1239 34.03 27.7939 34.51 27.8139C34.88 27.8139 35.26 27.7839 35.63 27.8239C35.82 27.8539 36.0299 27.9539 36.1799 28.0739ZM35.76 18.0439C35.86 17.9839 35.9499 17.8839 36.0599 17.8739C36.1399 17.8639 36.22 17.9839 36.37 18.0939C36.19 18.1939 36.08 18.2939 35.99 18.2839C35.91 18.2739 35.84 18.1339 35.76 18.0439ZM35.86 36.3139C35.99 36.4339 36.1 36.5039 36.16 36.6039C36.55 37.2539 36.94 37.9039 37.29 38.5739C37.42 38.8139 37.65 39.1739 37.28 39.3639C36.95 39.5339 36.74 39.1839 36.65 38.9339C36.35 38.1439 36.0899 37.3439 35.8199 36.5439C35.7999 36.4939 35.83 36.4439 35.86 36.3139ZM39.75 50.4339C39.7 50.3439 39.65 50.2639 39.59 50.2339C39.44 50.1639 39.19 50.2439 39.01 50.3139C38.75 50.4239 38.57 50.6539 38.42 50.9239C37.58 51.2139 36.72 51.4539 35.83 51.6239C36.02 51.3939 36.25 51.1939 36.46 50.9839C36.74 50.6939 37 50.3939 36.99 49.9739C36.97 49.4339 36.96 48.8839 36.85 48.3539C36.59 47.2039 36.7399 46.1839 37.5599 45.2939C37.9399 44.8839 38.34 44.4739 38.72 44.0639C39.27 43.4739 39.68 42.8039 39.92 42.0339C40.08 41.5239 39.9 41.2239 39.38 41.1239C39.28 41.1039 39.1699 41.1039 39.0699 41.0539C38.8899 40.9739 38.7299 40.8739 38.5599 40.7839C38.6799 40.6239 38.79 40.4539 38.92 40.3139C38.99 40.2439 39.0999 40.2139 39.1899 40.1639C39.9999 39.6739 40.86 39.2339 41.62 38.6639C42.53 37.9839 42.9 37.1339 42.1 36.1939C42.07 36.1539 42.06 36.1039 41.99 35.9439C42.39 35.9439 42.71 35.9339 43.04 35.9439C43.35 35.9539 43.67 35.9839 43.98 35.9939C44.54 36.0139 45.02 36.2039 45.41 36.6239C45.7 36.9339 46.02 37.2139 46.27 37.5439C46.5 37.8339 46.7 38.1639 46.83 38.5039C47.12 39.2739 47.34 40.0539 47.61 40.8339C47.74 41.1939 47.9 41.6039 48.36 41.5539C48.82 41.5039 48.89 41.0639 48.96 40.6839C49.06 40.1239 49.16 39.5739 49.58 39.1539C50.04 38.6839 50.48 38.1939 50.99 37.7839C51.06 37.7239 51.1199 37.6839 51.1799 37.6439C49.4799 43.4139 45.24 48.1139 39.75 50.4339Z" fill="black"/>
<path d="M20.18 18.4838C20.3 18.2138 20.25 17.9539 19.96 17.8239C19.8 17.7539 19.6101 17.7338 19.4001 17.6838C19.1401 17.7438 18.85 17.7938 18.59 17.8938C18.18 18.0538 18.1101 18.4138 18.4101 18.7338C18.8401 19.2038 19.92 19.0638 20.18 18.4838Z" fill="black"/>
</svg>
