<svg width="64" height="65" viewBox="0 0 64 65" fill="none" xmlns="http://www.w3.org/2000/svg">
<path d="M32 36.0038C34.2091 36.0038 36 34.2129 36 32.0038C36 29.7946 34.2091 28.0038 32 28.0038C29.7909 28.0038 28 29.7946 28 32.0038C28 34.2129 29.7909 36.0038 32 36.0038Z" fill="black"/>
<path d="M32 21.0038C34.2091 21.0038 36 19.2129 36 17.0038C36 14.7946 34.2091 13.0038 32 13.0038C29.7909 13.0038 28 14.7946 28 17.0038C28 19.2129 29.7909 21.0038 32 21.0038Z" fill="black"/>
<path d="M32 51.0038C34.2091 51.0038 36 49.2129 36 47.0038C36 44.7946 34.2091 43.0038 32 43.0038C29.7909 43.0038 28 44.7946 28 47.0038C28 49.2129 29.7909 51.0038 32 51.0038Z" fill="black"/>
<path d="M17 36.0038C19.2091 36.0038 21 34.2129 21 32.0038C21 29.7946 19.2091 28.0038 17 28.0038C14.7909 28.0038 13 29.7946 13 32.0038C13 34.2129 14.7909 36.0038 17 36.0038Z" fill="black"/>
<path d="M17.5 21.5038C19.7091 21.5038 21.5 19.7129 21.5 17.5038C21.5 15.2946 19.7091 13.5038 17.5 13.5038C15.2909 13.5038 13.5 15.2946 13.5 17.5038C13.5 19.7129 15.2909 21.5038 17.5 21.5038Z" fill="black"/>
<path d="M17.5 50.5038C19.7091 50.5038 21.5 48.7129 21.5 46.5038C21.5 44.2946 19.7091 42.5038 17.5 42.5038C15.2909 42.5038 13.5 44.2946 13.5 46.5038C13.5 48.7129 15.2909 50.5038 17.5 50.5038Z" fill="black"/>
<path d="M47 36.0038C49.2091 36.0038 51 34.2129 51 32.0038C51 29.7946 49.2091 28.0038 47 28.0038C44.7909 28.0038 43 29.7946 43 32.0038C43 34.2129 44.7909 36.0038 47 36.0038Z" fill="black"/>
<path d="M46.5 21.5038C48.7091 21.5038 50.5 19.7129 50.5 17.5038C50.5 15.2946 48.7091 13.5038 46.5 13.5038C44.2909 13.5038 42.5 15.2946 42.5 17.5038C42.5 19.7129 44.2909 21.5038 46.5 21.5038Z" fill="black"/>
<path d="M46.5 50.5038C48.7091 50.5038 50.5 48.7129 50.5 46.5038C50.5 44.2946 48.7091 42.5038 46.5 42.5038C44.2909 42.5038 42.5 44.2946 42.5 46.5038C42.5 48.7129 44.2909 50.5038 46.5 50.5038Z" fill="black"/>
</svg>
