<svg width="65" height="64" viewBox="0 0 65 64" fill="none" xmlns="http://www.w3.org/2000/svg">
<path d="M35.5228 49.9403L33.0529 52.4102C30.8729 54.5902 27.4228 54.5902 25.2328 52.4102L8.69288 35.8703C3.33288 30.4203 2.7829 21.0602 7.9629 15.3302C13.2329 9.51023 22.1429 9.06027 28.0429 13.8803C28.6829 14.4303 29.5828 14.4303 30.2228 13.8803C36.1328 8.97028 44.9429 9.52023 50.3029 15.3302C53.3529 18.6502 54.4428 23.1802 53.7728 27.4702C51.8928 26.6202 49.8128 26.1303 47.6228 26.1303C39.3528 26.1303 32.6228 32.8603 32.6228 41.1303C32.6428 44.4303 33.7228 47.4703 35.5228 49.9403ZM59.6428 41.1303C59.6428 47.7503 54.2628 53.1303 47.6428 53.1303C41.0228 53.1303 35.6428 47.7503 35.6428 41.1303C35.6428 34.5103 41.0228 29.1303 47.6428 29.1303C54.2628 29.1303 59.6428 34.5203 59.6428 41.1303ZM54.6428 41.2702C54.6428 40.4402 53.9728 39.7702 53.1428 39.7702H49.1428V35.7702C49.1428 34.9402 48.4728 34.2702 47.6428 34.2702C46.8128 34.2702 46.1428 34.9402 46.1428 35.7702V39.7702H42.1428C41.3128 39.7702 40.6428 40.4402 40.6428 41.2702C40.6428 42.1002 41.3128 42.7702 42.1428 42.7702H46.1428V46.7702C46.1428 47.6002 46.8128 48.2702 47.6428 48.2702C48.4728 48.2702 49.1428 47.6002 49.1428 46.7702V42.7702H53.1428C53.9728 42.7702 54.6428 42.1002 54.6428 41.2702Z" fill="black"/>
</svg>
