<svg width="65" height="64" viewBox="0 0 65 64" fill="none" xmlns="http://www.w3.org/2000/svg">
<path d="M35.5227 49.9403L33.0526 52.4102C30.8726 54.5902 27.4227 54.5902 25.2327 52.4102L8.69263 35.8703C3.33263 30.4203 2.78265 21.0602 7.96265 15.3302C13.2327 9.51023 22.1427 9.06027 28.0427 13.8803C28.6827 14.4303 29.5827 14.4303 30.2227 13.8803C36.1327 8.97028 44.9426 9.52023 50.3026 15.3302C53.3526 18.6502 54.4427 23.1802 53.7727 27.4702C51.8927 26.6202 49.8127 26.1303 47.6227 26.1303C39.3527 26.1303 32.6227 32.8603 32.6227 41.1303C32.6327 44.4303 33.7127 47.4703 35.5227 49.9403ZM59.6327 41.1303C59.6327 47.7503 54.2527 53.1303 47.6327 53.1303C41.0127 53.1303 35.6327 47.7503 35.6327 41.1303C35.6327 34.5103 41.0127 29.1303 47.6327 29.1303C54.2527 29.1303 59.6327 34.5203 59.6327 41.1303ZM54.6327 41.2702C54.6327 40.4402 53.9627 39.7702 53.1327 39.7702H42.1327C41.3027 39.7702 40.6327 40.4402 40.6327 41.2702C40.6327 42.1002 41.3027 42.7702 42.1327 42.7702H53.1327C53.9627 42.7702 54.6327 42.1002 54.6327 41.2702Z" fill="black"/>
</svg>
