<svg width="64" height="64" viewBox="0 0 64 64" fill="none" xmlns="http://www.w3.org/2000/svg">
<path d="M32 12C43.03 12 52 20.97 52 32C52 43.03 43.03 52 32 52C20.97 52 12 43.03 12 32C12 20.97 20.97 12 32 12ZM32 7C18.19 7 7 18.19 7 32C7 45.81 18.19 57 32 57C45.81 57 57 45.81 57 32C57 18.19 45.81 7 32 7ZM29.52 33.63C30.28 29.59 34.02 29.45 34.22 26.71C34.32 25.32 33.19 24.12 31.8 24.04C30.56 23.96 29.72 24.52 29.12 25.25C29.11 25.26 29.1 25.28 29.09 25.29C28.22 26.41 26.67 26.75 25.46 26.01C24.2 25.24 23.74 23.6 24.49 22.34C24.58 22.19 24.67 22.04 24.78 21.89C26.35 19.65 28.93 18.15 32.33 18.15C36.26 18.15 39.67 20.37 39.67 25.29C39.67 29.77 36.23 30.99 34.99 34.07C34.85 34.41 34.76 34.8 34.69 35.19C34.48 36.47 33.37 37.41 32.07 37.41C30.5 37.41 29.29 36.07 29.41 34.51C29.43 34.21 29.47 33.92 29.52 33.64V33.63ZM32.08 39.63C34.06 39.63 35.61 41.26 35.61 43.24C35.61 45.22 34.06 46.77 32.08 46.77C30.1 46.77 28.55 45.18 28.55 43.24C28.55 41.3 30.1 39.63 32.08 39.63Z" fill="black"/>
</svg>
