<svg width="64" height="65" viewBox="0 0 64 65" fill="none" xmlns="http://www.w3.org/2000/svg">
<path d="M32 7C18.19 7 7 18.19 7 32C7 45.81 18.19 57 32 57C45.81 57 57 45.81 57 32C57 18.19 45.81 7 32 7ZM32.08 46.78C30.09 46.78 28.55 45.19 28.55 43.25C28.55 41.31 30.1 39.64 32.08 39.64C34.06 39.64 35.61 41.27 35.61 43.25C35.61 45.23 34.06 46.78 32.08 46.78ZM35.09 34.08C34.95 34.42 34.86 34.81 34.79 35.2C34.58 36.48 33.47 37.42 32.17 37.42C30.6 37.42 29.39 36.08 29.51 34.52C29.53 34.22 29.57 33.93 29.62 33.65C30.38 29.61 34.12 29.47 34.32 26.73C34.42 25.34 33.29 24.14 31.9 24.06C30.66 23.98 29.82 24.54 29.22 25.27C29.21 25.28 29.2 25.3 29.19 25.31C28.32 26.43 26.77 26.77 25.56 26.03C24.3 25.26 23.84 23.62 24.59 22.36C24.68 22.21 24.77 22.06 24.88 21.91C26.45 19.67 29.03 18.17 32.43 18.17C36.36 18.17 39.77 20.39 39.77 25.31C39.77 29.79 36.33 31.01 35.09 34.09V34.08Z" fill="black"/>
</svg>
