<svg width="64" height="65" viewBox="0 0 64 65" fill="none" xmlns="http://www.w3.org/2000/svg">
<path d="M48.64 17.7038C44.68 13.8338 39.4201 11.7638 33.9301 11.8038C22.5101 11.9338 13.33 21.3238 13.45 32.7338C13.46 33.2638 13.5001 33.8038 13.5501 34.3338L8.75003 30.5638C7.67003 29.7138 6.09003 29.8938 5.24003 30.9838C4.39003 32.0638 4.57007 33.6438 5.66007 34.4938L14.8001 41.6838C15.2501 42.0438 15.8 42.2238 16.35 42.2238C16.94 42.2238 17.54 42.0138 18.01 41.5938L26.7 33.8638C27.73 32.9438 27.8201 31.3638 26.9101 30.3338C25.9901 29.3038 24.41 29.2138 23.38 30.1238L18.5501 34.4238C18.5501 34.3638 18.5501 34.3138 18.5501 34.2538C18.4901 33.7338 18.46 33.2038 18.46 32.6838C18.37 24.0238 25.33 16.9038 33.99 16.8038C38.23 16.7338 42.1501 18.3438 45.1501 21.2838C48.1501 24.2138 49.83 28.1438 49.87 32.3438C49.92 36.5438 48.33 40.5038 45.39 43.5038C42.46 46.5038 38.53 48.1838 34.33 48.2238C30.57 48.3038 26.95 46.9638 24.09 44.5738C23.03 43.6938 21.45 43.8238 20.57 44.8838C19.68 45.9438 19.82 47.5238 20.88 48.4038C24.6 51.5138 29.3101 53.2238 34.1601 53.2238C34.2401 53.2238 34.31 53.2238 34.39 53.2238C39.92 53.1638 45.1 50.9538 48.97 46.9938C52.84 43.0438 54.93 37.8138 54.87 32.2838C54.81 26.7538 52.6 21.5638 48.64 17.7038Z" fill="black"/>
<path d="M33.66 20.8239C32.28 20.8239 31.16 21.9439 31.16 23.3239V31.3138C31.16 32.8038 31.7 34.2438 32.64 35.3438L37.97 41.7038C38.47 42.2938 39.17 42.5938 39.89 42.5938C40.46 42.5938 41.03 42.4039 41.49 42.0139C42.55 41.1239 42.69 39.5538 41.8 38.4938L36.45 32.1039C36.26 31.8839 36.16 31.6038 36.16 31.3138V23.3239C36.16 21.9339 35.04 20.8239 33.66 20.8239Z" fill="black"/>
</svg>
