<svg width="52" height="45" viewBox="0 0 52 45" fill="none" xmlns="http://www.w3.org/2000/svg">
<path d="M51.4999 20.2741L50.36 19.004C44.21 12.154 37.0699 6.27407 29.1699 1.53407C27.2599 0.384066 24.8599 0.364036 22.9399 1.50404C21.3099 2.48404 19.7099 3.51406 18.1399 4.59406C17.8399 4.80406 17.42 4.62405 17.37 4.26405L17.0299 2.08405C16.8599 0.994053 15.84 0.254071 14.75 0.414071L9.20993 1.26405C8.20993 1.41405 7.46994 2.28408 7.46994 3.29408V11.874C7.46994 12.694 7.12988 13.4741 6.52988 14.0441C4.85988 15.6341 3.24993 17.284 1.70993 19.004L0.469942 20.384C-0.0700576 20.984 0.359884 21.934 1.15988 21.934C2.36988 22.114 3.5799 22.284 4.7999 22.434C5.3399 22.504 5.71988 22.9941 5.65988 23.5341C4.96988 29.4941 5.02997 35.5241 5.86997 41.4641C5.97997 42.2741 6.68986 42.874 7.50986 42.874C11.3099 43.444 15.1199 43.8241 18.9499 44.0341C19.4799 44.0641 19.9299 43.6241 19.8999 43.0941C19.8999 43.0841 19.8999 43.074 19.8999 43.064C19.6599 37.894 19.6699 32.7141 19.9299 27.5441C19.9799 26.4841 20.8699 25.6541 21.9299 25.6541H26.0299H30.13C31.19 25.6541 32.07 26.4841 32.13 27.5441C32.39 32.7241 32.3999 37.9141 32.1599 43.0941C32.1599 43.0941 32.1599 43.0941 32.1599 43.1041C32.1399 43.6341 32.58 44.0741 33.11 44.0441C36.94 43.8341 40.7599 43.454 44.5599 42.884C45.4299 42.754 46.11 42.064 46.23 41.194C47.03 35.334 47.0799 29.4041 46.3999 23.5341C46.3399 22.9941 46.7199 22.504 47.2599 22.434C48.4799 22.284 49.69 22.114 50.91 21.934C51.7 21.814 52.0299 20.8641 51.4999 20.2741Z" fill="black"/>
</svg>
