<svg width="65" height="65" viewBox="0 0 65 65" fill="none" xmlns="http://www.w3.org/2000/svg">
<path d="M49.0428 33.6939C51.8828 33.6939 53.8328 32.5739 54.7728 31.8639C55.0528 31.6539 55.0227 31.2139 54.7127 31.0539C53.0427 30.1839 50.1228 27.0139 48.1528 23.0039C47.8828 22.2239 47.5528 21.4539 47.1728 20.7139C47.1728 20.7039 47.1728 20.7039 47.1628 20.6939C45.5228 17.5639 42.7827 14.8639 38.4727 13.5739C38.0827 13.4539 37.9927 12.9339 38.3227 12.6939L38.3527 12.6739C38.8727 12.2939 38.8827 11.5039 38.3527 11.1439C37.8927 10.8339 37.2227 10.8639 36.8027 11.2139L35.1227 12.6339C34.9527 12.7839 34.7227 12.8539 34.4927 12.8339H34.4827C34.1227 12.8039 33.8127 12.5539 33.7127 12.2039L33.6528 11.9739C33.2228 10.4639 32.0027 9.18388 30.3427 8.51388C29.8427 8.31388 29.2427 8.3939 28.8527 8.7239C28.4427 9.0639 28.3527 9.59389 28.6227 10.0239L29.4627 11.3439C29.7227 11.7539 29.3127 12.2539 28.8527 12.0739L26.5827 11.1739C25.3327 10.6739 23.8427 10.9439 22.9427 11.8239C21.7527 12.9839 20.9328 14.3739 20.5228 15.8539C17.0128 18.1339 14.7527 21.5639 13.8327 25.7239V25.6739C12.7727 29.9739 11.0927 31.0039 9.64275 31.3839C9.33275 31.4639 9.17268 31.8039 9.32268 32.0939C9.75268 32.8739 10.7527 34.3239 12.7127 35.5239C13.0827 35.7539 13.2627 36.1939 13.1427 36.6139V36.6239C12.1927 39.8439 12.3727 43.2839 13.6427 46.3939C13.8227 46.8439 14.3028 47.0839 14.7728 46.9839L17.4527 46.4139C18.0127 46.2939 18.3527 45.7339 18.2127 45.1839L17.8427 43.7339C17.7927 43.5239 18.0627 43.3939 18.1927 43.5639C18.8527 44.4239 19.4327 45.0939 19.8527 45.5439C20.2327 45.9539 20.3727 46.5239 20.2527 47.0639C19.5527 50.0539 19.5127 53.1639 20.1327 56.1739L20.1927 56.4739C20.2727 56.9539 20.6927 57.3039 21.1827 57.3039H25.1827C25.6327 57.3039 26.0328 57.0039 26.1528 56.5639L28.0827 49.3139C28.2127 48.8239 28.6927 48.5039 29.2027 48.5839C30.7027 48.8139 32.2227 48.8239 33.7227 48.6339L34.2427 48.5639C34.7527 48.4939 35.2227 48.8239 35.3427 49.3139L37.1127 56.5439C37.2227 56.9939 37.6227 57.3039 38.0827 57.3039H42.0527C42.5127 57.3039 42.9228 56.9839 43.0228 56.5339C43.6128 53.4739 43.6827 50.3339 43.2327 47.2439C43.1827 46.8639 43.5428 46.5739 43.9028 46.7039C44.1228 46.7839 44.3627 46.8639 44.6227 46.9339C45.0227 47.0439 45.3727 46.6339 45.1927 46.2539C45.0227 45.8939 44.8428 45.4439 44.6728 44.9239C44.4128 44.1039 44.5427 43.2239 44.9927 42.4939C45.1727 42.2039 45.3627 41.8939 45.5527 41.5739C45.7827 41.1839 46.3527 41.2539 46.4827 41.6839C46.9227 43.1239 47.1528 44.6139 47.1528 46.1339C47.1528 46.6939 47.5928 47.1439 48.1528 47.1439H51.3827C51.9327 47.1439 52.3827 46.6939 52.3827 46.1439C52.3827 42.3539 51.2927 38.6339 49.2427 35.4439L48.5927 34.4439C48.3927 34.1339 48.6328 33.6939 49.0428 33.6939ZM22.8627 24.6939C22.8627 20.9539 25.8927 17.9339 29.6227 17.9339C33.3527 17.9339 36.3827 20.9639 36.3827 24.6939C36.3827 28.4239 33.3527 31.4539 29.6227 31.4539C25.8927 31.4539 22.8627 28.4339 22.8627 24.6939ZM33.4028 40.2639C30.1528 41.0439 26.9027 39.5439 25.3027 36.8039C25.0227 36.3239 25.4827 35.7639 26.0127 35.9539C28.0127 36.6839 30.2327 36.8539 32.4627 36.3239C34.6827 35.7839 36.5828 34.6239 38.0328 33.0639C38.4128 32.6539 39.0827 32.9439 39.0527 33.4939C38.8527 36.6639 36.6528 39.4839 33.4028 40.2639ZM33.3227 23.8739C33.3827 24.1339 33.4128 24.4139 33.4128 24.6939C33.4128 26.7939 31.7127 28.4939 29.6127 28.4939C27.5127 28.4939 25.8127 26.7939 25.8127 24.6939C25.8127 22.5939 27.5127 20.8939 29.6127 20.8939C29.7427 20.8939 29.8727 20.9239 30.0027 20.9339C29.8827 21.2139 29.8127 21.5239 29.8127 21.8539C29.8127 23.1439 30.8628 24.1939 32.1528 24.1939C32.5928 24.1939 32.9827 24.0739 33.3227 23.8739Z" fill="black"/>
</svg>
