<svg width="64" height="65" viewBox="0 0 64 65" fill="none" xmlns="http://www.w3.org/2000/svg">
<path d="M43.6999 33.7641C46.8399 30.7641 48.8 26.5341 48.8 21.8441C48.8 12.4541 40.9499 4.89405 31.4499 5.36405C23.1599 5.77405 16.3301 12.5241 15.8301 20.8141C15.5201 25.8341 17.47 30.4041 20.75 33.6141C23.31 36.1141 25.08 39.2641 25.81 42.7041C25.93 43.2841 25.5499 43.8341 24.9699 43.9241C24.7999 43.9541 24.6299 43.9741 24.4599 44.0041C24.0799 44.0641 23.7599 44.3541 23.6599 44.7241C22.8599 47.7041 22.8599 50.8341 23.6599 53.8041C23.7599 54.1741 24.0799 54.4641 24.4599 54.5241C25.2299 54.6541 25.99 54.7541 26.76 54.8341C27.15 54.8741 27.4701 55.1341 27.6001 55.5041L28.05 56.8541C28.16 57.1941 28.46 57.4541 28.81 57.5141C31.12 57.9141 33.48 57.9141 35.79 57.5141C36.15 57.4541 36.44 57.1941 36.55 56.8541L37 55.5041C37.12 55.1341 37.4501 54.8741 37.8401 54.8341C38.6101 54.7441 39.3801 54.6441 40.1401 54.5241C40.5201 54.4641 40.8399 54.1741 40.9399 53.8041C41.7399 50.8241 41.7399 47.6941 40.9399 44.7141C40.8399 44.3441 40.5201 44.0541 40.1401 43.9941C39.9501 43.9641 39.76 43.9341 39.57 43.9041C38.99 43.8241 38.61 43.2641 38.73 42.6941C39.45 39.3141 41.1599 36.1841 43.6999 33.7641ZM35.1001 13.6741C34.7701 13.7141 34.4401 13.7641 34.1101 13.8241C29.2901 14.7541 25.42 18.6141 24.49 23.4441C24.43 23.7741 24.3801 24.1041 24.3401 24.4341C24.1001 26.5841 21.05 26.9141 20.48 24.8241C20.02 23.1441 19.92 21.3141 20.25 19.4241C21.12 14.4641 25.1101 10.4741 30.0801 9.59409C31.9701 9.26409 33.8 9.36407 35.48 9.82407C37.58 10.3741 37.2501 13.4241 35.1001 13.6741Z" fill="black"/>
</svg>
