<svg width="64" height="65" viewBox="0 0 64 65" fill="none" xmlns="http://www.w3.org/2000/svg">
<path d="M54.59 19.2941C54.47 15.7041 52.81 12.4341 49.97 10.2341C44.91 6.31415 37.62 7.22414 33.47 12.1041C31.02 14.9841 27.93 18.6341 26.12 20.7641C24.14 23.0941 23.03 26.0841 23.17 29.1341C23.32 32.4841 24.82 35.5441 27.36 37.7041C28.35 38.5441 29.45 39.1941 30.6 39.6541C31 39.8141 31.46 39.6941 31.74 39.3641L32.35 38.6441C32.97 37.9141 33.3299 37.0141 33.3899 36.0641C33.4199 35.6341 33.13 35.2441 32.72 35.1041C31.97 34.8341 31.25 34.4341 30.61 33.8841C29.06 32.5641 28.17 30.6741 28.17 28.6041C28.17 26.9241 28.82 25.3141 29.91 24.0341L37.43 15.1742C39.9 12.2642 44.27 11.9141 47.17 14.3741C48.72 15.6941 49.61 17.5941 49.61 19.6541C49.61 21.3341 48.96 22.9441 47.87 24.2241L42.81 30.1841C42.59 30.4441 42.51 30.8041 42.62 31.1241C43 32.2441 43.25 33.4041 43.35 34.6141C43.39 35.0841 43.3999 35.5641 43.3899 36.0341C43.3799 36.4441 43.8899 36.6441 44.15 36.3341L44.16 36.3241L51.6399 27.5041C53.5899 25.2241 54.69 22.3041 54.59 19.2941Z" fill="black"/>
<path d="M9.40995 45.0541C9.50995 48.6441 11.17 51.9141 14 54.1241C19.05 58.0641 26.34 57.1841 30.5 52.3141C33.17 49.1941 36.59 45.1842 38.31 43.1742C39.22 42.1042 39.9299 40.8741 40.3299 39.5341C41.7799 34.6241 40.2799 29.7842 36.7099 26.7342C35.7199 25.8842 34.63 25.2341 33.48 24.7741C33.08 24.6141 32.6199 24.7241 32.3399 25.0541L31.73 25.7641C31.1 26.4941 30.74 27.3941 30.68 28.3341C30.65 28.7641 30.94 29.1541 31.35 29.3041C32.1 29.5741 32.8199 29.9841 33.4599 30.5341C35.0099 31.8541 35.88 33.7541 35.88 35.8241C35.88 37.5041 35.22 39.1141 34.13 40.3941L26.5799 49.2241C24.0999 52.1241 19.7299 52.4642 16.8399 49.9842C15.2899 48.6642 14.42 46.7641 14.42 44.6941C14.42 43.0141 15.08 41.4041 16.17 40.1241L21.25 34.1841C21.47 33.9241 21.55 33.5641 21.44 33.2441C21.06 32.1241 20.8199 30.9541 20.7199 29.7541C20.6799 29.2841 20.67 28.8041 20.68 28.3341C20.69 27.9241 20.19 27.7241 19.92 28.0341L19.9099 28.0442L12.3899 36.8341C10.4399 39.1241 9.31995 42.0441 9.40995 45.0541Z" fill="black"/>
</svg>
