<svg width="64" height="65" viewBox="0 0 64 65" fill="none" xmlns="http://www.w3.org/2000/svg">
<path d="M53.49 34.5038H23.01C21.63 34.5038 20.51 33.3838 20.51 32.0038C20.51 30.6238 21.63 29.5038 23.01 29.5038H53.49C54.87 29.5038 55.99 30.6238 55.99 32.0038C55.99 33.3838 54.87 34.5038 53.49 34.5038Z" fill="black"/>
<path d="M53.13 20.1038H22.88C21.5 20.1038 20.38 18.9838 20.38 17.6038C20.38 16.2238 21.5 15.1038 22.88 15.1038H53.13C54.51 15.1038 55.63 16.2238 55.63 17.6038C55.63 18.9838 54.51 20.1038 53.13 20.1038Z" fill="black"/>
<path d="M53.13 48.9138H22.88C21.5 48.9138 20.38 47.7938 20.38 46.4138C20.38 45.0338 21.5 43.9138 22.88 43.9138H53.13C54.51 43.9138 55.63 45.0338 55.63 46.4138C55.63 47.7938 54.51 48.9138 53.13 48.9138Z" fill="black"/>
<path d="M12.48 22.1038C14.9653 22.1038 16.98 20.089 16.98 17.6038C16.98 15.1185 14.9653 13.1038 12.48 13.1038C9.9947 13.1038 7.97998 15.1185 7.97998 17.6038C7.97998 20.089 9.9947 22.1038 12.48 22.1038Z" fill="black"/>
<path d="M12.48 36.5038C14.9653 36.5038 16.98 34.4891 16.98 32.0038C16.98 29.5185 14.9653 27.5038 12.48 27.5038C9.9947 27.5038 7.97998 29.5185 7.97998 32.0038C7.97998 34.4891 9.9947 36.5038 12.48 36.5038Z" fill="black"/>
<path d="M12.48 50.9138C14.9653 50.9138 16.98 48.899 16.98 46.4138C16.98 43.9285 14.9653 41.9138 12.48 41.9138C9.9947 41.9138 7.97998 43.9285 7.97998 46.4138C7.97998 48.899 9.9947 50.9138 12.48 50.9138Z" fill="black"/>
</svg>
