<svg width="64" height="65" viewBox="0 0 64 65" fill="none" xmlns="http://www.w3.org/2000/svg">
<path d="M50.2862 34.4964C49.8662 32.3764 48.0663 30.8064 45.9163 30.5864L43.2762 30.3164C37.2662 29.6964 31.2263 29.5764 25.2063 29.9664C24.6363 30.0064 24.1463 29.5564 24.1463 28.9764V21.1764C24.1463 16.6064 28.0163 12.9264 32.6463 13.2364C36.8663 13.5164 40.0562 17.2164 40.0562 21.4564V21.5464C40.0562 22.8564 40.9962 24.0464 42.2962 24.1764C43.7962 24.3264 45.0562 23.1564 45.0562 21.6864V21.1664C45.0562 13.8064 38.8863 7.85644 31.4463 8.22644C24.4863 8.56644 19.1463 14.5764 19.1463 21.5364V29.6164C19.1463 30.1164 18.7762 30.5264 18.2762 30.5764C16.1262 30.7964 14.3263 32.3664 13.9063 34.4864C12.7063 40.5264 12.6963 46.7364 13.8863 52.7764L13.9063 52.8764C14.3163 54.9864 16.0363 56.5964 18.1663 56.8664C27.4163 58.0664 36.7762 58.0664 46.0262 56.8664C48.1562 56.5864 49.8762 54.9864 50.2862 52.8764L50.3062 52.7764C51.4862 46.7464 51.4862 40.5364 50.2862 34.4964Z" fill="black"/>
</svg>
