<svg width="64" height="65" viewBox="0 0 64 65" fill="none" xmlns="http://www.w3.org/2000/svg">
<path d="M50.2962 31.9164C49.8762 29.7964 48.0761 28.2364 45.9261 28.0064C45.4361 27.9564 45.0562 27.5364 45.0562 27.0464V23.7564C45.0562 16.3964 38.8861 10.4464 31.4461 10.8164C24.4861 11.1564 19.1463 17.1664 19.1463 24.1264V27.0464C19.1463 27.5464 18.7762 27.9564 18.2762 28.0064C16.1262 28.2264 14.3263 29.7964 13.9063 31.9164C12.7063 37.9564 12.6963 44.1664 13.8863 50.2064L13.9063 50.3064C14.3163 52.4164 16.0361 54.0264 18.1661 54.2964C27.4161 55.4964 36.7762 55.4964 46.0262 54.2964C48.1562 54.0164 49.8762 52.4164 50.2862 50.3064L50.3062 50.2064C51.5062 44.1664 51.4962 37.9564 50.2962 31.9164ZM25.1761 27.3864C24.6161 27.4264 24.1463 26.9864 24.1463 26.4264V23.7564C24.1463 19.1864 28.0163 15.5064 32.6463 15.8164C36.8663 16.0964 40.0562 19.7964 40.0562 24.0364V26.4264C40.0562 26.9864 39.5862 27.4164 39.0262 27.3864C34.4162 27.0864 29.7861 27.0864 25.1761 27.3864Z" fill="black"/>
</svg>
