<svg width="65" height="64" viewBox="0 0 65 64" fill="none" xmlns="http://www.w3.org/2000/svg">
<path d="M21.512 39.76C21.412 38.38 20.2219 37.34 18.8419 37.44C17.4619 37.54 16.422 38.74 16.512 40.11C16.642 41.98 16.822 43.19 17.052 44.73C17.122 45.17 17.192 45.64 17.262 46.16C17.452 47.54 17.8719 48.87 18.5019 50.11C19.1219 51.32 19.922 52.42 20.882 53.38C21.852 54.34 22.962 55.13 24.172 55.74C25.412 56.36 26.752 56.77 28.132 56.96C28.782 57.05 29.4419 57.12 30.0919 57.16C30.7419 57.21 31.402 57.23 32.062 57.23C32.722 57.23 33.382 57.2 34.032 57.16C34.682 57.12 35.3419 57.05 35.9919 56.96C37.3719 56.77 38.7119 56.36 39.9519 55.74C41.1619 55.13 42.2719 54.34 43.2319 53.38C44.2019 52.42 45.0019 51.32 45.6119 50.11C46.2419 48.87 46.6619 47.54 46.8619 46.16C47.2019 43.83 47.4519 41.45 47.6219 39.09C47.7919 36.73 47.8719 34.34 47.8719 31.99C47.8719 29.63 47.7919 27.25 47.6219 24.89C47.4519 22.53 47.1919 20.15 46.8619 17.82C46.6619 16.44 46.2419 15.11 45.6119 13.87C45.0019 12.66 44.1919 11.56 43.2319 10.6C42.2719 9.63999 41.1619 8.84999 39.9519 8.23999C38.7119 7.61999 37.3719 7.20998 35.9919 7.01998C35.3419 6.92998 34.682 6.85999 34.032 6.81999C32.712 6.72999 31.4019 6.72999 30.0919 6.81999C29.4319 6.85999 28.782 6.92998 28.132 7.01998C26.752 7.20998 25.412 7.61999 24.172 8.23999C22.962 8.84999 21.852 9.63999 20.892 10.6C19.922 11.56 19.122 12.66 18.512 13.87C17.882 15.11 17.462 16.44 17.262 17.82C16.952 19.97 16.712 21.67 16.542 23.9C16.432 25.27 17.4619 26.48 18.8419 26.58C20.2119 26.68 21.422 25.66 21.522 24.28C21.672 22.21 21.8919 20.67 22.2019 18.53C22.3219 17.69 22.5819 16.88 22.9619 16.13C23.3319 15.4 23.812 14.73 24.402 14.15C24.982 13.57 25.652 13.09 26.392 12.72C27.142 12.34 27.952 12.09 28.792 11.98C29.332 11.9 29.882 11.85 30.422 11.81C31.502 11.74 32.592 11.74 33.682 11.81C34.232 11.85 34.772 11.91 35.312 11.98C36.152 12.1 36.9619 12.34 37.7119 12.72C38.4419 13.09 39.1119 13.57 39.7019 14.15C40.2819 14.73 40.772 15.4 41.142 16.13C41.532 16.88 41.782 17.69 41.902 18.53C42.222 20.75 42.4619 23.01 42.6219 25.25C42.7819 27.49 42.8619 29.76 42.8619 31.99C42.8619 34.22 42.7819 36.49 42.6219 38.73C42.4619 40.97 42.222 43.23 41.902 45.45C41.782 46.29 41.522 47.1 41.142 47.85C40.772 48.58 40.2919 49.25 39.7019 49.83C39.1219 50.41 38.4519 50.89 37.7119 51.26C36.9619 51.64 36.152 51.89 35.312 52C34.782 52.08 34.232 52.13 33.692 52.17C32.602 52.24 31.522 52.24 30.432 52.17C29.882 52.13 29.342 52.07 28.802 52C27.962 51.88 27.152 51.64 26.402 51.26C25.672 50.89 25.002 50.41 24.412 49.83C23.832 49.25 23.3419 48.59 22.9719 47.85C22.5919 47.1 22.3419 46.29 22.2219 45.45C22.1519 44.92 22.082 44.44 22.012 43.99L22.0072 43.9581C21.7897 42.4946 21.6311 41.4279 21.512 39.76Z" fill="black"/>
<path d="M30.782 29.5H12.2019C10.8919 29.5 9.702 30.44 9.572 31.73C9.422 33.23 10.592 34.49 12.062 34.49H30.782C31.202 34.49 31.432 34.98 31.162 35.31L27.042 40.23C26.132 41.33 26.192 43.06 27.312 43.94C27.772 44.3 28.3119 44.47 28.8519 44.47C29.5719 44.47 30.2819 44.16 30.7719 43.57L38.042 34.88C39.442 33.21 39.442 30.78 38.042 29.11L30.7719 20.42C29.8319 19.3 28.112 19.21 27.062 20.29C26.152 21.22 26.192 22.74 27.032 23.74L31.162 28.68C31.442 29 31.202 29.5 30.782 29.5Z" fill="black"/>
</svg>
