<svg width="64" height="64" viewBox="0 0 64 64" fill="none" xmlns="http://www.w3.org/2000/svg">
<path d="M45.17 37.44C43.79 37.34 42.6 38.38 42.5 39.76C42.38 41.44 42.22 42.51 42 43.99C41.93 44.44 41.86 44.92 41.79 45.45C41.67 46.29 41.42 47.1 41.04 47.85C40.67 48.59 40.18 49.25 39.6 49.83C39.01 50.41 38.34 50.89 37.61 51.26C36.86 51.64 36.05 51.88 35.21 52C34.67 52.07 34.13 52.13 33.58 52.17C32.49 52.24 31.41 52.24 30.32 52.17C29.78 52.13 29.23 52.08 28.7 52C27.86 51.89 27.05 51.64 26.3 51.26C25.56 50.89 24.89 50.41 24.31 49.83C23.72 49.25 23.24 48.58 22.87 47.85C22.49 47.1 22.23 46.29 22.11 45.45C21.79 43.23 21.55 40.97 21.39 38.73C21.23 36.49 21.15 34.22 21.15 31.99C21.15 29.76 21.23 27.49 21.39 25.25C21.55 23.01 21.79 20.75 22.11 18.53C22.23 17.69 22.48 16.88 22.87 16.13C23.24 15.4 23.73 14.73 24.31 14.15C24.9 13.57 25.57 13.09 26.3 12.72C27.05 12.34 27.86 12.1 28.7 11.98C29.24 11.91 29.78 11.85 30.33 11.81C31.42 11.74 32.51 11.74 33.59 11.81C34.13 11.85 34.68 11.9 35.22 11.98C36.06 12.09 36.87 12.34 37.62 12.72C38.36 13.09 39.03 13.57 39.61 14.15C40.2 14.73 40.68 15.4 41.05 16.13C41.43 16.88 41.69 17.69 41.81 18.53C42.12 20.67 42.34 22.21 42.49 24.28C42.59 25.66 43.8 26.68 45.17 26.58C46.55 26.48 47.58 25.27 47.47 23.9C47.3 21.67 47.06 19.97 46.75 17.82C46.55 16.44 46.13 15.11 45.5 13.87C44.89 12.66 44.09 11.56 43.12 10.6C42.16 9.63999 41.05 8.84999 39.84 8.23999C38.6 7.61999 37.26 7.20998 35.88 7.01998C35.23 6.92998 34.58 6.85999 33.92 6.81999C32.61 6.72999 31.3 6.72999 29.98 6.81999C29.33 6.85999 28.67 6.92998 28.02 7.01998C26.64 7.20998 25.3 7.61999 24.06 8.23999C22.85 8.84999 21.74 9.63999 20.78 10.6C19.82 11.56 19.01 12.66 18.4 13.87C17.77 15.11 17.35 16.44 17.15 17.82C16.82 20.15 16.56 22.53 16.39 24.89C16.22 27.25 16.14 29.63 16.14 31.99C16.14 34.34 16.22 36.73 16.39 39.09C16.56 41.45 16.81 43.83 17.15 46.16C17.35 47.54 17.77 48.87 18.4 50.11C19.01 51.32 19.81 52.42 20.78 53.38C21.74 54.34 22.85 55.13 24.06 55.74C25.3 56.36 26.64 56.77 28.02 56.96C28.67 57.05 29.33 57.12 29.98 57.16C30.63 57.2 31.29 57.23 31.95 57.23C32.61 57.23 33.27 57.21 33.92 57.16C34.57 57.12 35.23 57.05 35.88 56.96C37.26 56.77 38.6 56.36 39.84 55.74C41.05 55.13 42.16 54.34 43.13 53.38C44.09 52.42 44.89 51.32 45.51 50.11C46.14 48.87 46.56 47.54 46.75 46.16C46.82 45.64 46.89 45.17 46.96 44.73C47.19 43.19 47.37 41.98 47.5 40.11C47.58 38.74 46.55 37.54 45.17 37.44Z" fill="black"/>
<path d="M51.81 29.5H33.23C32.81 29.5 32.57 29 32.85 28.68L36.98 23.74C37.82 22.74 37.86 21.22 36.95 20.29C35.9 19.21 34.18 19.3 33.24 20.42L25.97 29.11C24.57 30.78 24.57 33.21 25.97 34.88L33.24 43.57C33.73 44.16 34.44 44.47 35.16 44.47C35.7 44.47 36.24 44.3 36.7 43.94C37.82 43.06 37.88 41.33 36.97 40.23L32.85 35.31C32.58 34.98 32.81 34.49 33.23 34.49H51.95C53.42 34.49 54.59 33.23 54.44 31.73C54.31 30.44 53.12 29.5 51.81 29.5Z" fill="black"/>
</svg>
