<svg width="64" height="65" viewBox="0 0 64 65" fill="none" xmlns="http://www.w3.org/2000/svg">
<path d="M39.6671 14.7996C39.841 14.7865 40.0145 14.7735 40.1911 14.7735C49.4611 14.6635 57.1211 22.1435 57.2211 31.4335C57.2711 35.9235 55.5711 40.1735 52.4211 43.3935C49.2711 46.6035 45.0611 48.4036 40.5611 48.4536H40.5311C39.1611 48.4536 38.0511 47.3536 38.0311 45.9836C38.0111 44.6036 39.1211 43.4736 40.5011 43.4536C43.6711 43.4236 46.6311 42.1535 48.8411 39.8935C51.0611 37.6335 52.2611 34.6436 52.2211 31.4836C52.1511 24.9536 46.7611 19.7135 40.2511 19.7735C39.9311 19.7835 39.6011 19.8035 39.2811 19.8335L43.1411 24.1735C44.0511 25.2035 43.9611 26.7836 42.9311 27.7036C42.4511 28.1236 41.8611 28.3335 41.2711 28.3335C40.5811 28.3335 39.8911 28.0535 39.4011 27.4935L32.0611 19.2336C31.2511 18.3236 31.2111 16.9735 31.9611 16.0235L38.7911 7.34355C39.6411 6.25355 41.2211 6.07354 42.3011 6.92354C43.3911 7.77354 43.5711 9.35355 42.7211 10.4335L39.2711 14.8236C39.4044 14.8193 39.5359 14.8094 39.6671 14.7996Z" fill="black"/>
<path d="M21.291 36.3136C22.321 35.4036 23.901 35.4936 24.821 36.5236L32.161 44.7836C32.971 45.6936 33.011 47.0436 32.261 47.9936L25.4311 56.6736C24.9311 57.2936 24.201 57.6236 23.461 57.6236C22.921 57.6236 22.3811 57.4436 21.9211 57.0836C20.8311 56.2336 20.6511 54.6536 21.5011 53.5736L24.951 49.1836C24.8462 49.1903 24.7426 49.1994 24.6393 49.2084C24.4371 49.226 24.2362 49.2436 24.031 49.2436H23.841C14.641 49.2436 7.10107 41.8136 7.00107 32.5836C6.95107 28.0936 8.65106 23.8336 11.8011 20.6236C14.9511 17.4136 19.161 15.6136 23.661 15.5636H23.6911C25.0611 15.5636 26.1711 16.6636 26.1911 18.0336C26.2111 19.4136 25.101 20.5436 23.721 20.5636C20.551 20.5936 17.6011 21.8636 15.3811 24.1236C13.1611 26.3836 11.9611 29.3736 12.0011 32.5336C12.0711 39.0136 17.371 44.2436 23.841 44.2436H23.971C24.301 44.2336 24.6211 44.2136 24.9411 44.1836L21.081 39.8436C20.171 38.8136 20.2611 37.2336 21.291 36.3136Z" fill="black"/>
</svg>
