<svg width="64" height="65" viewBox="0 0 64 65" fill="none" xmlns="http://www.w3.org/2000/svg">
<path d="M31.6501 34.1836C31.8901 34.2936 32.0999 34.2936 32.2799 34.2136C40.7899 30.4436 48.68 25.5636 55.82 19.7136C56.19 19.4036 56.3799 18.9136 56.2799 18.4436V18.4336L56.1801 18.0636C55.9801 17.3436 55.32 16.8335 54.57 16.8335C39.58 14.9435 24.4101 14.9435 9.4301 16.8335C8.6801 16.8335 8.01999 17.3336 7.81999 18.0636L7.71989 18.4336V18.4436C7.62989 18.9136 7.8101 19.4036 8.1801 19.7136C15.3201 25.5636 23.2001 30.4436 31.6501 34.1836Z" fill="black"/>
<path d="M33.5602 38.4336C33.0401 38.6636 32.5101 38.7736 31.9801 38.7736C31.4701 38.7736 30.9601 38.6636 30.4901 38.4536C22.3101 34.8236 14.6801 30.2036 7.71005 24.7036C7.40005 24.4636 6.95024 24.6436 6.90024 25.0336C5.99024 32.3736 6.25005 39.8336 7.71005 47.1036C7.88005 47.9436 8.57026 48.5735 9.42026 48.6735L9.63022 48.7036C24.4802 50.5636 39.5002 50.5636 54.3502 48.7036L54.5602 48.6735C55.4101 48.5635 56.1001 47.9336 56.2701 47.1036C57.7301 39.8236 57.9902 32.3736 57.0802 25.0336C57.0302 24.6436 56.5801 24.4636 56.2701 24.7036C49.3101 30.2136 41.6902 34.8236 33.5602 38.4336Z" fill="black"/>
</svg>
