<svg width="64" height="65" viewBox="0 0 64 65" fill="none" xmlns="http://www.w3.org/2000/svg">
<path d="M53.99 34.5037H10.01C8.63001 34.5037 7.51001 33.3837 7.51001 32.0037C7.51001 30.6237 8.63001 29.5037 10.01 29.5037H53.99C55.37 29.5037 56.49 30.6237 56.49 32.0037C56.49 33.3837 55.37 34.5037 53.99 34.5037Z" fill="black"/>
<path d="M52.12 20.1038H11.87C10.49 20.1038 9.37 18.9838 9.37 17.6038C9.37 16.2238 10.49 15.1038 11.87 15.1038H52.12C53.5 15.1038 54.62 16.2238 54.62 17.6038C54.62 18.9838 53.51 20.1038 52.12 20.1038Z" fill="black"/>
<path d="M52.12 48.9138H11.87C10.49 48.9138 9.37 47.7938 9.37 46.4138C9.37 45.0338 10.49 43.9138 11.87 43.9138H52.12C53.5 43.9138 54.62 45.0338 54.62 46.4138C54.62 47.7938 53.51 48.9138 52.12 48.9138Z" fill="black"/>
</svg>
