<svg width="64" height="65" viewBox="0 0 64 65" fill="none" xmlns="http://www.w3.org/2000/svg">
<path d="M52.9599 31.98C52.9599 20.39 43.5699 11 31.9799 11C20.4099 11 10.8799 20.65 10.9999 32.21C11.0499 37.06 12.7599 41.52 15.5699 45.04C15.7699 45.29 15.8399 45.61 15.7599 45.91L15.7199 46.06C15.0899 48.31 13.6999 50.26 11.7699 51.59C11.0099 52.11 11.3099 53.3 12.2199 53.41C20.1299 54.33 28.1299 53.98 35.9699 52.57H35.9599C45.6399 50.7 52.9499 42.19 52.9499 31.97L52.9599 31.98ZM41.5799 41.1H22.2699C21.2999 41.1 20.5099 40.31 20.5099 39.34C20.5099 38.37 21.2999 37.58 22.2699 37.58H41.5799C42.5499 37.58 43.3399 38.37 43.3399 39.34C43.3399 40.31 42.5499 41.1 41.5799 41.1ZM41.5799 33.2H22.2699C21.2999 33.2 20.5099 32.41 20.5099 31.44C20.5099 30.47 21.2999 29.68 22.2699 29.68H41.5799C42.5499 29.68 43.3399 30.47 43.3399 31.44C43.3399 32.41 42.5499 33.2 41.5799 33.2ZM41.5799 25.27H22.2699C21.2999 25.27 20.5099 24.48 20.5099 23.51C20.5099 22.54 21.2999 21.75 22.2699 21.75H41.5799C42.5499 21.75 43.3399 22.54 43.3399 23.51C43.3399 24.48 42.5499 25.27 41.5799 25.27Z" fill="black"/>
</svg>
