<svg width="64" height="64" viewBox="0 0 64 64" fill="none" xmlns="http://www.w3.org/2000/svg">
<path d="M22.9001 35.46C21.6601 27.3 21.6601 19.01 22.9001 10.85C23.2101 8.80999 24.7901 7.2 26.8301 6.86C30.2501 6.29 33.7402 6.29 37.1602 6.86C39.1902 7.2 40.7801 8.80999 41.0901 10.85C42.3301 19.01 42.3301 27.3 41.0901 35.46C40.7801 37.5 39.2002 39.11 37.1602 39.45C33.7402 40.02 30.2501 40.02 26.8301 39.45C24.8001 39.1 23.2101 37.49 22.9001 35.46ZM47.4701 22.21C46.2301 22.33 45.3301 23.47 45.3301 24.72V29.64C45.3301 32.14 45.0301 34.63 44.4501 37.06C43.8001 39.74 41.4601 41.67 38.7201 41.95C34.2201 42.42 29.6602 42.42 25.1602 41.94C22.4202 41.65 20.1601 39.67 19.5201 36.99C18.9501 34.59 18.6602 32.11 18.6602 29.64V24.72C18.6602 23.47 17.7601 22.34 16.5201 22.21C15.0901 22.07 13.8901 23.18 13.8901 24.58V29.64C13.8901 32.52 14.2302 35.39 14.9102 38.18C16.0202 42.79 19.9402 46.18 24.6602 46.68C26.0002 46.82 27.3501 46.91 28.7101 46.97C29.2201 46.99 29.6201 47.41 29.6201 47.92V51.74C29.6201 52.29 29.1601 52.73 28.6201 52.7C27.3701 52.63 26.1301 52.52 24.8801 52.37C23.6401 52.22 22.3901 52.95 22.1101 54.17C21.7901 55.57 22.7401 56.91 24.1301 57.08C26.7401 57.41 29.3701 57.57 32.0001 57.57C34.5901 57.57 37.1801 57.41 39.7601 57.09C40.9901 56.94 42.0001 55.89 41.9601 54.65C41.9201 53.22 40.6702 52.17 39.2802 52.34C37.9902 52.5 36.6901 52.62 35.3901 52.69C34.8401 52.72 34.3901 52.28 34.3901 51.73V47.91C34.3901 47.4 34.7902 46.98 35.3002 46.96C36.6502 46.9 38.0001 46.81 39.3401 46.67C44.0601 46.16 47.9801 42.78 49.0901 38.17C49.7601 35.38 50.1101 32.5 50.1101 29.63V24.57C50.1001 23.18 48.9001 22.07 47.4701 22.21Z" fill="black"/>
</svg>
