<svg width="65" height="64" viewBox="0 0 65 64" fill="none" xmlns="http://www.w3.org/2000/svg">
<path d="M50.0927 11.97C51.4734 11.97 52.5927 10.8507 52.5927 9.47003C52.5927 8.08932 51.4734 6.97003 50.0927 6.97003C48.7119 6.97003 47.5927 8.08932 47.5927 9.47003C47.5927 10.8507 48.7119 11.97 50.0927 11.97Z" fill="black"/>
<path d="M52.7927 24.99C53.0327 24.5 52.8527 23.91 52.3627 23.66C51.4527 23.19 49.7527 22.65 47.4827 23.41C47.4027 23.44 47.3227 23.47 47.2427 23.49C46.7427 23.68 46.1927 23.44 45.9727 22.96C45.7227 22.4 45.3626 21.88 44.9026 21.44C44.0026 20.57 43.0426 19.79 42.0326 19.08C41.6126 18.79 41.4827 18.22 41.7327 17.78C42.5527 16.33 43.6127 15.01 44.8727 13.89C46.3527 12.58 45.2426 10.15 43.2826 10.41C39.4826 10.92 35.9027 12.32 32.7927 14.44C32.2027 14.84 31.4926 15.03 30.7826 14.96C29.2926 14.82 27.7826 14.82 26.2726 14.97L26.0527 14.99C24.2127 15.09 22.5727 16.19 21.7927 17.86C20.4727 20.67 19.3427 23.56 18.3827 26.5C18.1427 27.24 17.6227 27.86 16.9327 28.22L10.3627 31.68C9.74272 32.01 9.28272 32.59 9.11272 33.27C8.93272 33.95 9.05268 34.68 9.44268 35.27L14.2227 42.55C14.5927 43.11 14.7627 43.79 14.7027 44.46C14.5327 46.4 14.4226 48.3401 14.4126 50.2901L14.3627 56.36C14.3627 56.92 14.8027 57.37 15.3627 57.37H20.3727C20.8227 57.37 21.2227 57.07 21.3427 56.63L22.8727 50.93C23.0227 50.37 23.6227 50.05 24.1727 50.25C27.0627 51.28 30.1227 51.74 33.1927 51.61L33.5927 51.59C34.0027 51.57 34.3827 51.81 34.5527 52.18L36.5927 56.76C36.7527 57.12 37.1127 57.3501 37.5027 57.3501H42.3027C42.9127 57.3501 43.3827 56.81 43.2927 56.21L42.6727 51.9C42.5027 50.75 42.3927 49.6 42.3227 48.45C42.2527 47.27 42.8727 46.16 43.9227 45.61L48.1426 43.39C48.7626 43.06 49.2226 42.48 49.3926 41.8C49.5626 41.12 49.4527 40.39 49.0627 39.8L44.3227 32.58C44.1927 32.39 44.1627 32.15 44.2327 31.93V31.92C44.3827 31.42 44.9726 31.22 45.4026 31.51C45.7526 31.75 46.1527 31.96 46.6027 32.15C48.7127 33.03 50.5127 32.59 51.4927 32.19C51.9927 31.98 52.2427 31.41 52.0427 30.91C51.7227 30.1 51.0027 28.9 49.4527 27.99C51.3727 27.25 52.3527 25.88 52.7927 24.99ZM36.4126 38.39C36.0426 40.84 32.2127 43.81 27.3027 42.28L27.2726 42.22L27.2127 42.26C22.1927 41.19 20.3027 36.73 21.1727 34.41C22.0427 32.09 24.3227 32.56 25.5727 33.58C27.7227 35.32 30.5427 35.84 32.9827 35.51C34.5827 35.31 36.7826 35.95 36.4126 38.39ZM43.5427 26.88C43.1527 27.45 42.5227 27.76 41.8827 27.76C41.5027 27.76 41.1126 27.65 40.7726 27.42C33.6126 22.61 25.0627 22.65 24.9627 22.62H24.9527C23.8527 22.62 22.9627 21.74 22.9527 20.64C22.9427 19.54 23.8227 18.63 24.9327 18.62C25.3427 18.62 34.7927 18.5801 43.0127 24.1001C43.9127 24.7301 44.1627 25.97 43.5427 26.88Z" fill="black"/>
</svg>
