<svg width="64" height="65" viewBox="0 0 64 65" fill="none" xmlns="http://www.w3.org/2000/svg">
<path d="M36.97 32.0038C36.97 34.7638 34.73 37.0038 31.97 37.0038C29.21 37.0038 26.97 34.7638 26.97 32.0038C26.97 29.2438 29.21 27.0038 31.97 27.0038C34.73 27.0038 36.97 29.2438 36.97 32.0038ZM50.03 27.0038C47.27 27.0038 45.03 29.2438 45.03 32.0038C45.03 34.7638 47.27 37.0038 50.03 37.0038C52.79 37.0038 55.03 34.7638 55.03 32.0038C55.03 29.2438 52.79 27.0038 50.03 27.0038ZM13.97 27.0038C11.21 27.0038 8.96997 29.2438 8.96997 32.0038C8.96997 34.7638 11.21 37.0038 13.97 37.0038C16.73 37.0038 18.97 34.7638 18.97 32.0038C18.97 29.2438 16.73 27.0038 13.97 27.0038Z" fill="black"/>
</svg>
