<svg width="65" height="65" viewBox="0 0 65 65" fill="none" xmlns="http://www.w3.org/2000/svg">
<path d="M32.0019 27.0338C34.7619 27.0338 37.0019 29.2738 37.0019 32.0338C37.0019 34.7938 34.7619 37.0338 32.0019 37.0338C29.2419 37.0338 27.0019 34.7938 27.0019 32.0338C27.0019 29.2738 29.2419 27.0338 32.0019 27.0338ZM27.0019 13.9738C27.0019 16.7338 29.2419 18.9738 32.0019 18.9738C34.7619 18.9738 37.0019 16.7338 37.0019 13.9738C37.0019 11.2138 34.7619 8.97375 32.0019 8.97375C29.2419 8.97375 27.0019 11.2138 27.0019 13.9738ZM27.0019 50.0338C27.0019 52.7938 29.2419 55.0338 32.0019 55.0338C34.7619 55.0338 37.0019 52.7938 37.0019 50.0338C37.0019 47.2738 34.7619 45.0338 32.0019 45.0338C29.2419 45.0338 27.0019 47.2738 27.0019 50.0338Z" fill="black"/>
</svg>
