<svg width="64" height="65" viewBox="0 0 64 65" fill="none" xmlns="http://www.w3.org/2000/svg">
<path d="M52.62 10.3464L52.5499 9.86644C52.3999 8.78644 51.43 8.02644 50.35 8.14644L49.87 8.19643C40.68 9.21643 31.7399 11.6364 23.2099 15.3964L22.9499 15.5064C22.3199 15.7864 21.87 16.3764 21.78 17.0664L21.74 17.3464C20.74 24.7964 20.49 32.3164 20.97 39.8064C21.01 40.4664 20.43 40.9664 19.79 40.8464C18.53 40.6164 17.1899 40.6064 15.8099 40.8464C10.5499 41.7764 6.9099 46.0264 7.6699 50.3564C8.4299 54.6864 13.3299 57.5464 18.5699 56.5064C21.0199 56.0264 22.7899 55.4165 24.7999 53.1565C26.4799 51.2665 27.0699 48.5264 26.5799 45.6264C25.3499 38.2664 25.7099 28.6564 26.0599 24.0764C26.0999 23.6164 26.45 23.2364 26.91 23.1664C33.81 22.1364 40.5599 20.3364 47.0599 17.7964C47.6899 17.5464 48.3799 17.9764 48.4299 18.6564C48.6999 22.9164 48.7099 27.1964 48.4599 31.4564C48.4199 32.1264 47.75 32.5464 47.11 32.3364C45.48 31.7964 43.6199 31.6464 41.6999 31.9764C36.4399 32.9064 32.7999 37.1564 33.5599 41.4864C34.3199 45.8164 39.1699 48.3664 44.4599 47.6364C48.6299 47.0564 51.7899 43.5464 52.8399 38.4264C54.8699 28.5664 53.47 16.5764 52.62 10.3464Z" fill="black"/>
</svg>
