<svg width="64" height="65" viewBox="0 0 64 65" fill="none" xmlns="http://www.w3.org/2000/svg">
<path d="M42.1902 24.6236L24.6002 42.2136C24.1402 42.6736 24.2302 43.4436 24.7802 43.7836C27.4302 45.4136 30.6501 46.1936 34.0901 45.6736C40.0001 44.7836 44.7602 40.0236 45.6502 34.1236C46.1702 30.6936 45.3902 27.4636 43.7602 24.8136C43.4202 24.2536 42.6502 24.1636 42.1902 24.6236Z" fill="black"/>
<path d="M18.3401 29.8936C19.2301 23.9936 23.9802 19.2436 29.8802 18.3536C33.3102 17.8336 36.5302 18.6036 39.1902 20.2236C39.7402 20.5636 39.8301 21.3336 39.3701 21.7936L21.7902 39.3736C21.3302 39.8336 20.5601 39.7436 20.2201 39.1936C18.5901 36.5436 17.8201 33.3236 18.3401 29.8936Z" fill="black"/>
<path fill-rule="evenodd" clip-rule="evenodd" d="M32 7.00357C18.19 7.00357 7 18.1936 7 32.0036C7 45.8136 18.19 57.0036 32 57.0036C45.81 57.0036 57 45.8136 57 32.0036C57 18.1936 45.8 7.00357 32 7.00357ZM32 49.8236C22.16 49.8236 14.1901 41.8436 14.1901 32.0136C14.1901 22.1736 22.17 14.2036 32 14.2036C41.83 14.2036 49.8101 22.1836 49.8101 32.0136C49.8101 41.8436 41.83 49.8236 32 49.8236Z" fill="black"/>
</svg>
