<svg width="64" height="64" viewBox="0 0 64 64" fill="none" xmlns="http://www.w3.org/2000/svg">
<path d="M32 7C18.19 7 7 18.19 7 32C7 45.81 18.19 57 32 57C45.81 57 57 45.81 57 32C57 18.19 45.81 7 32 7ZM12.32 28.4C13.76 20.27 20.27 13.76 28.4 12.32C33.94 11.34 39.15 12.68 43.26 15.51C43.78 15.87 43.86 16.61 43.42 17.06L17.05 43.43C16.6 43.88 15.86 43.8 15.5 43.27C12.67 39.15 11.33 33.95 12.31 28.4H12.32ZM35.6 51.68C30.06 52.66 24.85 51.32 20.74 48.5C20.22 48.14 20.14 47.4 20.58 46.95L46.95 20.58C47.4 20.13 48.14 20.21 48.5 20.74C51.32 24.86 52.66 30.06 51.68 35.6C50.24 43.73 43.73 50.24 35.6 51.68Z" fill="black"/>
</svg>
