<svg width="64" height="65" viewBox="0 0 64 65" fill="none" xmlns="http://www.w3.org/2000/svg">
<path d="M26.2002 56.9041C23.7602 57.4241 21.2402 57.4241 18.8002 56.9041L17.9902 56.7341C16.4702 56.4041 15.2802 55.2341 14.9302 53.7141C11.6802 39.5541 11.6802 24.8441 14.9302 10.6841C15.2802 9.16412 16.4702 7.99412 17.9902 7.66412L18.8002 7.49412C21.2402 6.97412 23.7602 6.97412 26.2002 7.49412C28.1102 7.90412 29.4402 9.62412 29.3602 11.5741C28.7902 25.3241 28.7902 39.0841 29.3602 52.8341C29.4402 54.7841 28.1102 56.5041 26.2002 56.9141V56.9041Z" fill="black"/>
<path d="M37.8002 7.48412C40.2402 6.96412 42.7602 6.96412 45.2002 7.48412L46.0102 7.65412C47.5302 7.98412 48.7202 9.15412 49.0702 10.6741C52.3202 24.8341 52.3202 39.5441 49.0702 53.7041C48.7202 55.2241 47.5302 56.3941 46.0102 56.7241L45.2002 56.8941C42.7602 57.4141 40.2402 57.4141 37.8002 56.8941C35.8902 56.4841 34.5602 54.7641 34.6402 52.8141C35.2102 39.0641 35.2102 25.3041 34.6402 11.5541C34.5602 9.60412 35.8902 7.88412 37.8002 7.47412V7.48412Z" fill="black"/>
</svg>
