<svg width="65" height="64" viewBox="0 0 65 64" fill="none" xmlns="http://www.w3.org/2000/svg">
<path d="M25.0426 49.5802C33.6226 41.3402 41.3927 32.3102 48.2327 22.5902C48.4927 22.2202 48.4626 21.7102 48.1626 21.3702C46.9726 20.0002 45.5326 18.5802 43.8326 17.1502C42.1326 15.7202 40.4826 14.5602 38.9226 13.6202C38.5326 13.3802 38.0326 13.4402 37.7126 13.7702C29.3326 22.2002 21.7826 31.4202 15.1626 41.3002C14.9326 41.6502 14.9627 42.1102 15.2427 42.4202C16.3927 43.7002 17.7526 45.0302 19.3326 46.3602C20.9226 47.6902 22.4626 48.8002 23.9226 49.7002C24.2826 49.9202 24.7426 49.8702 25.0426 49.5802Z" fill="black"/>
<path d="M17.4026 48.6502C15.9726 47.4502 14.7127 46.2702 13.6127 45.1102C13.3427 44.8202 12.8626 44.9502 12.7626 45.3302L12.5826 46.0503C11.8426 49.0403 11.4526 52.1003 11.4026 55.1803C11.4026 55.5003 11.6827 55.7403 11.9927 55.6803C14.9827 55.1103 17.8926 54.2102 20.6726 52.9802C20.7726 52.9302 21.1126 52.7702 21.4526 52.6102C21.8026 52.4402 21.8326 51.9603 21.5126 51.7503C20.2026 50.8803 18.8326 49.8502 17.4026 48.6502Z" fill="black"/>
<path d="M45.7625 14.8502C47.2225 16.0702 48.4926 17.2802 49.6026 18.4502C50.0426 18.9102 50.7926 18.8403 51.1526 18.3103C51.5826 17.6703 52.0126 17.0302 52.4326 16.3902C52.6726 16.0202 52.6426 15.5302 52.3526 15.2002C50.0526 12.5102 47.3326 10.2303 44.2826 8.43026C43.9026 8.21026 43.4226 8.26027 43.0926 8.56027C42.5326 9.08027 41.9726 9.62023 41.4226 10.1502C40.9626 10.5902 41.0226 11.3502 41.5526 11.7002C42.9026 12.5902 44.3125 13.6302 45.7625 14.8502Z" fill="black"/>
</svg>
