<svg width="64" height="65" viewBox="0 0 64 65" fill="none" xmlns="http://www.w3.org/2000/svg">
<path d="M47.7298 56.6836C25.9398 53.9636 9.79977 35.1236 10.4398 13.1836C10.4698 12.0236 11.1798 10.9836 12.2498 10.5136L13.0998 10.1136C16.5698 8.47357 20.3898 7.70359 24.2198 7.88359L24.9398 7.91359C26.1598 7.96359 27.2198 8.75358 27.6298 9.90358L27.8498 10.5936C28.9598 14.0736 29.1698 17.7836 28.4498 21.3636C28.3098 22.0936 27.9098 22.7436 27.3198 23.1936L23.0098 26.4736C22.7098 26.7036 22.5598 27.0836 22.6298 27.4536C23.9398 34.3836 28.8398 40.0936 35.4898 42.4536C35.8498 42.5836 36.2498 42.4936 36.5198 42.2336L40.4198 38.4736C40.9498 37.9636 41.6599 37.6636 42.3999 37.6336C46.0499 37.4736 49.6798 38.2436 52.9498 39.8736L53.5998 40.1936C54.6698 40.7736 55.2899 41.9436 55.1599 43.1636L55.0898 43.8636C54.6598 48.0036 53.1199 51.9536 50.6499 55.3136C50.0199 56.2936 48.8798 56.8336 47.7298 56.6836Z" fill="black"/>
</svg>
