<svg width="64" height="65" viewBox="0 0 64 65" fill="none" xmlns="http://www.w3.org/2000/svg">
<path d="M47.7298 56.6836C25.9398 53.9636 9.79977 35.1236 10.4398 13.1836C10.4698 12.0236 11.1798 10.9836 12.2498 10.5136L13.0998 10.1136C16.5698 8.47357 20.3898 7.70359 24.2198 7.88359L24.9398 7.91359C26.1598 7.96359 27.2197 8.75358 27.6297 9.90358L27.8498 10.5936C28.9598 14.0736 29.1698 17.7836 28.4498 21.3636C28.3098 22.0936 27.9098 22.7436 27.3198 23.1936L23.0097 26.4736C22.7097 26.7036 22.5597 27.0836 22.6297 27.4536C23.9397 34.3836 28.8398 40.0936 35.4898 42.4536C35.8498 42.5836 36.2497 42.4936 36.5197 42.2336L40.4198 38.4736C40.9498 37.9636 41.6597 37.6636 42.3997 37.6336C46.0497 37.4736 49.6798 38.2436 52.9498 39.8736L53.5998 40.1936C54.6698 40.7736 55.2897 41.9436 55.1597 43.1636L55.0898 43.8636C54.6598 48.0036 53.1197 51.9536 50.6497 55.3136C50.0197 56.2936 48.8898 56.8336 47.7298 56.6836Z" fill="black"/>
<path d="M45.7898 7.83356C39.1598 7.83356 33.7898 13.2036 33.7898 19.8336C33.7898 26.4636 39.1598 31.8336 45.7898 31.8336C52.4198 31.8336 57.7899 26.4636 57.7899 19.8336C57.7899 13.2036 52.4198 7.83356 45.7898 7.83356ZM51.2898 21.4736H48.2898C47.7398 21.4736 47.2898 21.9236 47.2898 22.4736V25.4736C47.2898 26.3036 46.6198 26.9736 45.7898 26.9736C44.9598 26.9736 44.2898 26.3036 44.2898 25.4736V22.4736C44.2898 21.9236 43.8398 21.4736 43.2898 21.4736H40.2898C39.4598 21.4736 38.7898 20.8036 38.7898 19.9736C38.7898 19.1436 39.4598 18.4736 40.2898 18.4736H43.2898C43.8398 18.4736 44.2898 18.0236 44.2898 17.4736V14.4736C44.2898 13.6436 44.9598 12.9736 45.7898 12.9736C46.6198 12.9736 47.2898 13.6436 47.2898 14.4736V17.4736C47.2898 18.0236 47.7398 18.4736 48.2898 18.4736H51.2898C52.1198 18.4736 52.7898 19.1436 52.7898 19.9736C52.7898 20.8036 52.1198 21.4736 51.2898 21.4736Z" fill="black"/>
</svg>
