<svg width="64" height="64" viewBox="0 0 64 64" fill="none" xmlns="http://www.w3.org/2000/svg">
<path d="M26.7797 25.69C26.7797 27.69 25.1598 29.3 23.1698 29.3C21.1698 29.3 19.5598 27.68 19.5598 25.69C19.5598 23.69 21.1798 22.08 23.1698 22.08C25.1598 22.07 26.7797 23.69 26.7797 25.69ZM33.2198 42.93C37.8998 42.93 42.6197 42.64 47.2697 42.07C47.7297 42.01 48.0897 41.65 48.1497 41.19C48.5897 37.64 48.7798 34.07 48.7098 30.5C48.6998 29.94 48.4497 29.42 48.0397 29.05L42.5297 24.1C42.1097 23.73 41.4698 23.77 41.0998 24.19L28.6698 38.63C28.2997 39.06 27.6398 39.1 27.2198 38.7L23.9198 35.56C23.5098 35.17 22.8498 35.2 22.4798 35.63L18.5097 40.16C18.3197 40.37 18.2397 40.65 18.2697 40.93C18.2797 41.01 18.2898 41.1 18.2998 41.18C18.3498 41.64 18.7098 42.01 19.1698 42.07C23.8198 42.64 28.5398 42.93 33.2198 42.93ZM33.2198 18.07C27.8898 18.07 22.5198 18.44 17.2398 19.16C16.3598 19.28 15.6597 19.98 15.5297 20.85C14.4497 28.25 14.4497 35.75 15.5297 43.14C15.6597 44.02 16.3598 44.71 17.2398 44.83C22.5198 45.55 27.8998 45.92 33.2198 45.92C38.5398 45.92 43.9198 45.55 49.1998 44.83C50.0798 44.71 50.7797 44.01 50.9097 43.14C51.9897 35.74 51.9897 28.24 50.9097 20.85C50.7797 19.97 50.0798 19.28 49.1998 19.16C43.9298 18.44 38.5498 18.07 33.2198 18.07ZM33.2198 13.07C38.7898 13.07 44.3498 13.45 49.8798 14.21C52.9698 14.63 55.3998 17.05 55.8598 20.13C57.0098 28 57.0098 36 55.8598 43.87C55.4098 46.95 52.9698 49.37 49.8798 49.79C44.3498 50.55 38.7898 50.93 33.2198 50.93C27.6498 50.93 22.0898 50.55 16.5598 49.79C13.4698 49.37 11.0398 46.95 10.5798 43.87C9.42979 36 9.42979 28 10.5798 20.13C11.0298 17.05 13.4698 14.63 16.5598 14.21C22.0898 13.45 27.6598 13.07 33.2198 13.07Z" fill="black"/>
</svg>
