<svg width="64" height="64" viewBox="0 0 64 64" fill="none" xmlns="http://www.w3.org/2000/svg">
<path d="M54.3601 21.7802C53.9101 18.7002 51.47 16.2802 48.39 15.8602C37.33 14.3402 26.12 14.3402 15.07 15.8602C11.98 16.2802 9.55004 18.7002 9.09004 21.7802C7.94004 29.6502 7.94004 37.6502 9.09004 45.5202C9.54004 48.6002 11.98 51.0202 15.07 51.4402C26.13 52.9602 37.34 52.9602 48.39 51.4402C51.48 51.0202 53.9101 48.6002 54.3601 45.5202C55.5101 37.6502 55.5101 29.6502 54.3601 21.7802ZM19.7401 22.7802C22.1101 22.7802 24.03 24.7002 24.03 27.0702C24.03 29.4402 22.1101 31.3602 19.7401 31.3602C17.3701 31.3602 15.45 29.4402 15.45 27.0702C15.46 24.7002 17.3701 22.7802 19.7401 22.7802ZM49.45 44.8202C49.34 45.7302 48.61 46.4602 47.7 46.5702C42.39 47.2002 37.01 47.5202 31.67 47.5202C26.12 47.5202 20.5201 47.1802 15.0001 46.4902C14.4501 46.4202 14.03 45.9902 13.96 45.4402C13.95 45.3402 13.94 45.2402 13.93 45.1502C13.89 44.8202 14 44.4902 14.22 44.2302L18.92 38.8602C19.36 38.3502 20.1401 38.3202 20.6301 38.7802L24.55 42.5002C25.04 42.9702 25.82 42.9302 26.27 42.4102L41.02 25.2802C41.45 24.7802 42.22 24.7302 42.71 25.1702L49.2501 31.0402C49.7401 31.4802 50.03 32.1002 50.05 32.7602C50.12 36.7902 49.93 40.8202 49.45 44.8202Z" fill="black"/>
</svg>
