<svg width="64" height="64" viewBox="0 0 64 64" fill="none" xmlns="http://www.w3.org/2000/svg">
<path d="M59.4799 32.5102C58.1399 25.2302 55.7499 18.1802 52.3699 11.5802C51.0599 9.03023 48.2599 7.59022 45.4399 8.13022C37.1699 9.72022 29.0999 12.2302 21.3899 15.5902C20.8899 15.8102 21.0599 16.5702 21.6099 16.5402C23.2399 16.4702 24.8699 16.4302 26.4899 16.4302C31.7599 16.4302 37.0699 16.7902 42.2999 17.5002C46.5099 18.0702 49.9099 21.3202 50.5299 25.5302C51.2399 30.3602 51.4899 35.2402 51.2999 40.1102C51.2699 40.8502 52.0199 41.3802 52.6999 41.0702C53.82 40.5602 54.9299 40.0402 56.0299 39.4902C58.6299 38.1902 59.9999 35.3502 59.4799 32.5102Z" fill="black"/>
<path d="M42.0099 20.4902C36.8599 19.7802 31.6799 19.4302 26.4999 19.4302C21.3199 19.4302 16.1399 19.7802 10.9899 20.4902C8.11988 20.8802 5.84994 23.1302 5.42994 26.0002C4.35994 33.3302 4.35994 40.7702 5.42994 48.1002C5.84994 50.9702 8.11988 53.2202 10.9899 53.6102C16.1399 54.3202 21.3199 54.6702 26.4999 54.6702C31.6799 54.6702 36.8699 54.3202 42.0099 53.6102C44.8799 53.2202 47.15 50.9702 47.57 48.1002C48.64 40.7702 48.64 33.3302 47.57 26.0002C47.16 23.1402 44.8899 20.8902 42.0099 20.4902ZM15.5499 27.2102C17.7199 27.2102 19.4699 28.9702 19.4699 31.1302C19.4699 33.3002 17.7099 35.0502 15.5499 35.0502C13.3899 35.0502 11.6299 33.2902 11.6299 31.1302C11.6299 28.9702 13.3899 27.2102 15.5499 27.2102ZM42.6599 47.9502C42.5999 48.4502 42.2 48.8402 41.71 48.9002C36.66 49.5202 31.5399 49.8402 26.4699 49.8402C21.3999 49.8402 16.2699 49.5202 11.2299 48.9002C10.7299 48.8402 10.3399 48.4402 10.2799 47.9402C10.2699 47.8502 10.2599 47.7602 10.2499 47.6702C10.2199 47.3702 10.3099 47.0602 10.5099 46.8302L14.8099 41.9202C15.2199 41.4602 15.9299 41.4202 16.3699 41.8502L19.95 45.2502C20.4 45.6802 21.1199 45.6402 21.5199 45.1702L35.0099 29.5002C35.4099 29.0402 36.0999 28.9902 36.5599 29.4002L42.5399 34.7702C42.9899 35.1702 43.2599 35.7402 43.2699 36.3502C43.3399 40.2202 43.1399 44.0902 42.6599 47.9502Z" fill="black"/>
</svg>
