<svg width="64" height="64" viewBox="0 0 64 64" fill="none" xmlns="http://www.w3.org/2000/svg">
<path d="M61.1998 31.9902C59.8598 24.7102 57.4699 17.6602 54.0899 11.0602C53.5299 9.96024 52.6798 9.07024 51.6698 8.46024C50.6598 7.85024 49.4899 7.51025 48.2899 7.51025C47.8799 7.51025 47.4698 7.55025 47.0498 7.63025C36.8498 9.60025 26.9698 12.9603 17.6698 17.6003C16.8898 17.9903 16.2298 18.5203 15.6898 19.1403C15.3798 19.5003 14.9298 19.7002 14.4598 19.7502C13.8698 19.8202 13.2898 19.8902 12.6998 19.9702C11.6198 20.1202 10.6299 20.5302 9.78993 21.1302C8.38993 22.1402 7.3999 23.6903 7.1399 25.4803C6.0699 32.8103 6.0699 40.2503 7.1399 47.5803C7.3499 49.0203 8.01989 50.2903 8.99989 51.2603C9.97989 52.2303 11.2598 52.8902 12.6998 53.0902C17.8498 53.8002 23.0298 54.1502 28.2098 54.1502C33.3898 54.1502 38.5699 53.8002 43.7199 53.0902C45.5199 52.8402 47.0799 51.8703 48.0999 50.4803C48.7099 49.6403 49.1299 48.6503 49.2899 47.5803C49.4499 46.4803 49.5798 45.3802 49.6998 44.2802C49.8098 43.2002 50.5199 42.2803 51.5199 41.8503C53.6099 40.9603 55.6698 40.0002 57.7099 38.9902C58.8899 38.4002 59.8298 37.4902 60.4498 36.4002C61.1898 35.1002 61.4898 33.5402 61.1998 31.9902ZM44.3499 46.8603C44.2499 47.5203 43.7198 48.0503 43.0598 48.1403C38.1598 48.8103 33.1699 49.1502 28.2299 49.1502C23.2899 49.1502 18.2999 48.8103 13.3999 48.1403C12.7299 48.0503 12.1999 47.5203 12.1099 46.8603C11.1099 40.0103 11.1099 33.0602 12.1099 26.2102C12.2099 25.5502 12.7399 25.0202 13.3999 24.9302C18.2999 24.2602 23.2899 23.9203 28.2299 23.9203C33.1699 23.9203 38.1598 24.2602 43.0598 24.9302C43.7298 25.0202 44.2599 25.5502 44.3499 26.2102C45.3499 33.0602 45.3499 40.0103 44.3499 46.8603ZM55.4699 34.5203C54.0399 35.2303 52.5899 35.9003 51.1299 36.5403C50.6399 36.7603 50.0899 36.4003 50.0899 35.8603C50.0599 32.4103 49.7998 28.9602 49.2998 25.5302C48.8798 22.6602 46.6698 20.3703 43.7998 19.9803C38.8398 19.3003 33.8499 18.9102 28.8499 18.9102C28.1599 18.9102 28.2299 18.6802 28.2299 18.5602C28.2199 18.3602 28.5899 18.2102 28.7199 18.1502C34.9499 15.6902 41.4099 13.8003 47.9999 12.5203C48.0999 12.5003 48.1899 12.4902 48.2899 12.4902C48.8599 12.4902 49.3799 12.8103 49.6399 13.3203C52.7899 19.4903 55.0299 26.0602 56.2799 32.8802C56.4099 33.5502 56.0699 34.2203 55.4699 34.5203ZM22.2299 30.6602C22.2299 32.5202 20.7199 34.0203 18.8699 34.0203C17.0099 34.0203 15.5099 32.5102 15.5099 30.6602C15.5099 28.8002 17.0199 27.3003 18.8699 27.3003C20.7199 27.3003 22.2299 28.8002 22.2299 30.6602ZM15.1399 45.9102C14.7099 45.8602 14.3798 45.5102 14.3298 45.0902C14.3198 45.0102 14.3098 44.9403 14.2998 44.8603C14.2698 44.6003 14.3499 44.3403 14.5199 44.1403L18.2098 39.9302C18.5598 39.5302 19.1698 39.5002 19.5498 39.8702L22.6199 42.7903C23.0099 43.1603 23.6199 43.1302 23.9699 42.7202L35.5399 29.2802C35.8799 28.8802 36.4799 28.8502 36.8699 29.1902L41.9999 33.7903C42.3899 34.1403 42.6099 34.6203 42.6199 35.1403C42.6899 38.4603 42.5199 41.7902 42.0999 45.1003C42.0499 45.5303 41.7099 45.8603 41.2799 45.9203C36.9499 46.4503 32.5598 46.7202 28.1998 46.7202C23.8698 46.7102 19.4699 46.4402 15.1399 45.9102Z" fill="black"/>
</svg>
