<svg width="64" height="64" viewBox="0 0 64 64" fill="none" xmlns="http://www.w3.org/2000/svg">
<path d="M31.8701 44.02C32.3201 44 32.7201 44.3 32.8501 44.74L32.8701 44.76C33.1901 45.82 33.6801 46.83 34.3201 47.77C34.6501 48.26 34.3401 48.93 33.7501 48.96C31.7701 49.06 29.7901 49.12 27.8101 49.12C22.2101 49.12 16.6001 48.74 11.0401 47.97C7.98011 47.54 5.62012 45.11 5.17012 42.06C4.02012 34.19 4.02012 26.19 5.17012 18.32C5.62012 15.26 7.98011 12.83 11.0401 12.41C16.6001 11.64 22.2201 11.26 27.8101 11.26C33.4001 11.26 38.9901 11.65 44.5401 12.41C47.6101 12.83 50.0001 15.26 50.4501 18.32C51.0301 22.32 51.3101 26.36 51.3001 30.39C51.3001 30.83 51.0001 31.21 50.5701 31.35C49.9901 31.53 49.4201 31.77 48.8801 32.05C48.5801 32.2 48.2401 32.2 47.9401 32.05C47.6201 31.88 47.2901 31.74 46.9501 31.61C46.5501 31.46 46.2901 31.09 46.2901 30.67C46.3101 26.78 46.0601 22.89 45.4901 19.03C45.3601 18.15 44.6601 17.46 43.7801 17.34C38.5001 16.62 33.1301 16.25 27.8001 16.25C22.4701 16.25 17.1001 16.62 11.8201 17.34C10.9401 17.46 10.2401 18.15 10.1101 19.03C9.03012 26.42 9.03012 33.92 10.1101 41.32C10.2401 42.2 10.9401 42.89 11.8201 43.01C17.1001 43.73 22.4701 44.1 27.8001 44.1C29.1501 44.1 30.5101 44.07 31.8701 44.02Z" fill="black"/>
<path d="M21.3601 23.86C21.3601 25.8537 19.7439 27.47 17.7501 27.47C15.7564 27.47 14.1401 25.8537 14.1401 23.86C14.1401 21.8663 15.7564 20.25 17.7501 20.25C19.7439 20.25 21.3601 21.8663 21.3601 23.86Z" fill="black"/>
<path d="M53.8502 33.79C55.9302 33.79 58.0202 34.64 59.5602 36.31H59.5702C62.3502 39.32 62.0602 44.25 59.1902 47.12L50.4802 55.83C49.9002 56.4 49.1602 56.69 48.4202 56.69C47.6802 56.69 46.9302 56.4 46.3602 55.83L37.6502 47.12C34.8302 44.25 34.5402 39.32 37.2702 36.31C38.7902 34.64 40.8702 33.81 42.9502 33.81C44.6902 33.81 46.4302 34.39 47.8502 35.54C48.0102 35.69 48.2202 35.76 48.4202 35.76C48.6202 35.76 48.8202 35.68 48.9902 35.54C50.4002 34.37 52.1202 33.79 53.8502 33.79Z" fill="black"/>
<path d="M35.0401 34.3C36.8401 32.32 38.8301 31.09 41.4901 30.86H42.2901C42.8401 30.86 43.2901 30.42 43.2901 29.87V28.66C43.2801 28.11 43.0301 27.59 42.6201 27.22L37.1101 22.27C36.6901 21.9 36.0501 21.94 35.6801 22.36L23.2501 36.8C22.8801 37.23 22.2201 37.27 21.8001 36.87L18.5001 33.73C18.0901 33.34 17.4301 33.37 17.0601 33.8L13.0901 38.33C12.9001 38.54 12.8201 38.82 12.8501 39.1C12.8501 39.1549 12.8596 39.2145 12.8687 39.2724C12.8729 39.2988 12.877 39.3249 12.8801 39.35C12.9301 39.81 13.2901 40.18 13.7501 40.24C18.4001 40.81 23.1201 41.1 27.8001 41.1C29.0201 41.1 30.2501 41.07 31.4801 41.03C31.9601 41.01 32.3801 40.65 32.4401 40.17C32.6801 38.02 33.5401 35.96 35.0501 34.29L35.0401 34.3Z" fill="black"/>
</svg>
