<svg width="64" height="64" viewBox="0 0 64 64" fill="none" xmlns="http://www.w3.org/2000/svg">
<path d="M17.7999 25.4301C19.7937 25.4301 21.4099 23.8138 21.4099 21.8201C21.4099 19.8263 19.7937 18.2101 17.7999 18.2101C15.8062 18.2101 14.1899 19.8263 14.1899 21.8201C14.1899 23.8138 15.8062 25.4301 17.7999 25.4301Z" fill="black"/>
<path d="M27.8499 39.0601C32.5299 39.0601 37.2499 38.7701 41.8999 38.2001C42.3599 38.1401 42.7199 37.7801 42.7799 37.3201C43.2199 33.7701 43.4099 30.2001 43.3399 26.6301C43.3299 26.0701 43.0799 25.5501 42.6699 25.1801L37.1599 20.2301C36.7399 19.8601 36.0999 19.9001 35.7299 20.3201L23.2999 34.7601C22.9299 35.1901 22.2699 35.2301 21.8499 34.8301L18.5499 31.6901C18.1399 31.3001 17.4799 31.3301 17.1099 31.7601L13.1399 36.2901C12.9499 36.5001 12.8699 36.7801 12.8999 37.0601C12.8999 37.1401 12.9199 37.2301 12.9299 37.3101C12.9799 37.7701 13.3399 38.1401 13.7999 38.2001C18.4499 38.7701 23.1699 39.0601 27.8499 39.0601Z" fill="black"/>
<path d="M32.3299 44.2101C32.3299 43.7701 32.3799 43.3301 32.4799 42.9201C32.5999 42.4301 32.2399 41.9601 31.7399 41.9801C30.4399 42.0301 29.1499 42.0601 27.8499 42.0601C22.5199 42.0601 17.1499 41.6901 11.8699 40.9701C10.9899 40.8501 10.2899 40.1601 10.1599 39.2801C9.07992 31.8801 9.07992 24.3801 10.1599 16.9901C10.2899 16.1101 10.9899 15.4201 11.8699 15.3001C17.1499 14.5801 22.5199 14.2101 27.8499 14.2101C33.1799 14.2101 38.5499 14.5801 43.8299 15.3001C44.7099 15.4201 45.4099 16.1101 45.5399 16.9901C46.0499 20.4501 46.3099 23.9301 46.3399 27.4101C46.3399 27.9001 46.7999 28.2401 47.2799 28.1201C47.6999 28.0201 48.1299 27.9601 48.5799 27.9601C49.1799 27.9601 49.7599 28.0601 50.3099 28.2401C50.8099 28.4101 51.3499 28.0701 51.3399 27.5401C51.3099 23.7701 51.0299 20.0001 50.4899 16.2701C50.2699 14.7801 49.5899 13.4401 48.5899 12.4101C47.5299 11.3101 46.1099 10.5701 44.5199 10.3501C38.9899 9.59008 33.4299 9.21008 27.8599 9.21008C22.2899 9.21008 16.7299 9.59008 11.1999 10.3501C9.75993 10.5501 8.46993 11.1701 7.44993 12.1001C6.27993 13.1601 5.46993 14.6201 5.22993 16.2701C4.07993 24.1401 4.07993 32.1401 5.22993 40.0101C5.39993 41.1701 5.84992 42.2301 6.49992 43.1301C7.59992 44.6301 9.26993 45.6701 11.1999 45.9301C16.7299 46.6901 22.2999 47.0701 27.8599 47.0701C29.2199 47.0701 30.5899 47.0401 31.9499 46.9901C32.4699 46.9701 32.7899 46.4501 32.6199 45.9701C32.4399 45.4201 32.3399 44.8401 32.3399 44.2301L32.3299 44.2101Z" fill="black"/>
<path d="M59.1999 41.7101H52.0799C51.5299 41.7101 51.0799 41.2601 51.0799 40.7101V33.5901C51.0799 32.2801 50.1399 31.0901 48.8399 30.9601C47.3399 30.8101 46.0799 31.9801 46.0799 33.4501V40.7101C46.0799 41.2601 45.6299 41.7101 45.0799 41.7101H37.9599C36.6499 41.7101 35.4599 42.6501 35.3299 43.9501C35.1799 45.4501 36.3499 46.7101 37.8199 46.7101H45.0799C45.6299 46.7101 46.0799 47.1601 46.0799 47.7101V54.8301C46.0799 56.1401 47.0199 57.3301 48.3199 57.4601C49.8199 57.6101 51.0799 56.4401 51.0799 54.9701V47.7101C51.0799 47.1601 51.5299 46.7101 52.0799 46.7101H59.3399C60.8099 46.7101 61.9799 45.4501 61.8299 43.9501C61.6999 42.6501 60.5099 41.7101 59.1999 41.7101Z" fill="black"/>
</svg>
