<svg width="65" height="64" viewBox="0 0 65 64" fill="none" xmlns="http://www.w3.org/2000/svg">
<path d="M32.2627 12.13C43.2927 12.13 52.2627 21.1 52.2627 32.13C52.2627 43.16 43.2927 52.13 32.2627 52.13C21.2327 52.13 12.2627 43.16 12.2627 32.13C12.2627 21.1 21.2327 12.13 32.2627 12.13ZM32.2627 7.13C18.4527 7.13 7.2627 18.32 7.2627 32.13C7.2627 45.94 18.4527 57.13 32.2627 57.13C46.0727 57.13 57.2627 45.94 57.2627 32.13C57.2627 18.33 46.0727 7.13 32.2627 7.13ZM43.1227 29.9H35.7627C35.2127 29.9 34.7627 29.45 34.7627 28.9V20.54C34.7627 19.23 33.8227 18.04 32.5227 17.91C31.0227 17.76 29.7627 18.93 29.7627 20.4V28.9C29.7627 29.45 29.3127 29.9 28.7627 29.9H21.4027C20.0927 29.9 18.9027 30.84 18.7727 32.14C18.6227 33.64 19.7927 34.9 21.2627 34.9H28.7627C29.3127 34.9 29.7627 35.35 29.7627 35.9V44.26C29.7627 45.57 30.7027 46.76 32.0027 46.89C33.5027 47.04 34.7627 45.87 34.7627 44.4V35.9C34.7627 35.35 35.2127 34.9 35.7627 34.9H43.2627C44.7327 34.9 45.9027 33.64 45.7527 32.14C45.6127 30.84 44.4227 29.9 43.1227 29.9Z" fill="black"/>
</svg>
