<svg width="65" height="65" viewBox="0 0 65 65" fill="none" xmlns="http://www.w3.org/2000/svg">
<path d="M32.2627 7.14355C18.4527 7.14355 7.2627 18.3336 7.2627 32.1436C7.2627 45.9536 18.4527 57.1436 32.2627 57.1436C46.0727 57.1436 57.2627 45.9536 57.2627 32.1436C57.2627 18.3336 46.0727 7.14355 32.2627 7.14355ZM43.2627 34.9136H35.7627C35.2127 34.9136 34.7627 35.3636 34.7627 35.9136V44.4136C34.7627 45.8836 33.5027 47.0536 32.0027 46.9036C30.7027 46.7736 29.7627 45.5836 29.7627 44.2736V35.9136C29.7627 35.3636 29.3127 34.9136 28.7627 34.9136H21.2627C19.7927 34.9136 18.6227 33.6536 18.7727 32.1536C18.9027 30.8536 20.0927 29.9136 21.4027 29.9136H28.7627C29.3127 29.9136 29.7627 29.4636 29.7627 28.9136V20.4136C29.7627 18.9436 31.0227 17.7736 32.5227 17.9236C33.8227 18.0536 34.7627 19.2436 34.7627 20.5536V28.9136C34.7627 29.4636 35.2127 29.9136 35.7627 29.9136H43.1227C44.4327 29.9136 45.6227 30.8536 45.7527 32.1536C45.8927 33.6536 44.7227 34.9136 43.2627 34.9136Z" fill="black"/>
</svg>
