<svg width="65" height="64" viewBox="0 0 65 64" fill="none" xmlns="http://www.w3.org/2000/svg">
<path d="M48.9827 29.46H35.6628C35.1128 29.46 34.6628 29.01 34.6628 28.46V16.14C34.6628 14.83 33.7228 13.64 32.4228 13.51C30.9228 13.36 29.6628 14.53 29.6628 16V28.46C29.6628 29.01 29.2128 29.46 28.6628 29.46H15.2727C13.9627 29.46 12.7727 30.4 12.6427 31.7C12.4927 33.2 13.6627 34.46 15.1327 34.46H28.6728C29.2228 34.46 29.6728 34.91 29.6728 35.46V47.86C29.6728 49.17 30.6128 50.36 31.9128 50.49C33.4128 50.64 34.6728 49.47 34.6728 48V35.46C34.6728 34.91 35.1228 34.46 35.6728 34.46H49.1227C50.5927 34.46 51.7627 33.2 51.6127 31.7C51.4827 30.4 50.2927 29.46 48.9827 29.46Z" fill="black"/>
</svg>
