<svg width="64" height="65" viewBox="0 0 64 65" fill="none" xmlns="http://www.w3.org/2000/svg">
<path d="M43.8599 14.4864C43.8599 15.0864 43.3299 15.5564 42.7399 15.4764C35.5199 14.5764 28.2099 14.5764 20.9899 15.4764C20.3899 15.5464 19.87 15.0864 19.87 14.4864C19.87 11.7064 21.9399 9.35644 24.6999 9.01644C29.4599 8.41644 34.2799 8.41644 39.0399 9.01644C41.7899 9.35644 43.8599 11.7064 43.8599 14.4864ZM57.6999 37.8064C56.5799 41.6364 53.2999 44.4364 49.3399 44.9264L49.0599 44.9564C48.1399 45.0664 47.2199 45.1764 46.2999 45.2664C45.8499 47.8664 44.6999 50.3264 42.9399 52.3664C40.1499 55.5764 36.1099 57.4264 31.8599 57.4264C27.6099 57.4264 23.5699 55.5864 20.7799 52.3664C19.0099 50.3264 17.8699 47.8664 17.4199 45.2664C16.4999 45.1764 15.5799 45.0764 14.6599 44.9564C10.5599 44.4464 7.19991 41.4664 6.19991 37.4564L6.08992 37.0364C5.27992 33.7964 5.27992 30.4164 6.08992 27.1764L6.19991 26.7564C7.19991 22.7464 10.5599 19.7664 14.6599 19.2564C26.0799 17.8264 37.6399 17.8264 49.0599 19.2564L49.3399 19.2864C53.2999 19.7764 56.5799 22.5764 57.6999 26.4064C58.7899 30.1364 58.7899 34.0864 57.6999 37.8064ZM41.4299 41.3964L40.9099 37.7564C40.8399 37.2564 40.4099 36.8964 39.9199 36.8964C39.8899 36.8964 39.8599 36.8964 39.8399 36.8964C37.1899 37.1164 34.5199 37.2264 31.8599 37.2264C29.1999 37.2264 26.54 37.1164 23.88 36.8964C23.85 36.8964 23.8199 36.8964 23.7999 36.8964C23.3099 36.8964 22.8799 37.2564 22.8099 37.7564L22.2899 41.3964C21.4599 47.2164 25.9799 52.4264 31.8599 52.4264C37.7399 52.4264 42.2599 47.2164 41.4299 41.3964ZM53.7999 26.1864C53.7999 24.7964 52.6699 23.6764 51.2899 23.6764C49.8999 23.6764 48.7799 24.8064 48.7799 26.1864C48.7799 27.5764 49.9099 28.6964 51.2899 28.6964C52.6799 28.6964 53.7999 27.5764 53.7999 26.1864Z" fill="black"/>
</svg>
