<svg width="64" height="64" viewBox="0 0 64 64" fill="none" xmlns="http://www.w3.org/2000/svg">
<path d="M23.48 12.6702H15.17C13.79 12.6702 12.67 13.7902 12.67 15.1702V23.4802C12.67 24.8602 13.79 25.9802 15.17 25.9802H23.48C24.86 25.9802 25.98 24.8602 25.98 23.4802V15.1702C25.98 13.7902 24.86 12.6702 23.48 12.6702ZM19.98 20.9802H18.67C18.12 20.9802 17.67 20.5302 17.67 19.9802V18.6702C17.67 18.1202 18.12 17.6702 18.67 17.6702H19.98C20.53 17.6702 20.98 18.1202 20.98 18.6702V19.9802C20.98 20.5302 20.53 20.9802 19.98 20.9802Z" fill="black"/>
<path d="M48.84 12.6702H40.53C39.15 12.6702 38.03 13.7902 38.03 15.1702V23.4802C38.03 24.8602 39.15 25.9802 40.53 25.9802H48.84C50.22 25.9802 51.34 24.8602 51.34 23.4802V15.1702C51.34 13.7902 50.22 12.6702 48.84 12.6702ZM45.34 20.9802H44.03C43.48 20.9802 43.03 20.5302 43.03 19.9802V18.6702C43.03 18.1202 43.48 17.6702 44.03 17.6702H45.34C45.89 17.6702 46.34 18.1202 46.34 18.6702V19.9802C46.34 20.5302 45.89 20.9802 45.34 20.9802Z" fill="black"/>
<path d="M42.45 38.0202H40.52C39.1393 38.0202 38.02 39.1395 38.02 40.5202V42.4502C38.02 43.8309 39.1393 44.9502 40.52 44.9502H42.45C43.8307 44.9502 44.95 43.8309 44.95 42.4502V40.5202C44.95 39.1395 43.8307 38.0202 42.45 38.0202Z" fill="black"/>
<path d="M32.97 38.0202H31.04C29.66 38.0202 28.54 39.1402 28.54 40.5202V42.4502C28.54 43.0602 28.76 43.6102 29.12 44.0502C29.42 44.4002 29.42 44.9502 29.12 45.3002C28.76 45.7302 28.54 46.2902 28.54 46.9002V48.8302C28.54 50.2102 29.66 51.3302 31.04 51.3302H32.97C34.35 51.3302 35.47 50.2102 35.47 48.8302V46.9002C35.47 46.2902 35.25 45.7402 34.89 45.3002C34.59 44.9502 34.59 44.4002 34.89 44.0502C35.25 43.6202 35.47 43.0602 35.47 42.4502V40.5202C35.47 39.1402 34.35 38.0202 32.97 38.0202Z" fill="black"/>
<path d="M23.31 28.5302H21.38C19.9993 28.5302 18.88 29.6495 18.88 31.0302V32.9602C18.88 34.3409 19.9993 35.4602 21.38 35.4602H23.31C24.6907 35.4602 25.81 34.3409 25.81 32.9602V31.0302C25.81 29.6495 24.6907 28.5302 23.31 28.5302Z" fill="black"/>
<path d="M42.45 28.5302H40.52C39.1393 28.5302 38.02 29.6495 38.02 31.0302V32.9602C38.02 34.3409 39.1393 35.4602 40.52 35.4602H42.45C43.8307 35.4602 44.95 34.3409 44.95 32.9602V31.0302C44.95 29.6495 43.8307 28.5302 42.45 28.5302Z" fill="black"/>
<path d="M32.96 28.5302H31.03C29.6493 28.5302 28.53 29.6495 28.53 31.0302V32.9602C28.53 34.3409 29.6493 35.4602 31.03 35.4602H32.96C34.3407 35.4602 35.46 34.3409 35.46 32.9602V31.0302C35.46 29.6495 34.3407 28.5302 32.96 28.5302Z" fill="black"/>
<path d="M32.97 12.6702H31.04C29.66 12.6702 28.54 13.7902 28.54 15.1702V17.1002C28.54 17.7102 28.76 18.2602 29.12 18.7002C29.42 19.0502 29.42 19.6002 29.12 19.9502C28.76 20.3802 28.54 20.9402 28.54 21.5502V23.4802C28.54 24.8602 29.66 25.9802 31.04 25.9802H32.97C34.35 25.9802 35.47 24.8602 35.47 23.4802V21.5502C35.47 20.9402 35.25 20.3902 34.89 19.9502C34.59 19.6002 34.59 19.0502 34.89 18.7002C35.25 18.2702 35.47 17.7102 35.47 17.1002V15.1702C35.47 13.7902 34.35 12.6702 32.97 12.6702Z" fill="black"/>
<path d="M48.83 44.4002H46.9C45.5193 44.4002 44.4 45.5195 44.4 46.9002V48.8302C44.4 50.2109 45.5193 51.3302 46.9 51.3302H48.83C50.2107 51.3302 51.33 50.2109 51.33 48.8302V46.9002C51.33 45.5195 50.2107 44.4002 48.83 44.4002Z" fill="black"/>
<path d="M23.48 38.0202H15.17C13.79 38.0202 12.67 39.1402 12.67 40.5202V48.8302C12.67 50.2102 13.79 51.3302 15.17 51.3302H23.48C24.86 51.3302 25.98 50.2102 25.98 48.8302V40.5202C25.98 39.1402 24.86 38.0202 23.48 38.0202ZM19.98 46.3302H18.67C18.12 46.3302 17.67 45.8802 17.67 45.3302V44.0202C17.67 43.4702 18.12 43.0202 18.67 43.0202H19.98C20.53 43.0202 20.98 43.4702 20.98 44.0202V45.3302C20.98 45.8802 20.53 46.3302 19.98 46.3302Z" fill="black"/>
</svg>
