<svg width="64" height="65" viewBox="0 0 64 65" fill="none" xmlns="http://www.w3.org/2000/svg">
<path d="M29.5099 15.6141V17.6041C29.5099 18.1341 29.1 18.5741 28.58 18.5941C20.55 18.9641 15.3599 28.1641 19.2699 28.2741C24.8999 28.2741 29.85 33.1141 29.85 39.0841C29.85 44.9341 25.0099 49.7841 18.9299 49.7841C13.1899 49.7841 7.10986 45.7341 7.10986 35.8241C7.10986 21.2341 20.1899 14.5241 28.4999 14.6141C29.0599 14.6141 29.5099 15.0541 29.5099 15.6141ZM46.3999 28.2741C52.0299 28.2741 56.9799 33.1141 56.9799 39.0841C56.9799 44.9341 52.1399 49.7841 46.0599 49.7841C40.3199 49.7841 34.2399 45.7341 34.2399 35.8241C34.2399 21.2341 47.3199 14.5241 55.6399 14.6141C56.1999 14.6241 56.6499 15.0641 56.6499 15.6141V17.6041C56.6499 18.1341 56.24 18.5741 55.72 18.5941C47.68 18.9741 42.4999 28.1741 46.3999 28.2741Z" fill="black"/>
</svg>
