<svg width="64" height="65" viewBox="0 0 64 65" fill="none" xmlns="http://www.w3.org/2000/svg">
<path d="M13.2277 10.4637L27.0377 12.8937C28.2277 13.1037 29.0977 14.1337 29.1077 15.3437L29.1577 29.3637C29.1577 30.7437 28.0477 31.8637 26.6677 31.8737H26.6577C25.2777 31.8737 24.1577 30.7637 24.1577 29.3837L24.1278 21.4437C24.1278 20.8037 23.3778 20.4537 22.8878 20.8637C22.7978 20.9337 22.7277 21.0037 22.6577 21.0537C19.4977 23.8137 17.6077 27.6437 17.3277 31.8337C17.0477 36.0237 18.4177 40.0637 21.1877 43.2237C26.8977 49.7437 36.8377 50.4037 43.3577 44.6937C46.5177 41.9337 48.4077 38.1037 48.6877 33.9137C48.9677 29.7237 47.5977 25.6837 44.8277 22.5237C42.3677 19.7137 38.9777 17.8637 35.2777 17.3237C33.9077 17.1237 32.9677 15.8537 33.1677 14.4937C33.3677 13.1237 34.6378 12.1737 35.9978 12.3837C40.8778 13.0937 45.3477 15.5237 48.5877 19.2337C52.2277 23.3937 54.0377 28.7237 53.6677 34.2437C53.2977 39.7637 50.8077 44.8137 46.6477 48.4537C42.7277 51.8837 37.8678 53.5737 33.0178 53.5737C27.2478 53.5737 21.5177 51.1837 17.4277 46.5137C13.7877 42.3537 11.9777 37.0237 12.3477 31.5037C12.6977 26.2237 14.9977 21.3737 18.8377 17.7737C18.8377 17.7737 18.8377 17.7737 18.8477 17.7637C19.3077 17.3337 19.0877 16.5637 18.4677 16.4537L12.3677 15.3837C11.0077 15.1437 10.0977 13.8437 10.3377 12.4937C10.5677 11.1337 11.8577 10.2237 13.2277 10.4637Z" fill="black"/>
</svg>
