<svg width="64" height="65" viewBox="0 0 64 65" fill="none" xmlns="http://www.w3.org/2000/svg">
<path d="M50.78 10.4736L36.9699 12.9036C35.7799 13.1136 34.91 14.1436 34.9 15.3536L34.8499 29.3736C34.8499 30.7536 35.9599 31.8736 37.3399 31.8836H37.3499C38.7299 31.8836 39.8499 30.7736 39.8499 29.3936L39.88 21.4536C39.88 20.8136 40.6299 20.4636 41.1199 20.8736C41.2099 20.9436 41.2799 21.0136 41.3499 21.0636C44.5099 23.8236 46.4 27.6536 46.68 31.8436C46.96 36.0336 45.5899 40.0736 42.8199 43.2336C37.1099 49.7536 27.17 50.4136 20.65 44.7036C17.49 41.9436 15.5999 38.1136 15.3199 33.9236C15.0399 29.7336 16.41 25.6936 19.18 22.5336C21.64 19.7236 25.0299 17.8736 28.7299 17.3336C30.0999 17.1336 31.0399 15.8636 30.8399 14.5036C30.6399 13.1336 29.37 12.1836 28.01 12.3936C23.13 13.1036 18.66 15.5336 15.42 19.2436C11.78 23.4036 9.96992 28.7336 10.3399 34.2536C10.7099 39.7736 13.1999 44.8236 17.3599 48.4636C21.2799 51.8936 26.1399 53.5836 30.9899 53.5836C36.7599 53.5836 42.4899 51.1936 46.5799 46.5236C50.2199 42.3636 52.03 37.0336 51.66 31.5136C51.31 26.2336 49.01 21.3836 45.17 17.7836C45.17 17.7836 45.17 17.7836 45.16 17.7736C44.7 17.3436 44.92 16.5736 45.54 16.4636L51.64 15.3936C53 15.1536 53.91 13.8536 53.67 12.5036C53.43 11.1436 52.14 10.2336 50.78 10.4736Z" fill="black"/>
</svg>
