<svg width="65" height="65" viewBox="0 0 65 65" fill="none" xmlns="http://www.w3.org/2000/svg">
<path d="M31.7819 57.7836C31.8619 57.7836 31.9418 57.7836 32.0118 57.7836C37.4518 57.7836 42.5918 55.6936 46.4818 51.8736C50.4318 48.0036 52.6518 42.8336 52.7118 37.2936C52.7218 35.9136 51.6218 34.7836 50.2418 34.7636C48.8918 34.7736 47.7318 35.8536 47.7118 37.2336C47.6618 41.4336 45.9918 45.3536 42.9918 48.2936C39.9918 51.2236 36.0018 52.8536 31.8318 52.7736C27.6318 52.7236 23.7119 51.0536 20.7719 48.0536C17.8419 45.0536 16.2519 41.0936 16.2919 36.8936C16.3819 28.4336 23.1819 21.5936 31.5619 21.3636C31.6019 21.3636 31.7919 21.3736 32.0519 21.3736C32.8419 21.4036 33.2518 22.3436 32.7218 22.9436L27.7218 28.5636C26.8018 29.5936 26.8919 31.1736 27.9319 32.0936C28.4119 32.5136 29.0018 32.7236 29.5918 32.7236C30.2818 32.7236 30.9718 32.4436 31.4618 31.8836L40.7819 21.4036C41.5819 20.5036 41.6218 19.1436 40.8818 18.1936L32.2118 7.17355C31.3618 6.08355 29.7818 5.90357 28.7018 6.75357C27.6218 7.60357 27.4319 9.18358 28.2819 10.2636L31.8818 14.8436C32.3618 15.4536 31.9419 16.3436 31.1719 16.3636H31.1619C20.2319 16.8036 11.4119 25.7636 11.2919 36.8236C11.1719 48.2636 20.3619 57.6536 31.7819 57.7836Z" fill="black"/>
</svg>
