<svg width="64" height="65" viewBox="0 0 64 65" fill="none" xmlns="http://www.w3.org/2000/svg">
<path d="M55.5198 23.5364C54.8998 19.9764 51.3599 17.1764 46.8399 16.6964C43.0599 16.2864 39.2499 16.0464 35.4399 15.9564C35.0199 15.9464 34.7999 15.4664 35.0699 15.1464L36.5298 13.3964C37.3698 12.3964 37.4099 10.8764 36.4899 9.94643C35.4399 8.87643 33.7098 8.95645 32.7798 10.0864L27.8199 16.0364C26.7099 17.3764 26.7199 19.3164 27.8399 20.6564L32.9399 26.7264C33.4299 27.3164 34.1399 27.6164 34.8599 27.6164C35.3999 27.6164 35.9398 27.4464 36.3998 27.0864C37.5198 26.2064 37.5799 24.4764 36.6699 23.3864L35.3299 21.7964C35.0499 21.4664 35.2999 20.9564 35.7299 20.9664C39.2699 21.0564 42.8199 21.2864 46.3199 21.6664C48.7499 21.9264 50.4099 23.2564 50.5999 24.3864C51.8299 31.4964 51.8299 38.7164 50.5999 45.8264C50.3999 46.9564 48.7499 48.2864 46.3199 48.5464C41.6499 49.0464 36.8999 49.3064 32.1799 49.3064C27.4699 49.3064 22.7099 49.0564 18.0399 48.5464C15.6099 48.2864 13.95 46.9564 13.76 45.8264C12.53 38.7164 12.53 31.4964 13.76 24.3864C13.96 23.2564 15.6099 21.9264 18.0399 21.6664C20.1199 21.4464 22.2199 21.2664 24.3199 21.1464C24.6999 21.1264 24.9099 20.7164 24.7099 20.3964C24.3999 19.9064 24.0499 19.2364 23.9999 18.6664C23.9499 18.0664 24.0399 17.4564 24.2899 16.8964C24.4499 16.5364 24.1999 16.1364 23.8099 16.1664C21.6999 16.2964 19.5899 16.4764 17.4899 16.6964C12.9799 17.1864 9.42988 19.9764 8.80988 23.5364C7.47988 31.2164 7.47988 39.0064 8.80988 46.6764C9.42988 50.2364 12.9699 53.0364 17.4899 53.5164C22.3599 54.0364 27.2599 54.3064 32.1599 54.3064C37.0599 54.3064 41.9599 54.0464 46.8299 53.5164C51.3399 53.0264 54.89 50.2364 55.51 46.6764C56.85 38.9964 56.8498 31.2164 55.5198 23.5364Z" fill="black"/>
</svg>
