<svg width="64" height="65" viewBox="0 0 64 65" fill="none" xmlns="http://www.w3.org/2000/svg">
<g clip-path="url(#clip0_227_856)">
<path d="M48.3801 33.6978C48.3401 32.8778 48.5501 32.0778 49.0101 31.3978C51.7601 27.3278 53.4901 22.6678 55.0201 17.9978L57.7101 9.7878C58.3401 7.8678 56.5201 6.0478 54.6001 6.6778L46.3901 9.3678C41.7301 10.8978 37.0601 12.6278 32.9901 15.3778C32.3101 15.8378 31.5001 16.0478 30.6901 16.0078C21.0501 15.5478 11.7401 20.1978 6.38009 28.4678C5.76009 29.4178 6.60009 30.6378 7.71009 30.3978C11.0901 29.6778 14.5201 29.4278 17.9301 29.6378C18.7401 29.6878 19.2801 30.5378 18.9801 31.2978C18.5701 32.3378 18.1001 34.0378 17.7701 35.3178C17.5601 36.1078 18.1801 36.8478 19.0001 36.8478C23.6701 36.8778 27.5101 40.7178 27.5401 45.3878C27.5401 46.2078 28.2801 46.8278 29.0701 46.6178C30.3401 46.2878 32.0501 45.8178 33.0901 45.4078C33.8501 45.1078 34.7001 45.6478 34.7501 46.4578C34.9601 49.8678 34.7101 53.2978 33.9901 56.6778C33.7501 57.7878 34.9701 58.6278 35.9201 58.0078C44.1901 52.6478 48.8401 43.3378 48.3801 33.6978ZM47.9901 16.3978C50.1601 18.5678 50.1601 22.0978 47.9901 24.2678C45.8201 26.4378 42.2901 26.4378 40.1201 24.2678C37.9501 22.0978 37.9501 18.5678 40.1201 16.3978C42.2901 14.2278 45.8201 14.2278 47.9901 16.3978ZM17.6501 38.7878L17.8601 45.2778C17.8801 45.9578 18.4301 46.4978 19.1001 46.5178L25.5901 46.7278C26.2201 46.7478 26.3601 47.4678 25.9101 47.9178C21.3701 52.4578 14.6301 54.8378 9.54009 56.0878C8.77009 56.2778 8.09009 55.5978 8.28009 54.8278C9.53009 49.7478 12.0601 42.8478 16.4501 38.4578C16.9001 38.0078 17.6101 38.1478 17.6401 38.7778L17.6501 38.7878Z" fill="black"/>
</g>
<defs>
<clipPath id="clip0_227_856">
<rect width="64" height="64" fill="white" transform="translate(0 0.387817)"/>
</clipPath>
</defs>
</svg>
