<svg width="64" height="64" viewBox="0 0 64 64" fill="none" xmlns="http://www.w3.org/2000/svg">
<path d="M32 40.23C31.06 40.23 30.12 39.91 29.35 39.27L20.4199 31.79C19.2899 30.85 19.1999 29.13 20.2799 28.08C21.2199 27.17 22.74 27.21 23.74 28.05L28.6799 32.19C28.9999 32.47 29.5 32.23 29.5 31.81V13.09C29.5 11.62 30.76 10.45 32.26 10.6C33.56 10.73 34.5 11.92 34.5 13.23V31.81C34.5 32.23 34.9899 32.46 35.3199 32.19L40.37 27.96C41.5 27.02 43.2099 27.24 44.0499 28.48C44.7799 29.57 44.47 31.05 43.47 31.89L34.6499 39.27C33.8799 39.91 32.94 40.23 32 40.23Z" fill="black"/>
<path d="M52.0101 40.86C52.1901 39.49 53.45 38.54 54.82 38.72C56.19 38.91 57.15 40.17 56.98 41.54C56.79 42.92 56.3801 44.26 55.7601 45.5C55.1501 46.71 54.36 47.82 53.4 48.78C52.44 49.75 51.3401 50.55 50.1301 51.16C48.8901 51.79 47.56 52.21 46.18 52.41C43.85 52.74 41.47 52.99 39.11 53.16C36.76 53.33 34.3701 53.41 32.0101 53.41C29.6501 53.41 27.26 53.33 24.91 53.16C22.55 52.99 20.17 52.73 17.84 52.4C16.46 52.2 15.1301 51.78 13.8901 51.15C12.6801 50.54 11.58 49.73 10.62 48.77C9.66005 47.81 8.87006 46.7 8.26006 45.49C7.64006 44.25 7.22997 42.91 7.03997 41.53C6.84997 40.17 7.80998 38.91 9.17998 38.72C10.54 38.53 11.8 39.49 11.99 40.86C12.1 41.7 12.35 42.51 12.73 43.26C13.1 44 13.58 44.67 14.16 45.25C14.74 45.83 15.4101 46.32 16.1401 46.69C16.8901 47.08 17.7 47.33 18.54 47.45C20.76 47.77 23.0201 48.01 25.2601 48.17C29.7201 48.49 34.28 48.49 38.74 48.17C40.98 48.01 43.24 47.77 45.46 47.45C46.3 47.33 47.11 47.07 47.86 46.69C48.59 46.32 49.26 45.84 49.84 45.25C50.42 44.67 50.9001 44 51.2701 43.26C51.6501 42.51 51.9001 41.7 52.0101 40.86Z" fill="black"/>
</svg>
