<svg width="64" height="65" viewBox="0 0 64 65" fill="none" xmlns="http://www.w3.org/2000/svg">
<path d="M58.6598 41.0579C57.2798 37.2179 55.04 33.7379 52.13 30.8679L52.0299 30.7679C51.8099 30.5579 51.5199 30.4378 51.2199 30.4378H45.9198C45.0998 30.4378 44.3598 29.9979 43.9398 29.3079C41.6298 25.5479 38.6501 22.2579 35.1501 19.5879C34.5701 19.1479 34.2199 18.4679 34.2199 17.7379V15.4279C34.2199 15.0579 34.5698 14.7779 34.9298 14.8579C37.2698 15.4079 39.6099 17.8179 41.9599 15.8979C42.1099 15.7679 42.1999 15.5679 42.1999 15.3679V9.86789C42.1999 9.36789 41.6899 9.03789 41.2399 9.24789C38.8299 10.3779 36.4299 7.59785 34.0199 7.63785C33.5999 6.68785 32.5698 6.07788 31.4298 6.29788C30.3398 6.51788 29.59 7.54787 29.59 8.66787C29.59 8.66787 29.59 15.1378 29.59 17.8278C29.59 18.5578 29.2401 19.2279 28.6501 19.6779C25.1601 22.3179 22.18 25.5779 19.86 29.3079C19.43 29.9979 18.69 30.4279 17.88 30.4279H12.58C12.28 30.4279 11.9899 30.5478 11.7699 30.7578L11.6698 30.8579C8.74983 33.7179 6.52004 37.1979 5.14004 41.0479C4.90004 41.7079 5.31992 42.4278 6.00992 42.5778C7.30992 42.8578 8.60982 43.0979 9.90982 43.3379L9.80997 43.9478C9.21997 47.5378 9.21997 51.1979 9.80997 54.7779C9.96997 55.7479 10.7098 56.5279 11.6798 56.6779C16.5698 57.4579 21.4998 57.9379 26.4298 58.1479C27.1198 58.1779 27.67 57.5979 27.63 56.9079C27.33 52.3279 27.4399 47.7179 28.0099 43.1579C28.0699 42.6979 28.38 42.2879 28.83 42.1579C30.84 41.5479 32.9799 41.5479 34.9899 42.1579C35.4299 42.2979 35.75 42.6979 35.81 43.1579C36.37 47.7179 36.4799 52.3279 36.1898 56.9079C36.1498 57.5979 36.7 58.1779 37.39 58.1479C42.32 57.9379 47.25 57.4579 52.14 56.6779C53.11 56.5279 53.8499 55.7379 54.0099 54.7779C54.5999 51.1879 54.5999 47.5278 54.0099 43.9478L53.9098 43.3379C55.2098 43.1079 56.52 42.8578 57.81 42.5778C58.48 42.4478 58.8998 41.7179 58.6598 41.0579ZM31.9098 33.8579C29.8098 33.8579 28.11 32.1579 28.11 30.0579C28.11 27.9579 29.8098 26.2578 31.9098 26.2578C34.0098 26.2578 35.7099 27.9579 35.7099 30.0579C35.7099 32.1479 34.0098 33.8579 31.9098 33.8579Z" fill="black"/>
</svg>
