<svg width="65" height="65" viewBox="0 0 65 65" fill="none" xmlns="http://www.w3.org/2000/svg">
<path d="M51.1555 43.7838L41.1455 36.4637C40.1555 35.7337 39.9255 34.3837 40.5555 33.3237C44.2455 27.1837 43.8355 19.1337 38.9755 13.3337C35.5555 9.26374 30.6655 7.16376 25.7355 7.16376C21.2655 7.16376 16.7754 8.89378 13.3254 12.4338C7.66543 18.2538 6.88547 27.4838 11.4855 34.1638C14.8955 39.1238 20.3055 41.6938 25.7555 41.6938C27.8555 41.6938 29.9654 41.3037 31.9654 40.5237C33.1154 40.0737 34.4054 40.5437 34.9554 41.6437L40.4255 52.7637C40.9255 53.7637 41.6755 54.6937 42.6355 55.3937C50.5355 60.7837 58.6555 49.6738 51.1555 43.7838ZM17.0055 31.7737C12.9555 26.9537 13.5855 19.7338 18.4155 15.6938C20.4655 13.9738 23.0755 13.0237 25.7455 13.0237C29.1355 13.0237 32.3255 14.5138 34.4955 17.1038C38.5455 21.9238 37.9154 29.1438 33.0854 33.1838C31.0354 34.9038 28.4255 35.8538 25.7555 35.8538C22.3755 35.8538 19.1855 34.3637 17.0055 31.7737Z" fill="black"/>
</svg>
