<svg width="64" height="64" viewBox="0 0 64 64" fill="none" xmlns="http://www.w3.org/2000/svg">
<path d="M31.9801 10.59C32.9201 10.59 33.86 10.91 34.63 11.55L43.56 19.03C44.69 19.97 44.78 21.69 43.7 22.74C42.76 23.65 41.24 23.61 40.24 22.77L35.3 18.63C34.98 18.35 34.4801 18.59 34.4801 19.01V37.73C34.4801 39.2 33.2201 40.37 31.7201 40.22C30.4201 40.09 29.4801 38.9 29.4801 37.59V19.01C29.4801 18.59 28.99 18.36 28.66 18.63L23.61 22.86C22.48 23.8 20.77 23.58 19.93 22.34C19.2 21.25 19.51 19.77 20.51 18.93L29.33 11.55C30.1 10.91 31.0401 10.59 31.9801 10.59Z" fill="black"/>
<path d="M52.0201 40.86C52.2001 39.49 53.4601 38.54 54.8301 38.72C56.1901 38.91 57.15 40.17 56.99 41.54C56.8 42.92 56.3901 44.26 55.7701 45.5C55.1601 46.71 54.3701 47.82 53.4101 48.78C52.4501 49.75 51.3501 50.55 50.1401 51.16C48.9001 51.79 47.5701 52.21 46.1901 52.41C43.8601 52.74 41.48 52.99 39.12 53.16C36.7701 53.33 34.3801 53.41 32.0201 53.41C29.6601 53.41 27.2701 53.33 24.9201 53.16C22.5601 52.99 20.1801 52.73 17.8502 52.4C16.4701 52.2 15.1401 51.78 13.9001 51.15C12.6901 50.54 11.5901 49.73 10.6301 48.77C9.67006 47.81 8.88007 46.7 8.27007 45.49C7.65007 44.25 7.2401 42.91 7.0501 41.53C6.8601 40.17 7.82012 38.91 9.19012 38.72C10.5501 38.53 11.8101 39.49 12.0001 40.86C12.1101 41.7 12.36 42.51 12.74 43.26C13.11 44 13.5901 44.67 14.1701 45.25C14.7501 45.83 15.4201 46.32 16.1501 46.69C16.9001 47.08 17.7101 47.33 18.5501 47.45C20.7701 47.77 23.0301 48.01 25.2701 48.17C29.7301 48.49 34.2901 48.49 38.7501 48.17C40.9901 48.01 43.2501 47.77 45.4701 47.45C46.3101 47.33 47.12 47.07 47.87 46.69C48.6 46.32 49.2701 45.84 49.8502 45.25C50.4302 44.67 50.9101 44 51.2801 43.26C51.6601 42.51 51.9101 41.7 52.0201 40.86Z" fill="black"/>
</svg>
