<svg width="65" height="65" viewBox="0 0 65 65" fill="none" xmlns="http://www.w3.org/2000/svg">
<path d="M10.0718 45.4138C9.37182 46.6638 9.8519 48.2438 11.1519 48.8838C12.3719 49.4838 13.8419 48.8938 14.5119 47.7138C16.1319 44.8538 17.8618 42.5938 19.5818 40.8238C20.0318 40.3538 20.3319 39.7538 20.4219 39.1038C20.5019 38.5138 20.6119 37.9238 20.7619 37.3338C21.1119 36.0238 21.6219 34.7338 22.2919 33.4638C22.5319 33.0138 22.0318 32.5238 21.5918 32.7938C17.1718 35.5438 13.1918 39.8438 10.0718 45.4138Z" fill="black"/>
<path d="M52.5219 14.6838L38.9819 10.3938C37.5219 9.92381 35.9319 10.8938 35.7419 12.5038C35.6019 13.7038 36.412 14.8238 37.562 15.1838L43.3319 17.0138C44.1919 17.2838 44.2719 18.4738 43.4619 18.8638C32.5719 24.1338 25.652 30.7638 23.792 37.8238C22.702 41.9438 23.502 45.9838 26.042 49.2038C28.382 52.1738 31.8719 53.7338 35.3919 53.7338C36.8319 53.7338 38.2719 53.4638 39.6419 52.9438C39.6719 52.9338 39.7119 52.9138 39.7419 52.9038C40.0419 52.7838 40.3419 52.6538 40.6319 52.5138C40.6919 52.4838 40.7619 52.4538 40.8219 52.4238C41.0919 52.2838 41.3519 52.1338 41.6019 51.9838C41.6719 51.9438 41.7419 51.9038 41.8219 51.8538C42.1419 51.6538 42.4519 51.4338 42.7519 51.1938C47.8419 47.1738 48.7419 39.6938 44.7519 34.5138C43.6719 33.1138 42.272 31.9638 40.662 31.1038C40.342 30.9338 39.9419 30.9638 39.6419 31.1638C38.5419 31.8938 37.5819 32.5938 36.7519 33.2738C36.1519 33.7638 36.322 34.7238 37.052 34.9838C38.592 35.5238 39.892 36.4038 40.792 37.5638C43.122 40.5838 42.612 44.9438 39.662 47.2638C39.382 47.4838 39.082 47.6738 38.782 47.8438C38.732 47.8738 38.6919 47.8938 38.6419 47.9238C38.3419 48.0838 38.0219 48.2238 37.7019 48.3338C37.6619 48.3438 37.6219 48.3638 37.5919 48.3738C36.8919 48.6038 36.162 48.7338 35.422 48.7338C35.142 48.7338 34.8719 48.7238 34.5919 48.6938C32.7619 48.4738 31.1319 47.5638 29.9919 46.1138C28.4019 44.1038 27.9519 41.7438 28.6519 39.1038C30.1819 33.2938 36.8019 27.4338 46.9919 22.7538C47.7019 22.4238 48.4919 23.0238 48.3919 23.7938L47.4719 30.8338C47.2919 32.2038 48.2619 33.4538 49.6319 33.6338C49.7419 33.6438 49.8519 33.6538 49.9619 33.6538C51.2019 33.6538 52.2719 32.7338 52.4419 31.4738L54.282 17.3838C54.402 16.1938 53.6719 15.0538 52.5219 14.6838Z" fill="black"/>
</svg>
