<svg width="64" height="65" viewBox="0 0 64 65" fill="none" xmlns="http://www.w3.org/2000/svg">
<path d="M56.86 30.6164C56.73 29.3564 55.5299 28.4764 54.2799 28.6664L54.1898 28.6764C52.2598 28.9764 50.35 27.9464 49.63 26.1364C49.56 25.9564 49.4801 25.7864 49.4101 25.6064C48.6301 23.8164 49.2199 21.7164 50.7899 20.5564L50.86 20.5064C51.89 19.7364 52.0999 18.2764 51.2999 17.2964C50.2199 15.9864 49.0199 14.8064 47.7099 13.7464C46.7399 12.9664 45.31 13.1864 44.58 14.1864C43.38 15.8364 41.2 16.4464 39.31 15.6564C37.43 14.8664 36.3401 12.8964 36.6701 10.8864C36.8701 9.65643 36.0199 8.46645 34.7799 8.33645C33.0199 8.13645 31.2201 8.12644 29.4101 8.31644C28.1501 8.44644 27.2599 9.63644 27.4599 10.8964L27.4699 10.9764C27.7699 12.9164 26.7401 14.8264 24.9301 15.5564C24.7501 15.6264 24.58 15.7064 24.4 15.7764C22.61 16.5564 20.51 15.9664 19.35 14.3964L19.2999 14.3264C18.5299 13.2964 17.07 13.0864 16.09 13.8864C14.78 14.9664 13.5899 16.1664 12.5399 17.4764C11.7599 18.4464 11.9799 19.8764 12.9799 20.6064C14.6299 21.8064 15.2399 23.9864 14.4498 25.8764L14.4 25.9864C13.64 27.7964 11.7399 28.8464 9.79995 28.5264L9.70986 28.5164C8.45986 28.3064 7.25002 29.1764 7.12002 30.4364C6.93002 32.1864 6.92001 33.9664 7.11001 35.7764C7.24001 37.0364 8.43984 37.9164 9.68984 37.7264L9.77993 37.7165C11.7099 37.4165 13.62 38.4464 14.34 40.2564C14.41 40.4364 14.49 40.6064 14.56 40.7864C15.34 42.5764 14.7501 44.6764 13.1801 45.8364L13.11 45.8864C12.08 46.6564 11.8701 48.1164 12.6701 49.0964C13.7401 50.3864 14.9299 51.5664 16.2199 52.6164C17.1999 53.4164 18.6701 53.1864 19.4101 52.1664L19.4599 52.0964C20.6199 50.5064 22.7099 49.9265 24.5199 50.6865L24.65 50.7364C26.53 51.5264 27.6199 53.4964 27.2899 55.5064C27.0899 56.7364 27.9401 57.9164 29.1801 58.0564C30.9401 58.2564 32.7399 58.2664 34.5499 58.0764C35.8099 57.9464 36.6999 56.7564 36.4999 55.4964L36.4899 55.4164C36.1799 53.4764 37.2199 51.5664 39.0299 50.8364C39.2099 50.7664 39.38 50.6864 39.56 50.6164C41.35 49.8364 43.45 50.4264 44.61 51.9964L44.6601 52.0664C45.4301 53.0964 46.89 53.3064 47.87 52.5064C49.18 51.4264 50.3601 50.2264 51.4201 48.9164C52.2001 47.9464 51.9799 46.5164 50.9799 45.7864C49.3299 44.5864 48.7199 42.4064 49.5099 40.5164L49.56 40.3964C50.32 38.5864 52.2201 37.5364 54.1601 37.8564L54.2499 37.8664C55.4999 38.0764 56.71 37.2064 56.85 35.9464C57.04 34.2064 57.05 32.4164 56.86 30.6164ZM31.9999 45.1964C25.3699 45.1964 19.9999 39.8264 19.9999 33.1964C19.9999 26.5664 25.3699 21.1964 31.9999 21.1964C38.6299 21.1964 43.9999 26.5664 43.9999 33.1964C43.9999 39.8264 38.6199 45.1964 31.9999 45.1964Z" fill="black"/>
</svg>
