<svg width="64" height="64" viewBox="0 0 64 64" fill="none" xmlns="http://www.w3.org/2000/svg">
<path d="M27.5326 14.12L21.1426 19.47C20.1326 20.31 18.6226 20.35 17.6826 19.44C16.6126 18.39 16.7025 16.67 17.8225 15.73L30.0626 5.46999C30.9926 4.68999 32.3426 4.68999 33.2726 5.46999L45.4326 15.65C46.3826 16.45 46.7025 17.82 46.0825 18.89C45.6025 19.71 44.7626 20.14 43.9126 20.14C43.3526 20.14 42.7826 19.95 42.3126 19.56L35.8126 14.12C35.1626 13.58 34.1726 14.04 34.1726 14.89V40.06C34.1726 41.53 32.9126 42.7 31.4126 42.55C30.1126 42.42 29.1726 41.23 29.1726 39.92V14.89C29.1726 14.04 28.1826 13.58 27.5326 14.12Z" fill="black"/>
<path d="M47.6425 24.9C51.0125 25.39 53.6225 28.09 54.0125 31.47C54.8025 38.36 54.8025 45.36 54.0125 52.27C53.6225 55.65 51.0025 58.35 47.6425 58.84C42.4525 59.6 37.2325 59.98 32.0025 59.98C26.7725 59.98 21.5525 59.6 16.3625 58.84C12.9925 58.35 10.3725 55.65 9.99252 52.27C9.20252 45.38 9.20252 38.38 9.99252 31.48C10.3825 28.1 12.9925 25.4 16.3625 24.91C18.6625 24.57 21.0125 24.31 23.3425 24.12C24.7025 24.01 25.9226 25.03 26.0326 26.41C26.1426 27.78 25.1225 28.99 23.7425 29.1C21.5225 29.28 19.2825 29.53 17.0825 29.85C15.9625 30.01 15.0925 30.91 14.9625 32.04C14.2225 38.56 14.2225 45.18 14.9625 51.7C15.0925 52.83 15.9625 53.73 17.0825 53.89C26.9825 55.34 37.0126 55.34 46.9126 53.89C48.0326 53.73 48.9026 52.83 49.0326 51.7C49.7726 45.18 49.7726 38.56 49.0326 32.04C48.9026 30.91 48.0326 30.01 46.9126 29.85C44.1226 29.44 42.1525 29.19 39.7025 29.02C38.3225 28.92 37.2825 27.73 37.3825 26.35C37.4825 24.97 38.6926 23.94 40.0526 24.03C42.9226 24.23 45.2825 24.55 47.6425 24.9Z" fill="black"/>
</svg>
