<svg width="64" height="65" viewBox="0 0 64 65" fill="none" xmlns="http://www.w3.org/2000/svg">
<path d="M43.8901 38.8737C41.5401 38.9337 39.41 39.9136 37.86 41.4636C37.58 41.7436 37.0601 41.8037 36.7101 41.6237L24.8901 35.4036C24.5401 35.2236 24.3301 34.8436 24.3801 34.4536C24.4301 34.0936 24.4501 33.7236 24.4501 33.3436C24.4501 32.9636 24.4301 32.5936 24.3801 32.2336C24.3301 31.8436 24.5401 31.4636 24.8901 31.2836L36.8101 25.0136C37.1901 24.8136 37.6501 24.9036 37.9601 25.2036C39.5101 26.7136 41.6101 27.6536 43.9301 27.7036C48.7001 27.7936 52.8101 23.8937 52.9401 19.1237C53.0801 14.1237 49.07 10.0236 44.1 10.0236C39.22 10.0236 35.2601 13.9836 35.2601 18.8636C35.2601 19.0836 35.2701 19.2937 35.2901 19.5037C35.3201 19.8837 35.1401 20.2436 34.8001 20.4236L22.5501 26.8636C22.1801 27.0536 21.7501 26.9836 21.4401 26.7136C19.8701 25.3336 17.8101 24.4937 15.5501 24.5037C11.0301 24.5337 6.90007 28.5536 6.77007 33.0736C6.62007 38.0836 10.63 42.1837 15.61 42.1837C17.85 42.1837 19.8901 41.3536 21.4501 39.9736C21.7601 39.7036 22.2001 39.6236 22.5601 39.8236L34.7601 46.2437C35.1101 46.4237 35.3201 46.8037 35.2901 47.1937C35.2801 47.3737 35.2701 47.5636 35.2701 47.7036C35.2701 52.5836 39.23 56.5436 44.11 56.5436C49.08 56.5436 53.0901 52.4436 52.9501 47.4536C52.8201 42.6636 48.6901 38.7537 43.8901 38.8737Z" fill="black"/>
</svg>
