<svg width="64" height="65" viewBox="0 0 64 65" fill="none" xmlns="http://www.w3.org/2000/svg">
<path d="M8.69989 19.5564C8.82989 18.2564 10.0199 17.3164 11.3299 17.3164H19.39C23.2 17.3164 26.7599 19.0964 29.0999 21.9764C29.3499 22.2764 29.3699 22.7064 29.1999 23.0564C29.0099 23.4464 28.83 23.8464 28.67 24.2664L27.4499 27.4464C27.2899 27.8764 26.68 27.8764 26.52 27.4464L26.4 27.1364C25.29 24.2364 22.5 22.3264 19.4 22.3264H11.1899C9.72988 22.3164 8.54989 21.0564 8.69989 19.5564ZM43.14 22.3164H46.9499C47.3699 22.3164 47.6099 22.8064 47.3299 23.1364L45.28 25.5964C44.37 26.6864 44.4399 28.4264 45.5599 29.2964C46.0199 29.6464 46.5599 29.8264 47.0999 29.8264C47.8199 29.8264 48.53 29.5164 49.02 28.9264L54.4599 22.3964C55.6099 21.0264 55.5999 19.0264 54.4399 17.6464L48.9399 11.0964C48.0999 10.0964 46.61 9.78643 45.53 10.5264C44.29 11.3764 44.07 13.0864 45.02 14.2064L46.9399 16.4964C47.2099 16.8264 46.9799 17.3164 46.5599 17.3164H43.15C38.01 17.3164 33.3199 20.5364 31.4799 25.3364L26.41 38.5464C25.3 41.4464 22.51 43.3564 19.41 43.3564H11.3499C10.0399 43.3564 8.84991 44.2964 8.71991 45.5964C8.56991 47.0964 9.7399 48.3564 11.2099 48.3564H19.42C24.56 48.3564 29.2499 45.1364 31.0899 40.3364L36.16 27.1264C37.25 24.2264 40.04 22.3164 43.14 22.3164ZM48.8399 37.0364C47.8999 35.9164 46.1699 35.8264 45.1299 36.9064C44.2199 37.8464 44.2699 39.3564 45.1099 40.3564L46.9399 42.5364C47.2099 42.8664 46.9799 43.3564 46.5599 43.3564H43.15C40.05 43.3564 37.26 41.4464 36.15 38.5464L36.03 38.2364C35.87 37.8064 35.2599 37.8064 35.0999 38.2364L33.8799 41.4164C33.7199 41.8264 33.5399 42.2364 33.3499 42.6264C33.1799 42.9764 33.1999 43.4064 33.4499 43.7064C35.7899 46.5864 39.35 48.3664 43.16 48.3664H46.9699C47.3899 48.3664 47.6299 48.8564 47.3499 49.1864L45.3 51.6464C44.39 52.7364 44.4599 54.4764 45.5799 55.3464C46.0399 55.6964 46.5799 55.8764 47.1199 55.8764C47.8399 55.8764 48.55 55.5664 49.04 54.9764L54.4799 48.4464C55.6299 47.0764 55.6199 45.0764 54.4599 43.6964L48.8399 37.0364Z" fill="black"/>
</svg>
