<svg width="64" height="65" viewBox="0 0 64 65" fill="none" xmlns="http://www.w3.org/2000/svg">
<path d="M57 32.0038C57 31.0838 56.95 30.1738 56.85 29.2838C55.45 16.3738 44.23 6.41379 30.82 7.03379C18.12 7.61379 7.73007 17.9238 7.04007 30.6138C6.32007 43.8638 15.9201 55.0038 28.5301 56.7638C29.6701 56.9238 30.82 57.0138 32 57.0138C32.01 57.0138 32.01 57.0138 32.02 57.0138C33 57.0138 33.94 56.6438 34.7 56.0338L34.75 55.9938C42.4 49.8038 49.4801 42.9438 55.9101 35.4938C56.5501 34.7538 56.93 33.8138 56.98 32.8338C56.99 32.5238 57 32.2338 57 32.0038ZM12.01 31.3538C12.35 20.7738 21.02 12.2138 31.61 12.0038C40.49 11.8338 48.07 17.4938 50.84 25.4038C50.95 25.7138 50.72 26.0338 50.39 26.0338C50.39 26.0338 50.39 26.0338 50.38 26.0338C49.84 26.0338 49.3 26.0538 48.77 26.0938C36.5 26.8738 26.64 36.5038 25.5 48.6738C25.45 49.1738 25.4201 49.6838 25.4001 50.1938C25.3901 50.5238 25.06 50.7338 24.75 50.6138C17.11 47.6338 11.73 40.1038 12.01 31.3538ZM31.2901 51.9738C31.2601 51.9738 31.22 51.9738 31.19 51.9738C30.75 51.9538 30.39 51.5938 30.38 51.1438C30.38 51.1038 30.38 51.0738 30.38 51.0338C30.38 50.3238 30.42 49.6138 30.49 48.9238C31.5 39.3738 39.25 31.8238 48.88 31.1138C49.37 31.0738 49.87 31.0338 50.37 31.0338C50.64 31.0338 50.91 31.0438 51.18 31.0538C51.62 31.0738 51.96 31.4438 51.97 31.8838V31.8938C51.98 32.1138 51.89 32.3238 51.74 32.4938C45.57 39.1338 39.07 45.4438 32.25 51.4138L31.85 51.7638C31.71 51.9038 31.5001 51.9838 31.2901 51.9738Z" fill="black"/>
</svg>
