<svg width="64" height="65" viewBox="0 0 64 65" fill="none" xmlns="http://www.w3.org/2000/svg">
<path d="M27.1099 48.1539C29.0299 37.6739 37.6399 29.4739 48.1899 28.0239C50.9299 27.6439 53.6 27.7239 56.13 28.1839C56.47 28.2439 56.7799 27.9539 56.7199 27.6139C54.4899 15.0839 42.9299 5.78386 29.4799 7.15386C17.9299 8.33386 8.57998 17.5739 7.27998 29.1139C5.80998 42.1539 14.39 53.4639 26.26 56.3139C26.6 56.3939 26.9099 56.1039 26.8699 55.7639C26.5699 53.3239 26.6299 50.7739 27.1099 48.1539Z" fill="black"/>
<path d="M34.8699 55.9938C42.5199 49.8038 49.5999 42.9438 56.0299 35.4938C56.3999 35.0638 56.6798 34.5738 56.8598 34.0538C56.9599 33.7738 56.7999 33.4639 56.5099 33.3839C53.6099 32.6539 50.4698 32.5339 47.1998 33.2939C39.4198 35.1039 33.3198 41.4739 31.9798 49.3539C31.5498 51.8539 31.6098 54.2839 32.0598 56.5739C32.1098 56.8239 32.3398 57.0039 32.5898 56.9839C33.4098 56.8939 34.1798 56.5538 34.8198 56.0338L34.8699 55.9938Z" fill="black"/>
</svg>
