<svg width="64" height="65" viewBox="0 0 64 65" fill="none" xmlns="http://www.w3.org/2000/svg">
<path d="M12.2701 34.8878H41.12C41.97 34.8878 42.4301 35.8778 41.8901 36.5278L36.5401 42.9178C35.7001 43.9178 35.6601 45.4378 36.5801 46.3678C37.6301 47.4378 39.3501 47.3478 40.2901 46.2278L47.4501 37.6678C48.07 36.9278 49.2601 37.4078 49.2201 38.3678C49.0401 42.3878 48.68 46.3978 48.12 50.3978C47.94 51.6978 48.6901 53.0078 49.9601 53.3278C51.4201 53.6978 52.84 52.7078 53.05 51.2478C54.82 38.7278 54.82 26.0278 53.05 13.4978C52.87 12.2478 51.8001 11.3478 50.5801 11.3478C50.4601 11.3478 50.3401 11.3578 50.2101 11.3778C48.8501 11.5778 47.93 13.0278 48.12 14.3878C48.68 18.3778 49.0401 22.3778 49.2201 26.3878C49.2601 27.3478 48.07 27.8178 47.4501 27.0878L40.2901 18.5278C39.8001 17.9378 39.09 17.6278 38.37 17.6278C37.83 17.6278 37.2901 17.7978 36.8301 18.1578C35.7101 19.0378 35.64 20.7678 36.56 21.8578L41.8901 28.2278C42.4301 28.8778 41.97 29.8678 41.12 29.8678H12.12C10.65 29.8678 9.48004 31.1278 9.63004 32.6278C9.77004 33.9478 10.9601 34.8878 12.2701 34.8878Z" fill="black"/>
</svg>
