<svg width="64" height="65" viewBox="0 0 64 65" fill="none" xmlns="http://www.w3.org/2000/svg">
<path d="M51.7199 29.8878H22.8699C22.0199 29.8878 21.5599 28.8978 22.0999 28.2478L27.4499 21.8578C28.2899 20.8578 28.3299 19.3378 27.4099 18.4078C26.3599 17.3378 24.6399 17.4278 23.6999 18.5478L16.5399 27.1078C15.9199 27.8478 14.7299 27.3678 14.7699 26.4078C14.9499 22.3878 15.3099 18.3778 15.8699 14.3778C16.0499 13.0778 15.2999 11.7678 14.0299 11.4478C12.5699 11.0778 11.1499 12.0678 10.9399 13.5278C9.16993 26.0478 9.16993 38.7478 10.9399 51.2778C11.1199 52.5278 12.1899 53.4278 13.4099 53.4278C13.5299 53.4278 13.6499 53.4178 13.7799 53.3978C15.1399 53.1978 16.0599 51.7478 15.8699 50.3878C15.3099 46.3978 14.9499 42.3978 14.7699 38.3878C14.7299 37.4278 15.9199 36.9578 16.5399 37.6878L23.6999 46.2478C24.1899 46.8378 24.8999 47.1478 25.6199 47.1478C26.1599 47.1478 26.6999 46.9778 27.1599 46.6178C28.2799 45.7378 28.3499 44.0078 27.4299 42.9178L22.0999 36.5478C21.5599 35.8978 22.0199 34.9078 22.8699 34.9078H51.8699C53.3399 34.9078 54.5099 33.6478 54.3599 32.1478C54.2199 30.8378 53.0299 29.8878 51.7199 29.8878Z" fill="black"/>
</svg>
