<svg width="64" height="65" viewBox="0 0 64 65" fill="none" xmlns="http://www.w3.org/2000/svg">
<path d="M52.1402 17.3364L52.17 17.4464C52.72 19.8964 52.72 22.4464 52.16 24.9064C52.06 25.3564 51.65 25.6664 51.19 25.6664H12.7901C12.3301 25.6664 11.9201 25.3564 11.8201 24.9064C11.2701 22.4464 11.2601 19.9064 11.8101 17.4464L11.8401 17.3364C11.9301 16.9364 12.26 16.6264 12.67 16.5664C16.23 16.0264 19.8102 15.6564 23.3902 15.4264C23.8102 15.3964 24.1601 15.1064 24.2801 14.7064L25.5501 10.2564C25.6601 9.88644 25.9702 9.60644 26.3502 9.54644C30.0802 8.94644 33.8902 8.94644 37.6302 9.54644C38.0102 9.60644 38.32 9.88644 38.43 10.2564L39.7 14.7064C39.81 15.1164 40.1701 15.3964 40.5901 15.4264C44.1701 15.6664 47.7501 16.0364 51.3101 16.5664C51.7201 16.6264 52.0502 16.9364 52.1402 17.3364Z" fill="black"/>
<path d="M22.3601 56.1864C28.7401 57.2964 35.2602 57.2964 41.6402 56.1864C42.7602 55.9964 43.68 55.1764 44 54.0864C46.29 46.4164 46.8599 38.3364 45.6799 30.4164L45.6001 29.8664C45.5301 29.3764 45.1101 29.0164 44.6101 29.0164H19.3902C18.8902 29.0164 18.4699 29.3764 18.3999 29.8664L18.3201 30.4164C17.1401 38.3364 17.71 46.4164 20 54.0864C20.32 55.1764 21.2401 55.9864 22.3601 56.1864Z" fill="black"/>
</svg>
