<svg width="64" height="65" viewBox="0 0 64 65" fill="none" xmlns="http://www.w3.org/2000/svg">
<path d="M26.89 32.2264V43.7464C26.89 44.5964 25.9 45.0564 25.25 44.5164L18.85 39.1664C17.85 38.3264 16.33 38.2864 15.4 39.1964C14.32 40.2464 14.41 41.9664 15.54 42.9064L27.79 53.1564C28.72 53.9364 30.07 53.9364 31 53.1564L43.25 42.9064C43.84 42.4164 44.15 41.7064 44.15 40.9864C44.15 40.4464 43.98 39.9064 43.62 39.4464C42.74 38.3264 41.01 38.2664 39.91 39.1764L33.54 44.5064C32.89 45.0464 31.9 44.5864 31.9 43.7364V32.2164C31.9 23.9964 38.56 17.3064 46.76 17.2464C48.04 17.2364 49.21 16.3064 49.35 15.0364C49.52 13.5264 48.34 12.2464 46.87 12.2464C35.85 12.2564 26.89 21.2164 26.89 32.2264Z" fill="black"/>
</svg>
