<svg width="64" height="65" viewBox="0 0 64 65" fill="none" xmlns="http://www.w3.org/2000/svg">
<path d="M37.11 31.2336V42.7536C37.11 43.6036 38.1 44.0636 38.75 43.5236L45.1499 38.1736C46.1499 37.3336 47.6699 37.2936 48.5999 38.2036C49.68 39.2536 49.5899 40.9736 48.4599 41.9136L36.2099 52.1636C35.2799 52.9436 33.93 52.9436 33 52.1636L20.75 41.9136C20.16 41.4236 19.8499 40.7136 19.8499 39.9936C19.8499 39.4536 20.02 38.9136 20.38 38.4536C21.26 37.3336 22.9899 37.2736 24.0899 38.1836L30.4599 43.5136C31.1099 44.0536 32.0999 43.5936 32.0999 42.7436V31.2236C32.0999 23.0036 25.44 16.3136 17.24 16.2536C15.96 16.2436 14.7899 15.3136 14.6499 14.0436C14.4799 12.5336 15.66 11.2536 17.13 11.2536C28.16 11.2636 37.11 20.2236 37.11 31.2336Z" fill="black"/>
</svg>
