<svg width="64" height="65" viewBox="0 0 64 65" fill="none" xmlns="http://www.w3.org/2000/svg">
<path d="M31.22 26.8936H42.74C43.59 26.8936 44.05 25.9036 43.51 25.2536L38.16 18.8536C37.32 17.8536 37.28 16.3336 38.19 15.4036C39.24 14.3236 40.96 14.4136 41.9 15.5436L52.15 27.7936C52.93 28.7236 52.93 30.0736 52.15 31.0036L41.9 43.2536C41.41 43.8436 40.7 44.1536 39.98 44.1536C39.44 44.1536 38.9 43.9836 38.44 43.6236C37.32 42.7436 37.26 41.0136 38.17 39.9136L43.5 33.5436C44.04 32.8936 43.58 31.9036 42.73 31.9036H31.21C22.99 31.9036 16.3 38.5636 16.24 46.7636C16.23 48.0436 15.3 49.2136 14.03 49.3536C12.52 49.5236 11.24 48.3436 11.24 46.8736C11.25 35.8536 20.21 26.8936 31.22 26.8936Z" fill="black"/>
</svg>
