<svg width="64" height="65" viewBox="0 0 64 65" fill="none" xmlns="http://www.w3.org/2000/svg">
<path d="M32.77 27.8864H21.25C20.4 27.8864 19.94 26.8964 20.48 26.2464L25.83 19.8464C26.67 18.8464 26.71 17.3264 25.8 16.3964C24.75 15.3164 23.03 15.4064 22.09 16.5364L11.84 28.7864C11.06 29.7164 11.06 31.0664 11.84 31.9964L22.09 44.2465C22.58 44.8365 23.29 45.1464 24.01 45.1464C24.55 45.1464 25.09 44.9764 25.55 44.6164C26.67 43.7364 26.73 42.0065 25.82 40.9065L20.49 34.5364C19.95 33.8864 20.41 32.8964 21.26 32.8964H32.78C41 32.8964 47.69 39.5564 47.75 47.7564C47.76 49.0364 48.69 50.2064 49.96 50.3464C51.47 50.5164 52.75 49.3364 52.75 47.8664C52.74 36.8464 43.78 27.8864 32.77 27.8864Z" fill="black"/>
</svg>
