<svg width="64" height="65" viewBox="0 0 64 65" fill="none" xmlns="http://www.w3.org/2000/svg">
<path d="M32.77 37.1136H21.25C20.4 37.1136 19.94 38.1036 20.48 38.7536L25.83 45.1536C26.67 46.1536 26.71 47.6735 25.8 48.6035C24.75 49.6836 23.03 49.5936 22.09 48.4636L11.84 36.2136C11.06 35.2836 11.06 33.9336 11.84 33.0036L22.09 20.7536C22.58 20.1636 23.29 19.8535 24.01 19.8535C24.55 19.8535 25.09 20.0235 25.55 20.3835C26.67 21.2635 26.73 22.9936 25.82 24.0936L20.49 30.4636C19.95 31.1136 20.41 32.1035 21.26 32.1035H32.78C41 32.1035 47.69 25.4436 47.75 17.2436C47.76 15.9636 48.69 14.7936 49.96 14.6536C51.47 14.4836 52.75 15.6635 52.75 17.1335C52.74 28.1535 43.78 37.1136 32.77 37.1136Z" fill="black"/>
</svg>
