<svg width="64" height="65" viewBox="0 0 64 65" fill="none" xmlns="http://www.w3.org/2000/svg">
<path d="M26.89 32.7836V21.2636C26.89 20.4136 25.9 19.9536 25.25 20.4936L18.85 25.8436C17.85 26.6836 16.33 26.7236 15.4 25.8136C14.32 24.7636 14.41 23.0436 15.54 22.1036L27.79 11.8536C28.72 11.0736 30.07 11.0736 31 11.8536L43.25 22.1036C43.84 22.5936 44.15 23.3036 44.15 24.0236C44.15 24.5636 43.98 25.1036 43.62 25.5636C42.74 26.6836 41.01 26.7436 39.91 25.8336L33.54 20.5036C32.89 19.9636 31.9 20.4236 31.9 21.2736V32.7936C31.9 41.0136 38.56 47.7036 46.76 47.7636C48.04 47.7736 49.21 48.7036 49.35 49.9736C49.52 51.4836 48.34 52.7636 46.87 52.7636C35.85 52.7536 26.89 43.7936 26.89 32.7836Z" fill="black"/>
</svg>
