<svg width="64" height="65" viewBox="0 0 64 65" fill="none" xmlns="http://www.w3.org/2000/svg">
<path d="M37.11 33.7664V22.2464C37.11 21.3964 38.1 20.9364 38.75 21.4764L45.15 26.8264C46.15 27.6664 47.67 27.7064 48.6 26.7964C49.68 25.7464 49.59 24.0264 48.46 23.0864L36.21 12.8364C35.28 12.0564 33.93 12.0564 33 12.8364L20.75 23.0864C20.16 23.5764 19.85 24.2864 19.85 25.0064C19.85 25.5464 20.02 26.0864 20.38 26.5464C21.26 27.6664 22.99 27.7264 24.09 26.8164L30.46 21.4864C31.11 20.9464 32.1 21.4064 32.1 22.2564V33.7764C32.1 41.9964 25.44 48.6864 17.24 48.7464C15.96 48.7564 14.79 49.6864 14.65 50.9564C14.48 52.4664 15.66 53.7464 17.13 53.7464C28.15 53.7364 37.11 44.7764 37.11 33.7664Z" fill="black"/>
</svg>
