<svg width="64" height="65" viewBox="0 0 64 65" fill="none" xmlns="http://www.w3.org/2000/svg">
<path d="M31.22 38.1064H42.74C43.59 38.1064 44.05 39.0964 43.51 39.7464L38.16 46.1464C37.32 47.1464 37.28 48.6664 38.19 49.5964C39.24 50.6764 40.96 50.5864 41.9 49.4564L52.15 37.2064C52.93 36.2764 52.93 34.9264 52.15 33.9964L41.9 21.7464C41.41 21.1564 40.7 20.8464 39.98 20.8464C39.44 20.8464 38.9 21.0164 38.44 21.3764C37.32 22.2564 37.26 23.9864 38.17 25.0864L43.5 31.4564C44.04 32.1064 43.58 33.0964 42.73 33.0964H31.21C22.99 33.0964 16.3 26.4364 16.24 18.2364C16.23 16.9564 15.3 15.7864 14.03 15.6464C12.52 15.4764 11.24 16.6564 11.24 18.1264C11.25 29.1464 20.21 38.1064 31.22 38.1064Z" fill="black"/>
</svg>
