<svg width="64" height="65" viewBox="0 0 64 65" fill="none" xmlns="http://www.w3.org/2000/svg">
<path d="M32.2222 57.7737C32.1422 57.7737 32.0621 57.7737 31.9921 57.7737C26.5521 57.7737 21.4122 55.6837 17.5222 51.8637C13.5722 47.9937 11.3522 42.8237 11.2922 37.2837C11.2822 35.9037 12.3822 34.7737 13.7622 34.7537C15.1122 34.7637 16.2722 35.8437 16.2922 37.2237C16.3422 41.4237 18.0122 45.3437 21.0122 48.2837C24.0122 51.2137 28.0022 52.8437 32.1722 52.7637C36.3722 52.7137 40.2921 51.0437 43.2321 48.0437C46.1621 45.0437 47.7522 41.0837 47.7122 36.8837C47.6222 28.4237 40.8222 21.5837 32.4422 21.3537C32.4022 21.3537 32.2122 21.3637 31.9522 21.3637C31.1622 21.3937 30.7522 22.3337 31.2822 22.9337L36.2822 28.5537C37.2022 29.5837 37.1122 31.1637 36.0722 32.0837C35.5922 32.5037 35.0022 32.7137 34.4122 32.7137C33.7222 32.7137 33.0322 32.4337 32.5422 31.8737L23.2222 21.3937C22.4222 20.4937 22.3821 19.1337 23.1221 18.1837L31.7922 7.16366C32.6422 6.07366 34.2222 5.89368 35.3022 6.74368C36.3822 7.59368 36.5722 9.17369 35.7222 10.2537L32.1221 14.8337C31.6421 15.4437 32.0622 16.3337 32.8322 16.3537H32.8422C43.7722 16.7937 52.5922 25.7537 52.7122 36.8137C52.8322 48.2537 43.6422 57.6437 32.2222 57.7737Z" fill="black"/>
</svg>
