<svg width="64" height="65" viewBox="0 0 64 65" fill="none" xmlns="http://www.w3.org/2000/svg">
<path d="M53.94 45.4138C54.64 46.6638 54.16 48.2438 52.86 48.8838C51.64 49.4838 50.17 48.8938 49.5 47.7138C47.88 44.8538 46.15 42.5938 44.43 40.8238C43.98 40.3538 43.68 39.7538 43.59 39.1038C43.51 38.5138 43.4 37.9238 43.25 37.3338C42.9 36.0238 42.39 34.7338 41.72 33.4638C41.48 33.0138 41.98 32.5238 42.42 32.7938C46.84 35.5438 50.81 39.8438 53.94 45.4138Z" fill="black"/>
<path d="M11.49 14.6838L25.03 10.3938C26.49 9.92381 28.08 10.8938 28.27 12.5038C28.41 13.7038 27.6 14.8238 26.45 15.1838L20.68 17.0138C19.82 17.2838 19.74 18.4738 20.55 18.8638C31.44 24.1338 38.36 30.7638 40.22 37.8238C41.31 41.9438 40.51 45.9838 37.97 49.2038C35.63 52.1738 32.14 53.7338 28.62 53.7338C27.18 53.7338 25.74 53.4638 24.37 52.9438C24.34 52.9338 24.3 52.9138 24.27 52.9038C23.97 52.7838 23.67 52.6538 23.38 52.5138C23.32 52.4838 23.25 52.4538 23.19 52.4238C22.92 52.2838 22.66 52.1338 22.41 51.9838C22.34 51.9438 22.27 51.9038 22.19 51.8538C21.87 51.6538 21.56 51.4338 21.26 51.1938C16.17 47.1738 15.27 39.6938 19.26 34.5138C20.34 33.1138 21.74 31.9638 23.35 31.1038C23.67 30.9338 24.07 30.9638 24.37 31.1638C25.47 31.8938 26.43 32.5938 27.26 33.2738C27.86 33.7638 27.69 34.7238 26.96 34.9838C25.42 35.5238 24.12 36.4038 23.22 37.5638C20.89 40.5838 21.4 44.9438 24.35 47.2638C24.63 47.4838 24.93 47.6738 25.23 47.8438C25.28 47.8738 25.32 47.8938 25.37 47.9238C25.67 48.0838 25.99 48.2238 26.31 48.3338C26.35 48.3438 26.39 48.3638 26.42 48.3738C27.12 48.6038 27.85 48.7338 28.59 48.7338C28.87 48.7338 29.14 48.7238 29.42 48.6938C31.25 48.4738 32.88 47.5638 34.02 46.1138C35.61 44.1038 36.06 41.7438 35.36 39.1038C33.83 33.2938 27.21 27.4338 17.02 22.7538C16.31 22.4238 15.52 23.0238 15.62 23.7938L16.54 30.8338C16.72 32.2038 15.75 33.4538 14.38 33.6338C14.27 33.6438 14.16 33.6538 14.05 33.6538C12.81 33.6538 11.74 32.7338 11.57 31.4738L9.72999 17.3838C9.60999 16.1938 10.33 15.0538 11.49 14.6838Z" fill="black"/>
</svg>
