<svg width="64" height="65" viewBox="0 0 64 65" fill="none" xmlns="http://www.w3.org/2000/svg">
<path d="M56.13 26.6241C58.3 28.6441 59.5499 31.5041 59.5499 34.5541C59.5499 40.5541 54.7399 46.0241 48.8199 46.7341C45.5499 47.1141 42.2199 47.3841 38.9199 47.5541C37.4599 47.6241 36.2299 46.4341 36.2899 44.9341C36.3499 43.6241 37.4899 42.6241 38.8099 42.5541C41.9599 42.3841 45.14 42.1241 48.24 41.7641C51.65 41.3541 54.5499 38.0541 54.5499 34.5541C54.5499 32.5841 53.6399 30.8341 52.0599 29.7541C51.1999 29.1641 50.74 28.1141 50.98 27.1041C51.13 26.4741 51.21 25.8341 51.21 25.1941C51.21 20.9241 47.75 17.4541 43.51 17.4541H43.4099C42.6399 17.4641 41.87 17.6041 41.13 17.8541C40.12 18.2041 38.97 17.9241 38.35 17.0541C35.72 13.3541 31.7 11.2341 27.34 11.2341C19.78 11.2841 13.62 17.6341 13.61 25.3741C13.61 25.6641 13.6199 25.9641 13.6399 26.2641C13.7199 27.5041 12.8999 28.5841 11.6799 28.8641C9.02993 29.4741 7.16992 31.8141 7.16992 34.5541C7.16992 38.0541 10.07 41.3541 13.5 41.7641C16.77 42.1441 20.12 42.4141 23.47 42.5741C24.76 42.6341 25.89 43.6041 25.98 44.8941C26.08 46.3741 24.91 47.5841 23.49 47.5841C23.45 47.5841 23.41 47.5841 23.37 47.5841C19.87 47.4141 16.3499 47.1341 12.9199 46.7341C6.98992 46.0241 2.16992 40.5641 2.16992 34.5541C2.16992 30.3641 4.50997 26.6841 8.08997 24.8741C8.40997 24.7141 8.6299 24.4041 8.6499 24.0441C9.3299 14.1741 17.4399 6.30413 27.3199 6.23413C32.5299 6.23413 37.3599 8.4041 40.8899 12.2641C41.1199 12.5141 41.4499 12.6241 41.7799 12.5741C42.2999 12.5041 42.82 12.4541 43.35 12.4541H43.5C50.52 12.4541 56.22 18.1741 56.22 25.1941C56.21 25.6741 56.18 26.1541 56.13 26.6241ZM39.0499 34.8941C39.5199 35.2841 40.0899 35.4741 40.6499 35.4741C41.3799 35.4741 42.11 35.1541 42.61 34.5341C43.47 33.4541 43.1999 31.8541 42.1399 30.9641L33.74 23.9341C32.23 22.6741 30.0399 22.6741 28.5399 23.9341L20.13 30.9641C19.13 31.8041 18.8199 33.2841 19.5499 34.3741C20.3899 35.6141 22.1 35.8341 23.23 34.8941L27 31.7441C27.65 31.2041 28.6399 31.6641 28.6399 32.5141V56.6041C28.6399 57.9141 29.58 59.1041 30.88 59.2341C32.38 59.3841 33.6399 58.2141 33.6399 56.7441V32.5141C33.6399 31.6641 34.6299 31.2041 35.2799 31.7441L39.0499 34.8941Z" fill="black"/>
</svg>
