<svg width="64" height="65" viewBox="0 0 64 65" fill="none" xmlns="http://www.w3.org/2000/svg">
<path d="M32 34.4037C24.45 34.4037 18.3099 28.2637 18.3099 20.7137C18.3099 13.1637 24.45 7.02374 32 7.02374C39.55 7.02374 45.6899 13.1637 45.6899 20.7137C45.6899 28.2537 39.55 34.4037 32 34.4037Z" fill="black"/>
<path d="M32 38.9137C27.9 38.9137 24.12 37.5538 21.08 35.2538C18.14 33.0338 13.91 35.0837 13.89 38.7737C13.89 38.8037 13.89 38.8438 13.89 38.8738C13.89 48.8738 22 56.9837 32 56.9837C42 56.9837 50.11 48.8738 50.11 38.8738C50.11 38.8438 50.11 38.8037 50.11 38.7737C50.09 35.0837 45.86 33.0338 42.92 35.2538C39.88 37.5538 36.1 38.9137 32 38.9137Z" fill="black"/>
</svg>
