<svg width="64" height="65" viewBox="0 0 64 65" fill="none" xmlns="http://www.w3.org/2000/svg">
<path d="M26.3101 30.3638C18.7601 30.3638 12.6201 24.2238 12.6201 16.6738C12.6201 9.12377 18.7601 2.98376 26.3101 2.98376C33.8601 2.98376 40.0001 9.12377 40.0001 16.6738C40.0101 24.2138 33.8601 30.3638 26.3101 30.3638Z" fill="black"/>
<path d="M32.0399 50.0237C32.0399 42.9737 36.97 37.2437 43.49 35.4637C44.18 35.2737 44.4099 34.7437 44.3999 34.4737C44.3899 34.2537 44.38 34.0637 44.36 33.9537C43.81 30.7737 39.9999 29.1138 37.2899 31.1738C34.2399 33.4938 30.4399 34.8738 26.3199 34.8738C22.2199 34.8738 18.4399 33.5137 15.3999 31.2137C12.4599 28.9937 8.22996 31.0438 8.20996 34.7338C8.20996 34.7638 8.20996 34.8037 8.20996 34.8337C8.20996 44.8337 16.3199 52.9438 26.3199 52.9438C28.0899 52.9438 29.7899 52.6737 31.3999 52.2037C31.8499 52.0737 32.13 51.6338 32.09 51.1738C32.06 50.7938 32.0399 50.4137 32.0399 50.0237Z" fill="black"/>
<path d="M47.04 38.0237C40.42 38.0237 35.04 43.4037 35.04 50.0237C35.04 56.6437 40.42 62.0237 47.04 62.0237C53.66 62.0237 59.04 56.6437 59.04 50.0237C59.04 43.4037 53.65 38.0237 47.04 38.0237ZM52.54 51.6638H49.54C48.99 51.6638 48.54 52.1138 48.54 52.6638V55.6638C48.54 56.4938 47.87 57.1638 47.04 57.1638C46.21 57.1638 45.54 56.4938 45.54 55.6638V52.6638C45.54 52.1138 45.09 51.6638 44.54 51.6638H41.54C40.71 51.6638 40.04 50.9938 40.04 50.1638C40.04 49.3338 40.71 48.6638 41.54 48.6638H44.54C45.09 48.6638 45.54 48.2138 45.54 47.6638V44.6638C45.54 43.8338 46.21 43.1638 47.04 43.1638C47.87 43.1638 48.54 43.8338 48.54 44.6638V47.6638C48.54 48.2138 48.99 48.6638 49.54 48.6638H52.54C53.37 48.6638 54.04 49.3338 54.04 50.1638C54.04 50.9938 53.37 51.6638 52.54 51.6638Z" fill="black"/>
</svg>
