<svg width="64" height="64" viewBox="0 0 64 64" fill="none" xmlns="http://www.w3.org/2000/svg">
<path d="M24.4635 23.3058V44.7558C24.4635 45.6058 23.4735 46.0658 22.8235 45.5258L16.4335 40.1758C15.4335 39.3358 13.9135 39.2958 12.9735 40.2158C11.9035 41.2658 11.9935 42.9858 13.1135 43.9258L25.3635 54.1758C26.2935 54.9558 27.6435 54.9558 28.5735 54.1758L40.8235 43.9258C41.4135 43.4358 41.7235 42.7258 41.7235 42.0058C41.7235 41.4658 41.5535 40.9258 41.1935 40.4658C40.3135 39.3458 38.5835 39.2858 37.4835 40.1958L31.1135 45.5258C30.4635 46.0658 29.4735 45.6058 29.4735 44.7558V23.2158C29.4735 18.6058 32.9435 14.5758 37.5435 14.2658C42.5835 13.9258 46.7935 17.9357 46.7935 22.9057V31.3458C46.7935 32.6558 47.7335 33.8458 49.0335 33.9758C50.5335 34.1258 51.7935 32.9558 51.7935 31.4858V22.8958C51.7935 15.1358 45.2835 8.86579 37.4435 9.25579C30.0935 9.63579 24.4635 15.9658 24.4635 23.3058Z" fill="black"/>
</svg>
