<svg width="64" height="64" viewBox="0 0 64 64" fill="none" xmlns="http://www.w3.org/2000/svg">
<path d="M23.2848 24.4624H44.7348C45.5848 24.4624 46.0448 23.4724 45.5048 22.8224L40.1548 16.4324C39.3148 15.4324 39.2748 13.9124 40.1848 12.9724C41.2348 11.9024 42.9548 11.9924 43.8948 13.1124L54.1448 25.3624C54.9248 26.2924 54.9248 27.6424 54.1448 28.5724L43.8948 40.8224C43.4048 41.4124 42.6948 41.7224 41.9748 41.7224C41.4348 41.7224 40.8948 41.5524 40.4348 41.1924C39.3148 40.3124 39.2548 38.5824 40.1648 37.4824L45.4948 31.1124C46.0348 30.4624 45.5748 29.4724 44.7248 29.4724H23.1848C18.5748 29.4724 14.5448 32.9424 14.2348 37.5424C13.8948 42.5824 17.9048 46.7924 22.8748 46.7924H31.3148C32.6248 46.7924 33.8148 47.7324 33.9448 49.0324C34.0948 50.5324 32.9248 51.7924 31.4548 51.7924H22.8648C15.1048 51.7924 8.83478 45.2824 9.22478 37.4424C9.61478 30.1024 15.9448 24.4624 23.2848 24.4624Z" fill="black"/>
</svg>
