<svg width="64" height="64" viewBox="0 0 64 64" fill="none" xmlns="http://www.w3.org/2000/svg">
<path d="M39.5331 40.6891V19.2391C39.5331 18.3891 40.5232 17.9291 41.1732 18.4691L47.5631 23.8191C48.5631 24.6591 50.0831 24.6991 51.0231 23.7791C52.0931 22.7291 52.0031 21.0091 50.8831 20.0691L38.6331 9.81913C37.7031 9.03913 36.3532 9.03913 35.4232 9.81913L23.1732 20.0691C22.5832 20.5591 22.2731 21.2691 22.2731 21.9891C22.2731 22.5291 22.4431 23.0691 22.8031 23.5291C23.6831 24.6491 25.4131 24.7091 26.5131 23.7991L32.8831 18.4691C33.5331 17.9291 34.5231 18.3891 34.5231 19.2391V40.7791C34.5231 45.3891 31.0531 49.4191 26.4531 49.7291C21.4131 50.0691 17.2031 46.0591 17.2031 41.0891V32.6491C17.2031 31.3391 16.2631 30.1491 14.9631 30.0191C13.4631 29.8691 12.2031 31.0391 12.2031 32.5091V41.0991C12.2031 48.8591 18.7131 55.1291 26.5531 54.7391C33.9031 54.3691 39.5331 48.0391 39.5331 40.6891Z" fill="black"/>
</svg>
