<svg width="64" height="64" viewBox="0 0 64 64" fill="none" xmlns="http://www.w3.org/2000/svg">
<path d="M40.69 24.46H19.24C18.39 24.46 17.93 23.47 18.47 22.82L23.82 16.43C24.66 15.43 24.7 13.9099 23.78 12.9699C22.73 11.8999 21.01 11.99 20.07 13.11L9.81999 25.36C9.03999 26.29 9.03999 27.64 9.81999 28.57L20.07 40.82C20.56 41.41 21.27 41.7199 21.99 41.7199C22.53 41.7199 23.07 41.55 23.53 41.19C24.65 40.31 24.71 38.5799 23.8 37.4799L18.47 31.11C17.93 30.46 18.39 29.4699 19.24 29.4699H40.78C45.39 29.4699 49.42 32.9399 49.73 37.5399C50.07 42.5799 46.06 46.7899 41.09 46.7899H32.65C31.34 46.7899 30.15 47.7299 30.02 49.0299C29.87 50.5299 31.04 51.7899 32.51 51.7899H41.1C48.86 51.7899 55.13 45.28 54.74 37.44C54.37 30.1 48.04 24.46 40.69 24.46Z" fill="black"/>
</svg>
