<svg width="65" height="65" viewBox="0 0 65 65" fill="none" xmlns="http://www.w3.org/2000/svg">
<path d="M19.7668 26.0936C18.2068 26.3036 15.5068 26.4836 12.4868 26.6136C12.0668 26.6336 11.8068 26.1536 12.0568 25.8136C13.8568 23.4136 16.5268 20.2536 19.4568 17.3836C22.2168 14.6736 25.2268 12.2236 27.5768 10.5436C27.9268 10.2936 28.4068 10.5736 28.3568 11.0036C28.0768 14.0336 27.7868 16.7336 27.5768 18.2736C27.0268 22.3336 23.8268 25.5336 19.7668 26.0836V26.0936ZM57.6968 32.2536C57.6968 37.0836 57.3668 41.9236 56.7168 46.7136C56.4168 48.9336 55.3868 50.9236 53.8768 52.4336C52.3668 53.9436 50.3868 54.9636 48.1568 55.2736C43.3568 55.9236 38.5268 56.2536 33.6968 56.2536C28.8668 56.2536 24.0268 55.9236 19.2368 55.2736C17.0168 54.9736 15.0268 53.9436 13.5168 52.4336C12.0068 50.9236 10.9868 48.9436 10.6768 46.7136C10.3368 44.2036 10.0868 41.2236 9.93678 38.2436C9.79678 35.6336 9.72679 33.0136 9.70679 30.6936C9.70679 30.1536 10.1268 29.7136 10.6668 29.6936C12.4268 29.6236 14.1468 29.5436 15.6968 29.4536C17.5168 29.3436 19.0868 29.2136 20.1668 29.0636C22.8568 28.6936 25.2668 27.4436 27.0968 25.6136C28.9268 23.7836 30.1768 21.3736 30.5468 18.6836C30.6868 17.6936 30.8568 16.1536 31.0468 14.3336C31.2068 12.7736 31.3768 10.9936 31.5368 9.16361C31.5868 8.64361 32.0168 8.2436 32.5368 8.2536C34.8468 8.2736 37.3768 8.3436 39.9068 8.4836C42.7768 8.6436 45.6468 8.8836 48.1668 9.2336C50.3868 9.5336 52.3768 10.5636 53.8868 12.0736C55.3968 13.5836 56.4168 15.5636 56.7268 17.7936C57.3768 22.5936 57.7068 27.4236 57.7068 32.2536H57.6968ZM47.5568 35.7436L47.3768 34.7436C47.2468 34.0136 46.4868 33.5936 45.7968 33.8536L44.8068 34.2336C42.9368 34.9536 41.1368 35.8536 39.4368 36.9036C39.3968 36.5936 39.3568 36.2836 39.3068 35.9836C39.0668 34.4736 37.8668 33.2936 36.3568 33.0836C32.4968 32.5536 28.5768 32.5536 24.7168 33.0836C23.2068 33.2936 22.0068 34.4736 21.7668 35.9836C21.2668 39.1836 21.2668 42.4436 21.7668 45.6336C22.0068 47.1436 23.2068 48.3236 24.7168 48.5336C28.5768 49.0636 32.4968 49.0636 36.3568 48.5336C37.8668 48.3236 39.0668 47.1436 39.3068 45.6336C39.3568 45.3236 39.3968 45.0136 39.4368 44.7136C41.1368 45.7636 42.9368 46.6636 44.8068 47.3836L45.7968 47.7636C46.4868 48.0236 47.2468 47.6036 47.3768 46.8736L47.5568 45.8736C48.1668 42.5236 48.1668 39.0936 47.5568 35.7536V35.7436Z" fill="#231F20"/>
</svg>
