<svg width="64" height="65" viewBox="0 0 64 65" fill="none" xmlns="http://www.w3.org/2000/svg">
<path d="M56.0801 20.3764C55.6001 17.0964 53.01 14.5264 49.73 14.0764C37.97 12.4664 26.0501 12.4664 14.2901 14.0764C11.0101 14.5264 8.42008 17.0964 7.94008 20.3764C6.71008 28.7464 6.71008 37.2564 7.94008 45.6264C8.42008 48.9064 11.0101 51.4764 14.2901 51.9264C26.0501 53.5364 37.97 53.5364 49.73 51.9264C53.01 51.4764 55.6001 48.9064 56.0801 45.6264C57.3001 37.2464 57.3001 28.7464 56.0801 20.3764ZM10.5401 31.2664C10.5501 29.9564 11.4601 28.8964 12.5901 28.8464L15.9501 28.6964C17.1701 28.6464 18.17 29.7864 18.15 31.2064C18.14 32.3964 18.14 33.5964 18.15 34.7864C18.16 36.1964 17.1601 37.3464 15.9501 37.2964L12.5901 37.1464C11.4601 37.0964 10.5501 36.0364 10.5401 34.7264C10.5301 33.5764 10.5301 32.4164 10.5401 31.2664ZM17.03 49.2564L13.0601 48.7064C12.1001 48.5764 11.34 47.7964 11.24 46.8364C11.09 45.4064 10.97 43.9764 10.87 42.5364C10.8 41.5964 11.58 40.7964 12.53 40.8364L16.4401 40.9864C17.5301 41.0264 18.41 41.8864 18.48 42.9764C18.58 44.4864 18.7001 46.0064 18.8401 47.5164C18.9401 48.5464 18.06 49.4064 17.03 49.2564ZM18.47 23.0164C18.4 24.1064 17.5201 24.9664 16.4301 25.0064L12.52 25.1564C11.57 25.1964 10.8 24.3964 10.86 23.4564C10.96 22.0264 11.08 20.5864 11.23 19.1564C11.33 18.1864 12.0901 17.4164 13.0501 17.2864L17.02 16.7364C18.05 16.5964 18.9301 17.4464 18.8301 18.4864C18.6901 19.9964 18.57 21.5064 18.47 23.0164ZM46.98 16.7364L50.9501 17.2864C51.9101 17.4164 52.67 18.1964 52.77 19.1564C52.92 20.5864 53.04 22.0164 53.14 23.4564C53.21 24.3964 52.43 25.1964 51.48 25.1564L47.5701 25.0064C46.4801 24.9664 45.6 24.1064 45.53 23.0164C45.43 21.5064 45.3101 19.9864 45.1701 18.4764C45.0701 17.4464 45.95 16.5964 46.98 16.7364ZM52.76 46.8364C52.66 47.8064 51.9001 48.5764 50.9401 48.7064L46.97 49.2564C45.94 49.3964 45.0601 48.5464 45.16 47.5064C45.3101 45.9964 45.42 44.4864 45.52 42.9664C45.59 41.8764 46.4701 41.0164 47.5601 40.9764L51.47 40.8264C52.42 40.7864 53.19 41.5864 53.13 42.5264C53.03 43.9664 52.91 45.3964 52.76 46.8364ZM53.47 34.7264C53.46 36.0364 52.5501 37.0964 51.4201 37.1464L48.0601 37.2964C46.8401 37.3464 45.84 36.2064 45.86 34.7864C45.87 33.5964 45.87 32.3964 45.86 31.2064C45.85 29.7964 46.8501 28.6464 48.0601 28.6964L51.4201 28.8464C52.5501 28.8964 53.46 29.9564 53.47 31.2664C53.48 32.4164 53.48 33.5764 53.47 34.7264Z" fill="black"/>
</svg>
