<svg width="64" height="64" viewBox="0 0 64 64" fill="none" xmlns="http://www.w3.org/2000/svg">
<path d="M57.7102 22.66L57.3402 20.65C57.0802 19.2 55.5602 18.35 54.1802 18.88L52.2102 19.64C48.4602 21.08 44.8702 22.88 41.4702 24.98C41.3902 24.36 41.3102 23.75 41.2202 23.13C40.7502 20.11 38.3502 17.75 35.3202 17.34C27.5902 16.27 19.7602 16.27 12.0402 17.34C9.01016 17.76 6.61014 20.11 6.14014 23.13C5.14014 29.53 5.14014 36.04 6.14014 42.44C6.61014 45.46 9.01016 47.82 12.0402 48.23C19.7602 49.3 27.6002 49.3 35.3202 48.23C38.3502 47.81 40.7502 45.46 41.2202 42.44C41.3202 41.82 41.4002 41.21 41.4702 40.59C44.8702 42.69 48.4602 44.49 52.2102 45.93L54.1802 46.69C55.5602 47.22 57.0702 46.37 57.3402 44.92L57.7102 42.91C58.9302 36.21 58.9302 29.35 57.7102 22.66Z" fill="black"/>
</svg>
