<svg width="64" height="65" viewBox="0 0 64 65" fill="none" xmlns="http://www.w3.org/2000/svg">
<path d="M31.86 53.4638C36.0574 53.4638 39.4601 50.0612 39.4601 45.8638C39.4601 41.6664 36.0574 38.2638 31.86 38.2638C27.6626 38.2638 24.26 41.6664 24.26 45.8638C24.26 50.0612 27.6626 53.4638 31.86 53.4638Z" fill="black"/>
<path d="M43.1501 37.7138C44.0701 36.9638 44.2102 35.6138 43.4602 34.6938C40.6002 31.1938 36.3701 29.1838 31.8601 29.1838C27.5101 29.1838 23.3801 31.0739 20.5301 34.3639C19.7501 35.2639 19.8501 36.6139 20.7501 37.3939C21.6501 38.1739 23.0001 38.0739 23.7801 37.1739C25.8101 34.8239 28.7501 33.4839 31.8501 33.4839C35.0701 33.4839 38.0901 34.9138 40.1201 37.4138C40.5401 37.9338 41.1601 38.2039 41.7901 38.2039C42.2701 38.2039 42.7501 38.0438 43.1501 37.7138Z" fill="black"/>
<path d="M48.9799 31.1039C49.8899 30.3539 50.03 28.9939 49.27 28.0839C44.96 22.8639 38.62 19.8639 31.86 19.8639C25.26 19.8639 19.0101 22.7439 14.7101 27.7639C13.9401 28.6639 14.04 30.0239 14.95 30.7939C15.85 31.5639 17.2099 31.4639 17.9799 30.5539C21.4599 26.4839 26.52 24.1539 31.87 24.1539C37.34 24.1539 42.4799 26.5739 45.9699 30.8039C46.3899 31.3239 47.01 31.5839 47.63 31.5839C48.1 31.5939 48.5799 31.4339 48.9799 31.1039Z" fill="black"/>
<path d="M54.84 24.5539C55.76 23.7939 55.8801 22.4438 55.1301 21.5338C49.3701 14.5638 40.89 10.5638 31.86 10.5638C23 10.5638 14.6301 14.4338 8.89007 21.1838C8.12007 22.0838 8.23006 23.4438 9.13006 24.2138C10.0301 24.9838 11.3901 24.8738 12.1601 23.9738C17.0901 18.1838 24.27 14.8639 31.86 14.8639C39.61 14.8639 46.8801 18.2939 51.8201 24.2739C52.2401 24.7839 52.86 25.0539 53.48 25.0539C53.95 25.0439 54.44 24.8839 54.84 24.5539Z" fill="black"/>
</svg>
