<svg width="65" height="65" viewBox="0 0 65 65" fill="none" xmlns="http://www.w3.org/2000/svg">
<path d="M41.7327 25.4364L35.9326 32.3564C35.6126 32.7264 35.6126 33.2664 35.9326 33.6264L41.7227 40.5364C42.6427 41.6264 42.5726 43.3564 41.4526 44.2364C40.9926 44.5964 40.4526 44.7664 39.9126 44.7664C39.1926 44.7664 38.4927 44.4664 37.9927 43.8764L32.8926 37.7964C32.4926 37.3164 31.7627 37.3164 31.3627 37.7964L26.2627 43.8764C25.7627 44.4664 25.0527 44.7664 24.3427 44.7664C23.8027 44.7664 23.2526 44.5864 22.8026 44.2364C21.6826 43.3664 21.6226 41.6264 22.5326 40.5364L28.3226 33.6364C28.6326 33.2664 28.6326 32.7264 28.3226 32.3564L22.5226 25.4364C21.6826 24.4364 21.6426 22.9264 22.5526 21.9864C23.6026 20.9064 25.3227 20.9964 26.2627 22.1164L31.3627 28.1964C31.7627 28.6764 32.4926 28.6764 32.8926 28.1964L37.9927 22.1164C38.9327 20.9964 40.6526 20.9064 41.7026 21.9864C42.6126 22.9164 42.5727 24.4364 41.7327 25.4364Z" fill="black"/>
<path fill-rule="evenodd" clip-rule="evenodd" d="M7.12268 32.9964C7.12268 19.1864 18.3127 7.99643 32.1227 7.99643C45.9327 7.99643 57.1227 19.1864 57.1227 32.9964C57.1227 46.8064 45.9327 57.9964 32.1227 57.9964C18.3127 57.9964 7.12268 46.8064 7.12268 32.9964ZM52.1227 32.9964C52.1227 21.9664 43.1527 12.9964 32.1227 12.9964C21.1027 12.9964 12.1227 21.9664 12.1227 32.9964C12.1227 44.0264 21.0927 52.9964 32.1227 52.9964C43.1527 52.9964 52.1227 44.0264 52.1227 32.9964Z" fill="black"/>
</svg>
