<svg width="65" height="64" viewBox="0 0 65 64" fill="none" xmlns="http://www.w3.org/2000/svg">
<path d="M32.1227 7C18.3127 7 7.12268 18.19 7.12268 32C7.12268 45.81 18.3127 57 32.1227 57C45.9327 57 57.1227 45.81 57.1227 32C57.1227 18.19 45.9327 7 32.1227 7ZM35.9326 32.65L41.7227 39.56C42.6327 40.65 42.5726 42.38 41.4526 43.26C40.9926 43.62 40.4526 43.79 39.9126 43.79C39.2026 43.79 38.4927 43.49 37.9927 42.9L32.8926 36.82C32.4926 36.34 31.7627 36.34 31.3627 36.82L26.2627 42.9C25.7627 43.49 25.0627 43.79 24.3427 43.79C23.8027 43.79 23.2626 43.62 22.8026 43.26C21.6826 42.38 21.6126 40.65 22.5326 39.56L28.3226 32.66C28.6326 32.29 28.6326 31.75 28.3226 31.38L22.5226 24.46C21.6826 23.46 21.6426 21.94 22.5526 21.01C23.6026 19.93 25.3227 20.02 26.2627 21.14L31.3627 27.22C31.7627 27.7 32.4926 27.7 32.8926 27.22L37.9927 21.14C38.9327 20.02 40.6526 19.93 41.7026 21.01C42.6126 21.95 42.5727 23.46 41.7327 24.46L35.9326 31.38C35.6126 31.73 35.6126 32.28 35.9326 32.65Z" fill="black"/>
</svg>
