<svg width="65" height="64" viewBox="0 0 65 64" fill="none" xmlns="http://www.w3.org/2000/svg">
<path d="M36.0127 31.34L45.3927 20.48C46.2427 19.49 46.3126 17.97 45.4126 17.03C44.3826 15.94 42.6626 16 41.7026 17.11L32.9026 27.3C32.5026 27.76 31.7927 27.76 31.3927 27.3L22.6826 17.22C21.8326 16.23 20.3427 15.94 19.2727 16.7C18.0427 17.56 17.8526 19.28 18.8126 20.39L28.2826 31.36C28.6026 31.74 28.6026 32.29 28.2826 32.67L18.9226 43.51C17.9826 44.6 18.0326 46.35 19.1526 47.24C19.6126 47.6 20.1526 47.78 20.7026 47.78C21.4026 47.78 22.1027 47.49 22.5927 46.91L31.3927 36.72C31.7927 36.26 32.5026 36.26 32.9026 36.72L41.7026 46.91C42.1926 47.48 42.8927 47.78 43.5927 47.78C44.1327 47.78 44.6827 47.6 45.1427 47.24C46.2727 46.35 46.3127 44.6 45.3727 43.51L36.0127 32.67C35.6827 32.27 35.6827 31.72 36.0127 31.34Z" fill="black"/>
</svg>
